G04*
G04 #@! TF.GenerationSoftware,Altium Limited,Altium Designer,20.1.12 (249)*
G04*
G04 Layer_Color=32768*
%FSTAX24Y24*%
%MOIN*%
G70*
G04*
G04 #@! TF.SameCoordinates,65647CF5-6095-42B6-9084-E7F1C421F8D5*
G04*
G04*
G04 #@! TF.FilePolarity,Positive*
G04*
G01*
G75*
%ADD18C,0.0039*%
%ADD112R,0.0236X0.0098*%
D18*
X038838Y079788D02*
X039862D01*
X038838Y080792D02*
X039862D01*
Y079788D02*
Y080792D01*
X038838Y079788D02*
Y080792D01*
X034888Y079788D02*
X035912D01*
X034888Y080792D02*
X035912D01*
Y079788D02*
Y080792D01*
X034888Y079788D02*
Y080792D01*
X048038Y079788D02*
X049062D01*
X048038Y080792D02*
X049062D01*
Y079788D02*
Y080792D01*
X048038Y079788D02*
Y080792D01*
X052088Y079788D02*
X053112D01*
X052088Y080792D02*
X053112D01*
Y079788D02*
Y080792D01*
X052088Y079788D02*
Y080792D01*
X040138Y079788D02*
X041162D01*
X040138Y080792D02*
X041162D01*
Y079788D02*
Y080792D01*
X040138Y079788D02*
Y080792D01*
X044088Y079788D02*
X045112D01*
X044088Y080792D02*
X045112D01*
Y079788D02*
Y080792D01*
X044088Y079788D02*
Y080792D01*
X036188Y079788D02*
X037212D01*
X036188Y080792D02*
X037212D01*
Y079788D02*
Y080792D01*
X036188Y079788D02*
Y080792D01*
X045338Y079788D02*
X046362D01*
X045338Y080792D02*
X046362D01*
Y079788D02*
Y080792D01*
X045338Y079788D02*
Y080792D01*
X049414Y079788D02*
X050438D01*
X049414Y080792D02*
X050438D01*
Y079788D02*
Y080792D01*
X049414Y079788D02*
Y080792D01*
X041488Y079788D02*
X042512D01*
X041488Y080792D02*
X042512D01*
Y079788D02*
Y080792D01*
X041488Y079788D02*
Y080792D01*
X046714Y079788D02*
X047738D01*
X046714Y080792D02*
X047738D01*
Y079788D02*
Y080792D01*
X046714Y079788D02*
Y080792D01*
X050738Y079788D02*
X051762D01*
X050738Y080792D02*
X051762D01*
Y079788D02*
Y080792D01*
X050738Y079788D02*
Y080792D01*
X037488Y079788D02*
X038512D01*
X037488Y080792D02*
X038512D01*
Y079788D02*
Y080792D01*
X037488Y079788D02*
Y080792D01*
X033575Y079816D02*
X034598D01*
X033575Y08082D02*
X034598D01*
Y079816D02*
Y08082D01*
X033575Y079816D02*
Y08082D01*
X042788Y079788D02*
X043812D01*
X042788Y080792D02*
X043812D01*
Y079788D02*
Y080792D01*
X042788Y079788D02*
Y080792D01*
D112*
X038986Y079749D02*
D03*
X039714D02*
D03*
X03935Y080841D02*
D03*
X035036Y079749D02*
D03*
X035764D02*
D03*
X0354Y080841D02*
D03*
X048186Y079749D02*
D03*
X048914D02*
D03*
X04855Y080841D02*
D03*
X052236Y079749D02*
D03*
X052964D02*
D03*
X0526Y080841D02*
D03*
X040286Y079749D02*
D03*
X041014D02*
D03*
X04065Y080841D02*
D03*
X044236Y079749D02*
D03*
X044964D02*
D03*
X0446Y080841D02*
D03*
X036336Y079749D02*
D03*
X037064D02*
D03*
X0367Y080841D02*
D03*
X045486Y079749D02*
D03*
X046214D02*
D03*
X04585Y080841D02*
D03*
X049562Y079749D02*
D03*
X05029D02*
D03*
X049926Y080841D02*
D03*
X041636Y079749D02*
D03*
X042364D02*
D03*
X042Y080841D02*
D03*
X046862Y079749D02*
D03*
X04759D02*
D03*
X047226Y080841D02*
D03*
X050886Y079749D02*
D03*
X051614D02*
D03*
X05125Y080841D02*
D03*
X037636Y079749D02*
D03*
X038364D02*
D03*
X038Y080841D02*
D03*
X033722Y079777D02*
D03*
X034451D02*
D03*
X034086Y080869D02*
D03*
X042936Y079749D02*
D03*
X043664D02*
D03*
X0433Y080841D02*
D03*
M02*
