G04*
G04 #@! TF.GenerationSoftware,Altium Limited,Altium Designer,20.1.12 (249)*
G04*
G04 Layer_Color=2752767*
%FSTAX24Y24*%
%MOIN*%
G70*
G04*
G04 #@! TF.SameCoordinates,65647CF5-6095-42B6-9084-E7F1C421F8D5*
G04*
G04*
G04 #@! TF.FilePolarity,Positive*
G04*
G01*
G75*
%ADD116C,0.0020*%
%ADD117C,0.0027*%
%ADD118C,0.0013*%
D116*
X02542Y04922D02*
Y04938D01*
X02558D01*
Y04922D01*
X02542D01*
Y05022D02*
Y05038D01*
X02558D01*
Y05022D01*
X02542D01*
Y05122D02*
Y05138D01*
X02558D01*
Y05122D01*
X02542D01*
Y05222D02*
Y05238D01*
X02558D01*
Y05222D01*
X02542D01*
Y05322D02*
Y05338D01*
X02558D01*
Y05322D01*
X02542D01*
X02642D02*
Y05338D01*
X02658D01*
Y05322D01*
X02642D01*
Y05222D02*
Y05238D01*
X02658D01*
Y05222D01*
X02642D01*
Y05122D02*
Y05138D01*
X02658D01*
Y05122D01*
X02642D01*
Y05022D02*
Y05038D01*
X02658D01*
Y05022D01*
X02642D01*
Y04922D02*
Y04938D01*
X02658D01*
Y04922D01*
X02642D01*
X01432Y07112D02*
Y07128D01*
X01448D01*
Y07112D01*
X01432D01*
Y07012D02*
Y07028D01*
X01448D01*
Y07012D01*
X01432D01*
Y06912D02*
Y06928D01*
X01448D01*
Y06912D01*
X01432D01*
Y06812D02*
Y06828D01*
X01448D01*
Y06812D01*
X01432D01*
Y06712D02*
Y06728D01*
X01448D01*
Y06712D01*
X01432D01*
X01332D02*
Y06728D01*
X01348D01*
Y06712D01*
X01332D01*
Y06812D02*
Y06828D01*
X01348D01*
Y06812D01*
X01332D01*
Y06912D02*
Y06928D01*
X01348D01*
Y06912D01*
X01332D01*
Y07012D02*
Y07028D01*
X01348D01*
Y07012D01*
X01332D01*
Y07112D02*
Y07128D01*
X01348D01*
Y07112D01*
X01332D01*
X01422Y06282D02*
Y06298D01*
X01438D01*
Y06282D01*
X01422D01*
Y06182D02*
Y06198D01*
X01438D01*
Y06182D01*
X01422D01*
Y06082D02*
Y06098D01*
X01438D01*
Y06082D01*
X01422D01*
Y05982D02*
Y05998D01*
X01438D01*
Y05982D01*
X01422D01*
Y05882D02*
Y05898D01*
X01438D01*
Y05882D01*
X01422D01*
X01322D02*
Y05898D01*
X01338D01*
Y05882D01*
X01322D01*
Y05982D02*
Y05998D01*
X01338D01*
Y05982D01*
X01322D01*
Y06082D02*
Y06098D01*
X01338D01*
Y06082D01*
X01322D01*
Y06182D02*
Y06198D01*
X01338D01*
Y06182D01*
X01322D01*
Y06282D02*
Y06298D01*
X01338D01*
Y06282D01*
X01322D01*
X0685Y05187D02*
X06842Y05203D01*
X06858D01*
X0685Y05187D01*
Y05387D02*
X06842Y05403D01*
X06858D01*
X0685Y05387D01*
X02515Y06507D02*
X02519Y06511D01*
X02523D01*
X02519Y06515D01*
X02523Y06519D01*
X02519D01*
X02515Y06523D01*
X02511Y06519D01*
X02507D01*
X02511Y06515D01*
X02507Y06511D01*
X02511D01*
X02515Y06507D01*
X01815Y06407D02*
X01819Y06411D01*
X01823D01*
X01819Y06415D01*
X01823Y06419D01*
X01819D01*
X01815Y06423D01*
X01811Y06419D01*
X01807D01*
X01811Y06415D01*
X01807Y06411D01*
X01811D01*
X01815Y06407D01*
Y06507D02*
X01819Y06511D01*
X01823D01*
X01819Y06515D01*
X01823Y06519D01*
X01819D01*
X01815Y06523D01*
X01811Y06519D01*
X01807D01*
X01811Y06515D01*
X01807Y06511D01*
X01811D01*
X01815Y06507D01*
X01915Y06407D02*
X01919Y06411D01*
X01923D01*
X01919Y06415D01*
X01923Y06419D01*
X01919D01*
X01915Y06423D01*
X01911Y06419D01*
X01907D01*
X01911Y06415D01*
X01907Y06411D01*
X01911D01*
X01915Y06407D01*
Y06507D02*
X01919Y06511D01*
X01923D01*
X01919Y06515D01*
X01923Y06519D01*
X01919D01*
X01915Y06523D01*
X01911Y06519D01*
X01907D01*
X01911Y06515D01*
X01907Y06511D01*
X01911D01*
X01915Y06507D01*
X02015Y06407D02*
X02019Y06411D01*
X02023D01*
X02019Y06415D01*
X02023Y06419D01*
X02019D01*
X02015Y06423D01*
X02011Y06419D01*
X02007D01*
X02011Y06415D01*
X02007Y06411D01*
X02011D01*
X02015Y06407D01*
Y06507D02*
X02019Y06511D01*
X02023D01*
X02019Y06515D01*
X02023Y06519D01*
X02019D01*
X02015Y06523D01*
X02011Y06519D01*
X02007D01*
X02011Y06515D01*
X02007Y06511D01*
X02011D01*
X02015Y06507D01*
X02115Y06407D02*
X02119Y06411D01*
X02123D01*
X02119Y06415D01*
X02123Y06419D01*
X02119D01*
X02115Y06423D01*
X02111Y06419D01*
X02107D01*
X02111Y06415D01*
X02107Y06411D01*
X02111D01*
X02115Y06407D01*
Y06507D02*
X02119Y06511D01*
X02123D01*
X02119Y06515D01*
X02123Y06519D01*
X02119D01*
X02115Y06523D01*
X02111Y06519D01*
X02107D01*
X02111Y06515D01*
X02107Y06511D01*
X02111D01*
X02115Y06507D01*
X02215Y06407D02*
X02219Y06411D01*
X02223D01*
X02219Y06415D01*
X02223Y06419D01*
X02219D01*
X02215Y06423D01*
X02211Y06419D01*
X02207D01*
X02211Y06415D01*
X02207Y06411D01*
X02211D01*
X02215Y06407D01*
Y06507D02*
X02219Y06511D01*
X02223D01*
X02219Y06515D01*
X02223Y06519D01*
X02219D01*
X02215Y06523D01*
X02211Y06519D01*
X02207D01*
X02211Y06515D01*
X02207Y06511D01*
X02211D01*
X02215Y06507D01*
X02315Y06407D02*
X02319Y06411D01*
X02323D01*
X02319Y06415D01*
X02323Y06419D01*
X02319D01*
X02315Y06423D01*
X02311Y06419D01*
X02307D01*
X02311Y06415D01*
X02307Y06411D01*
X02311D01*
X02315Y06407D01*
Y06507D02*
X02319Y06511D01*
X02323D01*
X02319Y06515D01*
X02323Y06519D01*
X02319D01*
X02315Y06523D01*
X02311Y06519D01*
X02307D01*
X02311Y06515D01*
X02307Y06511D01*
X02311D01*
X02315Y06507D01*
X02415Y06407D02*
X02419Y06411D01*
X02423D01*
X02419Y06415D01*
X02423Y06419D01*
X02419D01*
X02415Y06423D01*
X02411Y06419D01*
X02407D01*
X02411Y06415D01*
X02407Y06411D01*
X02411D01*
X02415Y06407D01*
Y06507D02*
X02419Y06511D01*
X02423D01*
X02419Y06515D01*
X02423Y06519D01*
X02419D01*
X02415Y06523D01*
X02411Y06519D01*
X02407D01*
X02411Y06515D01*
X02407Y06511D01*
X02411D01*
X02415Y06507D01*
X02515Y06407D02*
X02519Y06411D01*
X02523D01*
X02519Y06415D01*
X02523Y06419D01*
X02519D01*
X02515Y06423D01*
X02511Y06419D01*
X02507D01*
X02511Y06415D01*
X02507Y06411D01*
X02511D01*
X02515Y06407D01*
X02815Y06407D02*
X02819Y06411D01*
X02823D01*
X02819Y06415D01*
X02823Y06419D01*
X02819D01*
X02815Y06423D01*
X02811Y06419D01*
X02807D01*
X02811Y06415D01*
X02807Y06411D01*
X02811D01*
X02815Y06407D01*
X02915Y06407D02*
X02919Y06411D01*
X02923D01*
X02919Y06415D01*
X02923Y06419D01*
X02919D01*
X02915Y06423D01*
X02911Y06419D01*
X02907D01*
X02911Y06415D01*
X02907Y06411D01*
X02911D01*
X02915Y06407D01*
X02915Y06507D02*
X02919Y06511D01*
X02923D01*
X02919Y06515D01*
X02923Y06519D01*
X02919D01*
X02915Y06523D01*
X02911Y06519D01*
X02907D01*
X02911Y06515D01*
X02907Y06511D01*
X02911D01*
X02915Y06507D01*
X02815Y06507D02*
X02819Y06511D01*
X02823D01*
X02819Y06515D01*
X02823Y06519D01*
X02819D01*
X02815Y06523D01*
X02811Y06519D01*
X02807D01*
X02811Y06515D01*
X02807Y06511D01*
X02811D01*
X02815Y06507D01*
X02715Y06507D02*
X02719Y06511D01*
X02723D01*
X02719Y06515D01*
X02723Y06519D01*
X02719D01*
X02715Y06523D01*
X02711Y06519D01*
X02707D01*
X02711Y06515D01*
X02707Y06511D01*
X02711D01*
X02715Y06507D01*
X03015Y06507D02*
X03019Y06511D01*
X03023D01*
X03019Y06515D01*
X03023Y06519D01*
X03019D01*
X03015Y06523D01*
X03011Y06519D01*
X03007D01*
X03011Y06515D01*
X03007Y06511D01*
X03011D01*
X03015Y06507D01*
X02615Y06407D02*
X02619Y06411D01*
X02623D01*
X02619Y06415D01*
X02623Y06419D01*
X02619D01*
X02615Y06423D01*
X02611Y06419D01*
X02607D01*
X02611Y06415D01*
X02607Y06411D01*
X02611D01*
X02615Y06407D01*
X02615Y06507D02*
X02619Y06511D01*
X02623D01*
X02619Y06515D01*
X02623Y06519D01*
X02619D01*
X02615Y06523D01*
X02611Y06519D01*
X02607D01*
X02611Y06515D01*
X02607Y06511D01*
X02611D01*
X02615Y06507D01*
X03015Y06407D02*
X03019Y06411D01*
X03023D01*
X03019Y06415D01*
X03023Y06419D01*
X03019D01*
X03015Y06423D01*
X03011Y06419D01*
X03007D01*
X03011Y06415D01*
X03007Y06411D01*
X03011D01*
X03015Y06407D01*
X02715Y06407D02*
X02719Y06411D01*
X02723D01*
X02719Y06415D01*
X02723Y06419D01*
X02719D01*
X02715Y06423D01*
X02711Y06419D01*
X02707D01*
X02711Y06415D01*
X02707Y06411D01*
X02711D01*
X02715Y06407D01*
X073946Y043646D02*
X073986Y043726D01*
X073946Y043806D01*
X074026Y043766D01*
X074106Y043806D01*
X074066Y043726D01*
X074106Y043646D01*
X074026Y043686D01*
X073946Y043646D01*
X06992Y04362D02*
X06996Y0437D01*
X06992Y04378D01*
X07Y04374D01*
X07008Y04378D01*
X07004Y0437D01*
X07008Y04362D01*
X07Y04366D01*
X06992Y04362D01*
X07192D02*
X07196Y0437D01*
X07192Y04378D01*
X072Y04374D01*
X07208Y04378D01*
X07204Y0437D01*
X07208Y04362D01*
X072Y04366D01*
X07192Y04362D01*
X070877Y082561D02*
Y082521D01*
X070957D01*
Y082561D01*
X070997D01*
Y082641D01*
X070957D01*
Y082681D01*
X070877D01*
Y082641D01*
X070837D01*
Y082561D01*
X070877D01*
X063248Y082559D02*
Y082519D01*
X063328D01*
Y082559D01*
X063368D01*
Y082639D01*
X063328D01*
Y082679D01*
X063248D01*
Y082639D01*
X063208D01*
Y082559D01*
X063248D01*
X063788Y083679D02*
Y083639D01*
X063868D01*
Y083679D01*
X063908D01*
Y083759D01*
X063868D01*
Y083799D01*
X063788D01*
Y083759D01*
X063748D01*
Y083679D01*
X063788D01*
X064334Y082561D02*
Y082521D01*
X064414D01*
Y082561D01*
X064454D01*
Y082641D01*
X064414D01*
Y082681D01*
X064334D01*
Y082641D01*
X064294D01*
Y082561D01*
X064334D01*
X064879Y083679D02*
Y083639D01*
X064959D01*
Y083679D01*
X064999D01*
Y083759D01*
X064959D01*
Y083799D01*
X064879D01*
Y083759D01*
X064839D01*
Y083679D01*
X064879D01*
X065424Y082561D02*
Y082521D01*
X065504D01*
Y082561D01*
X065544D01*
Y082641D01*
X065504D01*
Y082681D01*
X065424D01*
Y082641D01*
X065384D01*
Y082561D01*
X065424D01*
X065969Y083679D02*
Y083639D01*
X066049D01*
Y083679D01*
X066089D01*
Y083759D01*
X066049D01*
Y083799D01*
X065969D01*
Y083759D01*
X065929D01*
Y083679D01*
X065969D01*
X066515Y082561D02*
Y082521D01*
X066595D01*
Y082561D01*
X066635D01*
Y082641D01*
X066595D01*
Y082681D01*
X066515D01*
Y082641D01*
X066475D01*
Y082561D01*
X066515D01*
X06706Y083679D02*
Y083639D01*
X06714D01*
Y083679D01*
X06718D01*
Y083759D01*
X06714D01*
Y083799D01*
X06706D01*
Y083759D01*
X06702D01*
Y083679D01*
X06706D01*
X067605Y082561D02*
Y082521D01*
X067685D01*
Y082561D01*
X067725D01*
Y082641D01*
X067685D01*
Y082681D01*
X067605D01*
Y082641D01*
X067565D01*
Y082561D01*
X067605D01*
X068151Y083679D02*
Y083639D01*
X068231D01*
Y083679D01*
X068271D01*
Y083759D01*
X068231D01*
Y083799D01*
X068151D01*
Y083759D01*
X068111D01*
Y083679D01*
X068151D01*
X068696Y082561D02*
Y082521D01*
X068776D01*
Y082561D01*
X068816D01*
Y082641D01*
X068776D01*
Y082681D01*
X068696D01*
Y082641D01*
X068656D01*
Y082561D01*
X068696D01*
X069241Y083679D02*
Y083639D01*
X069321D01*
Y083679D01*
X069361D01*
Y083759D01*
X069321D01*
Y083799D01*
X069241D01*
Y083759D01*
X069201D01*
Y083679D01*
X069241D01*
X069786Y082561D02*
Y082521D01*
X069866D01*
Y082561D01*
X069906D01*
Y082641D01*
X069866D01*
Y082681D01*
X069786D01*
Y082641D01*
X069746D01*
Y082561D01*
X069786D01*
X070332Y083679D02*
Y083639D01*
X070412D01*
Y083679D01*
X070452D01*
Y083759D01*
X070412D01*
Y083799D01*
X070332D01*
Y083759D01*
X070292D01*
Y083679D01*
X070332D01*
X060461Y08308D02*
X060501D01*
X060541Y08312D01*
X060581Y08308D01*
X060621D01*
Y08312D01*
X060581Y08316D01*
X060621Y0832D01*
Y08324D01*
X060581D01*
X060541Y0832D01*
X060501Y08324D01*
X060461D01*
Y0832D01*
X060501Y08316D01*
X060461Y08312D01*
Y08308D01*
X073579D02*
X073619D01*
X073659Y08312D01*
X073699Y08308D01*
X073739D01*
Y08312D01*
X073699Y08316D01*
X073739Y0832D01*
Y08324D01*
X073699D01*
X073659Y0832D01*
X073619Y08324D01*
X073579D01*
Y0832D01*
X073619Y08316D01*
X073579Y08312D01*
Y08308D01*
X026727Y082761D02*
Y082721D01*
X026807D01*
Y082761D01*
X026847D01*
Y082841D01*
X026807D01*
Y082881D01*
X026727D01*
Y082841D01*
X026687D01*
Y082761D01*
X026727D01*
X019098Y082759D02*
Y082719D01*
X019178D01*
Y082759D01*
X019218D01*
Y082839D01*
X019178D01*
Y082879D01*
X019098D01*
Y082839D01*
X019058D01*
Y082759D01*
X019098D01*
X019638Y083879D02*
Y083839D01*
X019718D01*
Y083879D01*
X019758D01*
Y083959D01*
X019718D01*
Y083999D01*
X019638D01*
Y083959D01*
X019598D01*
Y083879D01*
X019638D01*
X020184Y082761D02*
Y082721D01*
X020264D01*
Y082761D01*
X020304D01*
Y082841D01*
X020264D01*
Y082881D01*
X020184D01*
Y082841D01*
X020144D01*
Y082761D01*
X020184D01*
X020729Y083879D02*
Y083839D01*
X020809D01*
Y083879D01*
X020849D01*
Y083959D01*
X020809D01*
Y083999D01*
X020729D01*
Y083959D01*
X020689D01*
Y083879D01*
X020729D01*
X021274Y082761D02*
Y082721D01*
X021354D01*
Y082761D01*
X021394D01*
Y082841D01*
X021354D01*
Y082881D01*
X021274D01*
Y082841D01*
X021234D01*
Y082761D01*
X021274D01*
X021819Y083879D02*
Y083839D01*
X021899D01*
Y083879D01*
X021939D01*
Y083959D01*
X021899D01*
Y083999D01*
X021819D01*
Y083959D01*
X021779D01*
Y083879D01*
X021819D01*
X022365Y082761D02*
Y082721D01*
X022445D01*
Y082761D01*
X022485D01*
Y082841D01*
X022445D01*
Y082881D01*
X022365D01*
Y082841D01*
X022325D01*
Y082761D01*
X022365D01*
X02291Y083879D02*
Y083839D01*
X02299D01*
Y083879D01*
X02303D01*
Y083959D01*
X02299D01*
Y083999D01*
X02291D01*
Y083959D01*
X02287D01*
Y083879D01*
X02291D01*
X023455Y082761D02*
Y082721D01*
X023535D01*
Y082761D01*
X023575D01*
Y082841D01*
X023535D01*
Y082881D01*
X023455D01*
Y082841D01*
X023415D01*
Y082761D01*
X023455D01*
X024001Y083879D02*
Y083839D01*
X024081D01*
Y083879D01*
X024121D01*
Y083959D01*
X024081D01*
Y083999D01*
X024001D01*
Y083959D01*
X023961D01*
Y083879D01*
X024001D01*
X024546Y082761D02*
Y082721D01*
X024626D01*
Y082761D01*
X024666D01*
Y082841D01*
X024626D01*
Y082881D01*
X024546D01*
Y082841D01*
X024506D01*
Y082761D01*
X024546D01*
X025091Y083879D02*
Y083839D01*
X025171D01*
Y083879D01*
X025211D01*
Y083959D01*
X025171D01*
Y083999D01*
X025091D01*
Y083959D01*
X025051D01*
Y083879D01*
X025091D01*
X025636Y082761D02*
Y082721D01*
X025716D01*
Y082761D01*
X025756D01*
Y082841D01*
X025716D01*
Y082881D01*
X025636D01*
Y082841D01*
X025596D01*
Y082761D01*
X025636D01*
X026182Y083879D02*
Y083839D01*
X026262D01*
Y083879D01*
X026302D01*
Y083959D01*
X026262D01*
Y083999D01*
X026182D01*
Y083959D01*
X026142D01*
Y083879D01*
X026182D01*
X016311Y08328D02*
X016351D01*
X016391Y08332D01*
X016431Y08328D01*
X016471D01*
Y08332D01*
X016431Y08336D01*
X016471Y0834D01*
Y08344D01*
X016431D01*
X016391Y0834D01*
X016351Y08344D01*
X016311D01*
Y0834D01*
X016351Y08336D01*
X016311Y08332D01*
Y08328D01*
X029429D02*
X029469D01*
X029509Y08332D01*
X029549Y08328D01*
X029589D01*
Y08332D01*
X029549Y08336D01*
X029589Y0834D01*
Y08344D01*
X029549D01*
X029509Y0834D01*
X029469Y08344D01*
X029429D01*
Y0834D01*
X029469Y08336D01*
X029429Y08332D01*
Y08328D01*
X035115Y082692D02*
Y082652D01*
X035195D01*
Y082692D01*
X035235D01*
Y082772D01*
X035195D01*
Y082812D01*
X035115D01*
Y082772D01*
X035075D01*
Y082692D01*
X035115D01*
X03566Y08381D02*
Y08377D01*
X03574D01*
Y08381D01*
X03578D01*
Y08389D01*
X03574D01*
Y08393D01*
X03566D01*
Y08389D01*
X03562D01*
Y08381D01*
X03566D01*
X036205Y082692D02*
Y082652D01*
X036285D01*
Y082692D01*
X036325D01*
Y082772D01*
X036285D01*
Y082812D01*
X036205D01*
Y082772D01*
X036165D01*
Y082692D01*
X036205D01*
X036751Y08381D02*
Y08377D01*
X036831D01*
Y08381D01*
X036871D01*
Y08389D01*
X036831D01*
Y08393D01*
X036751D01*
Y08389D01*
X036711D01*
Y08381D01*
X036751D01*
X032369Y083221D02*
X032409D01*
X032449Y083261D01*
X032489Y083221D01*
X032529D01*
Y083261D01*
X032489Y083301D01*
X032529Y083341D01*
Y083381D01*
X032489D01*
X032449Y083341D01*
X032409Y083381D01*
X032369D01*
Y083341D01*
X032409Y083301D01*
X032369Y083261D01*
Y083221D01*
X057448Y083213D02*
X057488D01*
X057528Y083253D01*
X057568Y083213D01*
X057608D01*
Y083253D01*
X057568Y083293D01*
X057608Y083333D01*
Y083373D01*
X057568D01*
X057528Y083333D01*
X057488Y083373D01*
X057448D01*
Y083333D01*
X057488Y083293D01*
X057448Y083253D01*
Y083213D01*
X038932Y08381D02*
Y08377D01*
X039012D01*
Y08381D01*
X039052D01*
Y08389D01*
X039012D01*
Y08393D01*
X038932D01*
Y08389D01*
X038892D01*
Y08381D01*
X038932D01*
X038386Y082692D02*
Y082652D01*
X038466D01*
Y082692D01*
X038506D01*
Y082772D01*
X038466D01*
Y082812D01*
X038386D01*
Y082772D01*
X038346D01*
Y082692D01*
X038386D01*
X037841Y08381D02*
Y08377D01*
X037921D01*
Y08381D01*
X037961D01*
Y08389D01*
X037921D01*
Y08393D01*
X037841D01*
Y08389D01*
X037801D01*
Y08381D01*
X037841D01*
X037296Y082692D02*
Y082652D01*
X037376D01*
Y082692D01*
X037416D01*
Y082772D01*
X037376D01*
Y082812D01*
X037296D01*
Y082772D01*
X037256D01*
Y082692D01*
X037296D01*
X041113Y08381D02*
Y08377D01*
X041193D01*
Y08381D01*
X041233D01*
Y08389D01*
X041193D01*
Y08393D01*
X041113D01*
Y08389D01*
X041073D01*
Y08381D01*
X041113D01*
X040567Y082692D02*
Y082652D01*
X040647D01*
Y082692D01*
X040687D01*
Y082772D01*
X040647D01*
Y082812D01*
X040567D01*
Y082772D01*
X040527D01*
Y082692D01*
X040567D01*
X040022Y08381D02*
Y08377D01*
X040102D01*
Y08381D01*
X040142D01*
Y08389D01*
X040102D01*
Y08393D01*
X040022D01*
Y08389D01*
X039982D01*
Y08381D01*
X040022D01*
X039477Y082692D02*
Y082652D01*
X039557D01*
Y082692D01*
X039597D01*
Y082772D01*
X039557D01*
Y082812D01*
X039477D01*
Y082772D01*
X039437D01*
Y082692D01*
X039477D01*
X045475Y08381D02*
Y08377D01*
X045555D01*
Y08381D01*
X045595D01*
Y08389D01*
X045555D01*
Y08393D01*
X045475D01*
Y08389D01*
X045435D01*
Y08381D01*
X045475D01*
X04493Y082692D02*
Y082652D01*
X04501D01*
Y082692D01*
X04505D01*
Y082772D01*
X04501D01*
Y082812D01*
X04493D01*
Y082772D01*
X04489D01*
Y082692D01*
X04493D01*
X044384Y08381D02*
Y08377D01*
X044464D01*
Y08381D01*
X044504D01*
Y08389D01*
X044464D01*
Y08393D01*
X044384D01*
Y08389D01*
X044344D01*
Y08381D01*
X044384D01*
X041658Y082692D02*
Y082652D01*
X041738D01*
Y082692D01*
X041778D01*
Y082772D01*
X041738D01*
Y082812D01*
X041658D01*
Y082772D01*
X041618D01*
Y082692D01*
X041658D01*
X046565Y08381D02*
Y08377D01*
X046645D01*
Y08381D01*
X046686D01*
Y08389D01*
X046645D01*
Y08393D01*
X046565D01*
Y08389D01*
X046526D01*
Y08381D01*
X046565D01*
X04602Y082692D02*
Y082652D01*
X0461D01*
Y082692D01*
X04614D01*
Y082772D01*
X0461D01*
Y082812D01*
X04602D01*
Y082772D01*
X04598D01*
Y082692D01*
X04602D01*
X043294Y08381D02*
Y08377D01*
X043374D01*
Y08381D01*
X043414D01*
Y08389D01*
X043374D01*
Y08393D01*
X043294D01*
Y08389D01*
X043254D01*
Y08381D01*
X043294D01*
X042749Y082692D02*
Y082652D01*
X042829D01*
Y082692D01*
X042869D01*
Y082772D01*
X042829D01*
Y082812D01*
X042749D01*
Y082772D01*
X042709D01*
Y082692D01*
X042749D01*
X042203Y08381D02*
Y08377D01*
X042283D01*
Y08381D01*
X042323D01*
Y08389D01*
X042283D01*
Y08393D01*
X042203D01*
Y08389D01*
X042163D01*
Y08381D01*
X042203D01*
X04384Y082692D02*
Y082652D01*
X04392D01*
Y082692D01*
X04396D01*
Y082772D01*
X04392D01*
Y082812D01*
X04384D01*
Y082772D01*
X0438D01*
Y082692D01*
X04384D01*
X054745Y082692D02*
Y082652D01*
X054825D01*
Y082692D01*
X054865D01*
Y082772D01*
X054825D01*
Y082812D01*
X054745D01*
Y082772D01*
X054705D01*
Y082692D01*
X054745D01*
X047111Y082692D02*
Y082652D01*
X047191D01*
Y082692D01*
X047231D01*
Y082772D01*
X047191D01*
Y082812D01*
X047111D01*
Y082772D01*
X047071D01*
Y082692D01*
X047111D01*
X047656Y08381D02*
Y08377D01*
X047736D01*
Y08381D01*
X047776D01*
Y08389D01*
X047736D01*
Y08393D01*
X047656D01*
Y08389D01*
X047616D01*
Y08381D01*
X047656D01*
X048201Y082692D02*
Y082652D01*
X048281D01*
Y082692D01*
X048321D01*
Y082772D01*
X048281D01*
Y082812D01*
X048201D01*
Y082772D01*
X048161D01*
Y082692D01*
X048201D01*
X048747Y08381D02*
Y08377D01*
X048827D01*
Y08381D01*
X048867D01*
Y08389D01*
X048827D01*
Y08393D01*
X048747D01*
Y08389D01*
X048707D01*
Y08381D01*
X048747D01*
X049292Y082692D02*
Y082652D01*
X049372D01*
Y082692D01*
X049412D01*
Y082772D01*
X049372D01*
Y082812D01*
X049292D01*
Y082772D01*
X049252D01*
Y082692D01*
X049292D01*
X049837Y08381D02*
Y08377D01*
X049917D01*
Y08381D01*
X049957D01*
Y08389D01*
X049917D01*
Y08393D01*
X049837D01*
Y08389D01*
X049797D01*
Y08381D01*
X049837D01*
X050382Y082692D02*
Y082652D01*
X050462D01*
Y082692D01*
X050502D01*
Y082772D01*
X050462D01*
Y082812D01*
X050382D01*
Y082772D01*
X050342D01*
Y082692D01*
X050382D01*
X050928Y08381D02*
Y08377D01*
X051008D01*
Y08381D01*
X051048D01*
Y08389D01*
X051008D01*
Y08393D01*
X050928D01*
Y08389D01*
X050888D01*
Y08381D01*
X050928D01*
X051473Y082692D02*
Y082652D01*
X051553D01*
Y082692D01*
X051593D01*
Y082772D01*
X051553D01*
Y082812D01*
X051473D01*
Y082772D01*
X051433D01*
Y082692D01*
X051473D01*
X052018Y08381D02*
Y08377D01*
X052098D01*
Y08381D01*
X052138D01*
Y08389D01*
X052098D01*
Y08393D01*
X052018D01*
Y08389D01*
X051978D01*
Y08381D01*
X052018D01*
X052564Y082692D02*
Y082652D01*
X052644D01*
Y082692D01*
X052684D01*
Y082772D01*
X052644D01*
Y082812D01*
X052564D01*
Y082772D01*
X052524D01*
Y082692D01*
X052564D01*
X053109Y08381D02*
Y08377D01*
X053189D01*
Y08381D01*
X053229D01*
Y08389D01*
X053189D01*
Y08393D01*
X053109D01*
Y08389D01*
X053069D01*
Y08381D01*
X053109D01*
X053654Y082692D02*
Y082652D01*
X053734D01*
Y082692D01*
X053774D01*
Y082772D01*
X053734D01*
Y082812D01*
X053654D01*
Y082772D01*
X053614D01*
Y082692D01*
X053654D01*
X054199Y08381D02*
Y08377D01*
X054279D01*
Y08381D01*
X054319D01*
Y08389D01*
X054279D01*
Y08393D01*
X054199D01*
Y08389D01*
X054159D01*
Y08381D01*
X054199D01*
X035896Y043796D02*
X035936Y043876D01*
X035896Y043956D01*
X035976Y043916D01*
X036056Y043956D01*
X036016Y043876D01*
X036056Y043796D01*
X035976Y043836D01*
X035896Y043796D01*
X03187Y04377D02*
X03191Y04385D01*
X03187Y04393D01*
X03195Y04389D01*
X03203Y04393D01*
X03199Y04385D01*
X03203Y04377D01*
X03195Y04381D01*
X03187Y04377D01*
X03387D02*
X03391Y04385D01*
X03387Y04393D01*
X03395Y04389D01*
X03403Y04393D01*
X03399Y04385D01*
X03403Y04377D01*
X03395Y04381D01*
X03387Y04377D01*
X04145Y04352D02*
X04137Y04368D01*
X04153D01*
X04145Y04352D01*
X04345D02*
X04337Y04368D01*
X04353D01*
X04345Y04352D01*
X04555D02*
X04547Y04368D01*
X04563D01*
X04555Y04352D01*
X04755D02*
X04747Y04368D01*
X04763D01*
X04755Y04352D01*
X0496D02*
X04952Y04368D01*
X04968D01*
X0496Y04352D01*
X0516D02*
X05152Y04368D01*
X05168D01*
X0516Y04352D01*
X05775D02*
X05767Y04368D01*
X05783D01*
X05775Y04352D01*
X05975D02*
X05967Y04368D01*
X05983D01*
X05975Y04352D01*
X065819D02*
X065739Y04368D01*
X065899D01*
X065819Y04352D01*
X067819D02*
X067739Y04368D01*
X067899D01*
X067819Y04352D01*
X0537D02*
X05362Y04368D01*
X05378D01*
X0537Y04352D01*
X0557D02*
X05562Y04368D01*
X05578D01*
X0557Y04352D01*
X061767D02*
X061687Y04368D01*
X061847D01*
X061767Y04352D01*
X063767D02*
X063687Y04368D01*
X063847D01*
X063767Y04352D01*
X03917Y05865D02*
X03925Y05873D01*
X03933Y05865D01*
X03925Y05857D01*
X03917Y05865D01*
Y06015D02*
X03925Y06023D01*
X03933Y06015D01*
X03925Y06007D01*
X03917Y06015D01*
X03922Y06135D02*
X0393Y06143D01*
X03938Y06135D01*
X0393Y06127D01*
X03922Y06135D01*
X02467Y05745D02*
X02475Y05753D01*
X02483Y05745D01*
X02475Y05737D01*
X02467Y05745D01*
X03902Y0641D02*
X0391Y06418D01*
X03918Y0641D01*
X0391Y06402D01*
X03902Y0641D01*
X03922Y0625D02*
X0393Y06258D01*
X03938Y0625D01*
X0393Y06242D01*
X03922Y0625D01*
X02877Y04935D02*
X02885Y04943D01*
X02893Y04935D01*
X02885Y04927D01*
X02877Y04935D01*
X023276Y080753D02*
X023356Y080833D01*
X023436Y080753D01*
X023356Y080673D01*
X023276Y080753D01*
X02112Y0809D02*
X0212Y08098D01*
X02128Y0809D01*
X0212Y08082D01*
X02112Y0809D01*
X03032Y08065D02*
X0304Y08073D01*
X03048Y08065D01*
X0304Y08057D01*
X03032Y08065D01*
X02792Y08075D02*
X028Y08083D01*
X02808Y08075D01*
X028Y08067D01*
X02792Y08075D01*
X02562Y0809D02*
X0257Y08098D01*
X02578Y0809D01*
X0257Y08082D01*
X02562Y0809D01*
X02427Y0782D02*
X02435Y07828D01*
X02443Y0782D01*
X02435Y07812D01*
X02427Y0782D01*
X02197Y07805D02*
X02205Y07813D01*
X02213Y07805D01*
X02205Y07797D01*
X02197Y07805D01*
X01967Y07805D02*
X01975Y07813D01*
X01983Y07805D01*
X01975Y07797D01*
X01967Y07805D01*
X02672Y0779D02*
X0268Y07798D01*
X02688Y0779D01*
X0268Y07782D01*
X02672Y0779D01*
X02892D02*
X029Y07798D01*
X02908Y0779D01*
X029Y07782D01*
X02892Y0779D01*
X01857Y08085D02*
X01865Y08093D01*
X01873Y08085D01*
X01865Y08077D01*
X01857Y08085D01*
X01737Y078D02*
X01745Y07808D01*
X01753Y078D01*
X01745Y07792D01*
X01737Y078D01*
X01742Y0761D02*
X0175Y07618D01*
X01758Y0761D01*
X0175Y07602D01*
X01742Y0761D01*
X01972Y07605D02*
X0198Y07613D01*
X01988Y07605D01*
X0198Y07597D01*
X01972Y07605D01*
X02192Y0761D02*
X022Y07618D01*
X02208Y0761D01*
X022Y07602D01*
X02192Y0761D01*
X02427Y07615D02*
X02435Y07623D01*
X02443Y07615D01*
X02435Y07607D01*
X02427Y07615D01*
X02667Y076D02*
X02675Y07608D01*
X02683Y076D01*
X02675Y07592D01*
X02667Y076D01*
X02892Y07615D02*
X029Y07623D01*
X02908Y07615D01*
X029Y07607D01*
X02892Y07615D01*
X02207Y07295D02*
X02215Y07303D01*
X02223Y07295D01*
X02215Y07287D01*
X02207Y07295D01*
X018626Y072371D02*
X018706Y072451D01*
X018786Y072371D01*
X018706Y072291D01*
X018626Y072371D01*
X059517Y07549D02*
X059597Y07557D01*
X059677Y07549D01*
X059597Y07541D01*
X059517Y07549D01*
X06032Y0734D02*
X0604Y07348D01*
X06048Y0734D01*
X0604Y07332D01*
X06032Y0734D01*
X064955Y06742D02*
X065035Y0675D01*
X065115Y06742D01*
X065035Y06734D01*
X064955Y06742D01*
X06672Y06935D02*
X0668Y06943D01*
X06688Y06935D01*
X0668Y06927D01*
X06672Y06935D01*
X04712Y07175D02*
X0472Y07183D01*
X04728Y07175D01*
X0472Y07167D01*
X04712Y07175D01*
Y0685D02*
X0472Y06858D01*
X04728Y0685D01*
X0472Y06842D01*
X04712Y0685D01*
X03137Y07835D02*
X03145Y07843D01*
X03153Y07835D01*
X03145Y07827D01*
X03137Y07835D01*
X03132Y0789D02*
X0314Y07898D01*
X03148Y0789D01*
X0314Y07882D01*
X03132Y0789D01*
X02317Y06175D02*
X02325Y06183D01*
X02333Y06175D01*
X02325Y06167D01*
X02317Y06175D01*
X02207Y06235D02*
X02215Y06243D01*
X02223Y06235D01*
X02215Y06227D01*
X02207Y06235D01*
X04892Y0519D02*
X049Y05198D01*
X04908Y0519D01*
X049Y05182D01*
X04892Y0519D01*
X02307Y072395D02*
X02315Y072475D01*
X02323Y072395D01*
X02315Y072315D01*
X02307Y072395D01*
X02077Y07235D02*
X02085Y07243D01*
X02093Y07235D01*
X02085Y07227D01*
X02077Y07235D01*
X025443Y07255D02*
X025523Y07263D01*
X025603Y07255D01*
X025523Y07247D01*
X025443Y07255D01*
X02782Y0725D02*
X0279Y07258D01*
X02798Y0725D01*
X0279Y07242D01*
X02782Y0725D01*
X06527Y0786D02*
X06535Y07868D01*
X06543Y0786D01*
X06535Y07852D01*
X06527Y0786D01*
X06662Y07865D02*
X0667Y07873D01*
X06678Y07865D01*
X0667Y07857D01*
X06662Y07865D01*
X06782Y0786D02*
X0679Y07868D01*
X06798Y0786D01*
X0679Y07852D01*
X06782Y0786D01*
X06912D02*
X0692Y07868D01*
X06928Y0786D01*
X0692Y07852D01*
X06912Y0786D01*
X07032Y07785D02*
X0704Y07793D01*
X07048Y07785D01*
X0704Y07777D01*
X07032Y07785D01*
Y07865D02*
X0704Y07873D01*
X07048Y07865D01*
X0704Y07857D01*
X07032Y07865D01*
X06407Y0786D02*
X06415Y07868D01*
X06423Y0786D01*
X06415Y07852D01*
X06407Y0786D01*
X06337Y07795D02*
X06345Y07803D01*
X06353Y07795D01*
X06345Y07787D01*
X06337Y07795D01*
X06597Y0779D02*
X06605Y07798D01*
X06613Y0779D01*
X06605Y07782D01*
X06597Y0779D01*
X06472Y07795D02*
X0648Y07803D01*
X06488Y07795D01*
X0648Y07787D01*
X06472Y07795D01*
X06727D02*
X06735Y07803D01*
X06743Y07795D01*
X06735Y07787D01*
X06727Y07795D01*
X06852Y077956D02*
X0686Y078036D01*
X06868Y077956D01*
X0686Y077876D01*
X06852Y077956D01*
X061047Y051277D02*
X061127Y051357D01*
X061207Y051277D01*
X061127Y051197D01*
X061047Y051277D01*
X064898Y051078D02*
X064978Y051158D01*
X065058Y051078D01*
X064978Y050998D01*
X064898Y051078D01*
X05702Y0516D02*
X0571Y05168D01*
X05718Y0516D01*
X0571Y05152D01*
X05702Y0516D01*
X060489Y065339D02*
X060569Y065419D01*
X060649Y065339D01*
X060569Y065259D01*
X060489Y065339D01*
X04642Y0718D02*
X0465Y07188D01*
X04658Y0718D01*
X0465Y07172D01*
X04642Y0718D01*
X04787Y0688D02*
X04795Y06888D01*
X04803Y0688D01*
X04795Y06872D01*
X04787Y0688D01*
X05642Y07415D02*
X0565Y07423D01*
X05658Y07415D01*
X0565Y07407D01*
X05642Y07415D01*
X05582Y06315D02*
X0559Y06323D01*
X05598Y06315D01*
X0559Y06307D01*
X05582Y06315D01*
X05642Y0663D02*
X0565Y06638D01*
X05658Y0663D01*
X0565Y06622D01*
X05642Y0663D01*
X04992Y0751D02*
X05Y07518D01*
X05008Y0751D01*
X05Y07502D01*
X04992Y0751D01*
X05017Y07295D02*
X05025Y07303D01*
X05033Y07295D01*
X05025Y07287D01*
X05017Y07295D01*
X05622Y055D02*
X0563Y05508D01*
X05638Y055D01*
X0563Y05492D01*
X05622Y055D01*
Y05435D02*
X0563Y05443D01*
X05638Y05435D01*
X0563Y05427D01*
X05622Y05435D01*
X05617Y0537D02*
X05625Y05378D01*
X05633Y0537D01*
X05625Y05362D01*
X05617Y0537D01*
X04937Y05145D02*
X04945Y05153D01*
X04953Y05145D01*
X04945Y05137D01*
X04937Y05145D01*
X04897Y0751D02*
X04905Y07518D01*
X04913Y0751D01*
X04905Y07502D01*
X04897Y0751D01*
X03792Y0752D02*
X038Y07528D01*
X03808Y0752D01*
X038Y07512D01*
X03792Y0752D01*
X02102Y0608D02*
X0211Y06088D01*
X02118Y0608D01*
X0211Y06072D01*
X02102Y0608D01*
X04192Y07745D02*
X042Y07753D01*
X04208Y07745D01*
X042Y07737D01*
X04192Y07745D01*
X04947Y0627D02*
X04955Y06278D01*
X04963Y0627D01*
X04955Y06262D01*
X04947Y0627D01*
X03752Y05375D02*
X0376Y05383D01*
X03768Y05375D01*
X0376Y05367D01*
X03752Y05375D01*
X04027Y0563D02*
X04035Y05638D01*
X04043Y0563D01*
X04035Y05622D01*
X04027Y0563D01*
X04097Y0752D02*
X04105Y07528D01*
X04113Y0752D01*
X04105Y07512D01*
X04097Y0752D01*
X04357Y07705D02*
X04365Y07713D01*
X04373Y07705D01*
X04365Y07697D01*
X04357Y07705D01*
X01917Y06985D02*
X01925Y06993D01*
X01933Y06985D01*
X01925Y06977D01*
X01917Y06985D01*
X05097Y0751D02*
X05105Y07518D01*
X05113Y0751D01*
X05105Y07502D01*
X05097Y0751D01*
X05087Y07705D02*
X05095Y07713D01*
X05103Y07705D01*
X05095Y07697D01*
X05087Y07705D01*
X02577Y06915D02*
X02585Y06923D01*
X02593Y06915D01*
X02585Y06907D01*
X02577Y06915D01*
X038324Y053749D02*
X038404Y053829D01*
X038484Y053749D01*
X038404Y053669D01*
X038324Y053749D01*
X04492Y0752D02*
X045Y07528D01*
X04508Y0752D01*
X045Y07512D01*
X04492Y0752D01*
X04697Y0668D02*
X04705Y06688D01*
X04713Y0668D01*
X04705Y06672D01*
X04697Y0668D01*
X04897Y07295D02*
X04905Y07303D01*
X04913Y07295D01*
X04905Y07287D01*
X04897Y07295D01*
X03977Y0657D02*
X03985Y06578D01*
X03993Y0657D01*
X03985Y06562D01*
X03977Y0657D01*
X03897Y0752D02*
X03905Y07528D01*
X03913Y0752D01*
X03905Y07512D01*
X03897Y0752D01*
X04192Y0695D02*
X042Y06958D01*
X04208Y0695D01*
X042Y06942D01*
X04192Y0695D01*
X05582Y0727D02*
X0559Y07278D01*
X05598Y0727D01*
X0559Y07262D01*
X05582Y0727D01*
X018095Y067175D02*
X018175Y067255D01*
X018255Y067175D01*
X018175Y067095D01*
X018095Y067175D01*
X04302Y05935D02*
X0431Y05943D01*
X04318Y05935D01*
X0431Y05927D01*
X04302Y05935D01*
X04432Y067D02*
X0444Y06708D01*
X04448Y067D01*
X0444Y06692D01*
X04432Y067D01*
X01737Y07035D02*
X01745Y07043D01*
X01753Y07035D01*
X01745Y07027D01*
X01737Y07035D01*
X04792Y0751D02*
X048Y07518D01*
X04808Y0751D01*
X048Y07502D01*
X04792Y0751D01*
X04152Y07665D02*
X0416Y07673D01*
X04168Y07665D01*
X0416Y07657D01*
X04152Y07665D01*
X05812Y06235D02*
X0582Y06243D01*
X05828Y06235D01*
X0582Y06227D01*
X05812Y06235D01*
X04142Y069853D02*
X0415Y069933D01*
X04158Y069853D01*
X0415Y069773D01*
X04142Y069853D01*
X02357Y0592D02*
X02365Y05928D01*
X02373Y0592D01*
X02365Y05912D01*
X02357Y0592D01*
X025061Y059866D02*
X025141Y059946D01*
X025221Y059866D01*
X025141Y059786D01*
X025061Y059866D01*
X05907Y06135D02*
X05915Y06143D01*
X05923Y06135D01*
X05915Y06127D01*
X05907Y06135D01*
X04227Y05825D02*
X04235Y05833D01*
X04243Y05825D01*
X04235Y05817D01*
X04227Y05825D01*
X04757Y05775D02*
X04765Y05783D01*
X04773Y05775D01*
X04765Y05767D01*
X04757Y05775D01*
X04637Y0677D02*
X04645Y06778D01*
X04653Y0677D01*
X04645Y06762D01*
X04637Y0677D01*
X016382Y068187D02*
X016463Y068267D01*
X016543Y068187D01*
X016463Y068108D01*
X016382Y068187D01*
X04547Y06815D02*
X04555Y06823D01*
X04563Y06815D01*
X04555Y06807D01*
X04547Y06815D01*
X04802Y077403D02*
X0481Y077483D01*
X04818Y077403D01*
X0481Y077323D01*
X04802Y077403D01*
X04397Y07295D02*
X04405Y07303D01*
X04413Y07295D01*
X04405Y07287D01*
X04397Y07295D01*
X05707Y07465D02*
X05715Y07473D01*
X05723Y07465D01*
X05715Y07457D01*
X05707Y07465D01*
X05442Y0638D02*
X0545Y06388D01*
X05458Y0638D01*
X0545Y06372D01*
X05442Y0638D01*
X03087Y07425D02*
X03095Y07433D01*
X03103Y07425D01*
X03095Y07417D01*
X03087Y07425D01*
X03622Y07475D02*
X0363Y07483D01*
X03638Y07475D01*
X0363Y07467D01*
X03622Y07475D01*
X04372Y0589D02*
X0438Y05898D01*
X04388Y0589D01*
X0438Y05882D01*
X04372Y0589D01*
X05767Y07025D02*
X05775Y07033D01*
X05783Y07025D01*
X05775Y07017D01*
X05767Y07025D01*
X03357Y07775D02*
X03365Y07783D01*
X03373Y07775D01*
X03365Y07767D01*
X03357Y07775D01*
X05852Y06175D02*
X0586Y06183D01*
X05868Y06175D01*
X0586Y06167D01*
X05852Y06175D01*
X050971Y053749D02*
X051051Y053829D01*
X051131Y053749D01*
X051051Y053669D01*
X050971Y053749D01*
X04492Y0702D02*
X045Y07028D01*
X04508Y0702D01*
X045Y07012D01*
X04492Y0702D01*
X07282Y0497D02*
X0729Y04978D01*
X07298Y0497D01*
X0729Y04962D01*
X07282Y0497D01*
X07337Y0501D02*
X07345Y05018D01*
X07353Y0501D01*
X07345Y05002D01*
X07337Y0501D01*
X07177Y05015D02*
X07185Y05023D01*
X07193Y05015D01*
X07185Y05007D01*
X07177Y05015D01*
X03692Y0533D02*
X037Y05338D01*
X03708Y0533D01*
X037Y05322D01*
X03692Y0533D01*
X03622Y05335D02*
X0363Y05343D01*
X03638Y05335D01*
X0363Y05327D01*
X03622Y05335D01*
X02132Y057D02*
X0214Y05708D01*
X02148Y057D01*
X0214Y05692D01*
X02132Y057D01*
X02077Y05785D02*
X02085Y05793D01*
X02093Y05785D01*
X02085Y05777D01*
X02077Y05785D01*
X01847Y06035D02*
X01855Y06043D01*
X01863Y06035D01*
X01855Y06027D01*
X01847Y06035D01*
X02952Y0545D02*
X0296Y05458D01*
X02968Y0545D01*
X0296Y05442D01*
X02952Y0545D01*
X02912Y055D02*
X0292Y05508D01*
X02928Y055D01*
X0292Y05492D01*
X02912Y055D01*
X02987D02*
X02995Y05508D01*
X03003Y055D01*
X02995Y05492D01*
X02987Y055D01*
X06902Y0617D02*
X0691Y06178D01*
X06918Y0617D01*
X0691Y06162D01*
X06902Y0617D01*
X06897Y06265D02*
X06905Y06273D01*
X06913Y06265D01*
X06905Y06257D01*
X06897Y06265D01*
X06837Y0621D02*
X06845Y06218D01*
X06853Y0621D01*
X06845Y06202D01*
X06837Y0621D01*
X06767Y06205D02*
X06775Y06213D01*
X06783Y06205D01*
X06775Y06197D01*
X06767Y06205D01*
X06692Y0621D02*
X067Y06218D01*
X06708Y0621D01*
X067Y06202D01*
X06692Y0621D01*
X06647Y0639D02*
X06655Y06398D01*
X06663Y0639D01*
X06655Y06382D01*
X06647Y0639D01*
X06652Y0647D02*
X0666Y06478D01*
X06668Y0647D01*
X0666Y06462D01*
X06652Y0647D01*
X06507Y06385D02*
X06515Y06393D01*
X06523Y06385D01*
X06515Y06377D01*
X06507Y06385D01*
X06512Y0648D02*
X0652Y06488D01*
X06528Y0648D01*
X0652Y06472D01*
X06512Y0648D01*
X06417Y0639D02*
X06425Y06398D01*
X06433Y0639D01*
X06425Y06382D01*
X06417Y0639D01*
Y06485D02*
X06425Y06493D01*
X06433Y06485D01*
X06425Y06477D01*
X06417Y06485D01*
X06737Y06395D02*
X06745Y06403D01*
X06753Y06395D01*
X06745Y06387D01*
X06737Y06395D01*
Y06485D02*
X06745Y06493D01*
X06753Y06485D01*
X06745Y06477D01*
X06737Y06485D01*
X066088Y061909D02*
X066168Y061989D01*
X066248Y061909D01*
X066168Y061829D01*
X066088Y061909D01*
X06592Y0642D02*
X066Y06428D01*
X06608Y0642D01*
X066Y06412D01*
X06592Y0642D01*
X05102Y05425D02*
X0511Y05433D01*
X05118Y05425D01*
X0511Y05417D01*
X05102Y05425D01*
Y05475D02*
X0511Y05483D01*
X05118Y05475D01*
X0511Y05467D01*
X05102Y05475D01*
X02202Y0694D02*
X0221Y06948D01*
X02218Y0694D01*
X0221Y06932D01*
X02202Y0694D01*
X02577Y07185D02*
X02585Y07193D01*
X02593Y07185D01*
X02585Y07177D01*
X02577Y07185D01*
X02812Y05D02*
X0282Y05008D01*
X02828Y05D01*
X0282Y04992D01*
X02812Y05D01*
Y04875D02*
X0282Y04883D01*
X02828Y04875D01*
X0282Y04867D01*
X02812Y04875D01*
X04387Y066003D02*
X04395Y066083D01*
X04403Y066003D01*
X04395Y065923D01*
X04387Y066003D01*
X04562Y05135D02*
X0457Y05143D01*
X04578Y05135D01*
X0457Y05127D01*
X04562Y05135D01*
X01907Y05745D02*
X01915Y05753D01*
X01923Y05745D01*
X01915Y05737D01*
X01907Y05745D01*
X03012Y072518D02*
X0302Y072598D01*
X03028Y072518D01*
X0302Y072438D01*
X03012Y072518D01*
X02337Y067197D02*
X02345Y067277D01*
X02353Y067197D01*
X02345Y067117D01*
X02337Y067197D01*
X04152Y05135D02*
X0416Y05143D01*
X04168Y05135D01*
X0416Y05127D01*
X04152Y05135D01*
X01542Y06085D02*
X0155Y06093D01*
X01558Y06085D01*
X0155Y06077D01*
X01542Y06085D01*
X02002Y06825D02*
X0201Y06833D01*
X02018Y06825D01*
X0201Y06817D01*
X02002Y06825D01*
X02102Y0677D02*
X0211Y06778D01*
X02118Y0677D01*
X0211Y06762D01*
X02102Y0677D01*
X01862Y06735D02*
X0187Y06743D01*
X01878Y06735D01*
X0187Y06727D01*
X01862Y06735D01*
X01687Y06D02*
X01695Y06008D01*
X01703Y06D01*
X01695Y05992D01*
X01687Y06D01*
X01642Y05795D02*
X0165Y05803D01*
X01658Y05795D01*
X0165Y05787D01*
X01642Y05795D01*
X076342Y081075D02*
Y081235D01*
X076502D01*
Y081075D01*
X076342D01*
X076382Y081115D02*
Y081195D01*
X076462D01*
Y081115D01*
X076382D01*
X06577Y0488D02*
X06585Y04888D01*
X06593Y0488D01*
X06585Y04872D01*
X06577Y0488D01*
X06607Y04925D02*
X06615Y04933D01*
X06623Y04925D01*
X06615Y04917D01*
X06607Y04925D01*
X06537Y0493D02*
X06545Y04938D01*
X06553Y0493D01*
X06545Y04922D01*
X06537Y0493D01*
X06607Y04985D02*
X06615Y04993D01*
X06623Y04985D01*
X06615Y04977D01*
X06607Y04985D01*
X06527D02*
X06535Y04993D01*
X06543Y04985D01*
X06535Y04977D01*
X06527Y04985D01*
X04557Y04885D02*
X04565Y04893D01*
X04573Y04885D01*
X04565Y04877D01*
X04557Y04885D01*
X04592Y0493D02*
X046Y04938D01*
X04608Y0493D01*
X046Y04922D01*
X04592Y0493D01*
X04527Y04935D02*
X04535Y04943D01*
X04543Y04935D01*
X04535Y04927D01*
X04527Y04935D01*
X04592Y05D02*
X046Y05008D01*
X04608Y05D01*
X046Y04992D01*
X04592Y05D01*
X04522D02*
X0453Y05008D01*
X04538Y05D01*
X0453Y04992D01*
X04522Y05D01*
X04142Y04885D02*
X0415Y04893D01*
X04158Y04885D01*
X0415Y04877D01*
X04142Y04885D01*
X04177Y04935D02*
X04185Y04943D01*
X04193Y04935D01*
X04185Y04927D01*
X04177Y04935D01*
X04102Y0494D02*
X0411Y04948D01*
X04118Y0494D01*
X0411Y04932D01*
X04102Y0494D01*
X04172Y05D02*
X0418Y05008D01*
X04188Y05D01*
X0418Y04992D01*
X04172Y05D01*
X04097D02*
X04105Y05008D01*
X04113Y05D01*
X04105Y04992D01*
X04097Y05D01*
X04962Y0488D02*
X0497Y04888D01*
X04978Y0488D01*
X0497Y04872D01*
X04962Y0488D01*
X05012Y04925D02*
X0502Y04933D01*
X05028Y04925D01*
X0502Y04917D01*
X05012Y04925D01*
X04942Y0493D02*
X0495Y04938D01*
X04958Y0493D01*
X0495Y04922D01*
X04942Y0493D01*
X05012Y0499D02*
X0502Y04998D01*
X05028Y0499D01*
X0502Y04982D01*
X05012Y0499D01*
X04942D02*
X0495Y04998D01*
X04958Y0499D01*
X0495Y04982D01*
X04942Y0499D01*
X05382Y04875D02*
X0539Y04883D01*
X05398Y04875D01*
X0539Y04867D01*
X05382Y04875D01*
X05417Y04925D02*
X05425Y04933D01*
X05433Y04925D01*
X05425Y04917D01*
X05417Y04925D01*
X05347Y0493D02*
X05355Y04938D01*
X05363Y0493D01*
X05355Y04922D01*
X05347Y0493D01*
X05407Y0499D02*
X05415Y04998D01*
X05423Y0499D01*
X05415Y04982D01*
X05407Y0499D01*
X05347D02*
X05355Y04998D01*
X05363Y0499D01*
X05355Y04982D01*
X05347Y0499D01*
X05752Y04875D02*
X0576Y04883D01*
X05768Y04875D01*
X0576Y04867D01*
X05752Y04875D01*
X05717Y0493D02*
X05725Y04938D01*
X05733Y0493D01*
X05725Y04922D01*
X05717Y0493D01*
X05787Y04925D02*
X05795Y04933D01*
X05803Y04925D01*
X05795Y04917D01*
X05787Y04925D01*
Y0499D02*
X05795Y04998D01*
X05803Y0499D01*
X05795Y04982D01*
X05787Y0499D01*
X05717D02*
X05725Y04998D01*
X05733Y0499D01*
X05725Y04982D01*
X05717Y0499D01*
X06167Y04885D02*
X06175Y04893D01*
X06183Y04885D01*
X06175Y04877D01*
X06167Y04885D01*
X06137Y04945D02*
X06145Y04953D01*
X06153Y04945D01*
X06145Y04937D01*
X06137Y04945D01*
X06142Y05D02*
X0615Y05008D01*
X06158Y05D01*
X0615Y04992D01*
X06142Y05D01*
X06207Y04925D02*
X06215Y04933D01*
X06223Y04925D01*
X06215Y04917D01*
X06207Y04925D01*
Y05D02*
X06215Y05008D01*
X06223Y05D01*
X06215Y04992D01*
X06207Y05D01*
X012566Y081125D02*
Y081285D01*
X012726D01*
Y081125D01*
X012566D01*
X012606Y081165D02*
Y081245D01*
X012686D01*
Y081165D01*
X012606D01*
X076342Y045225D02*
Y045385D01*
X076502D01*
Y045225D01*
X076342D01*
X076382Y045265D02*
Y045345D01*
X076462D01*
Y045265D01*
X076382D01*
X012566Y045225D02*
Y045385D01*
X012726D01*
Y045225D01*
X012566D01*
X012606Y045265D02*
Y045345D01*
X012686D01*
Y045265D01*
X012606D01*
D117*
X02278Y044606D02*
G03*
X02278Y044606I-00008J0D01*
G01*
Y045606D02*
G03*
X02278Y045606I-00008J0D01*
G01*
Y046606D02*
G03*
X02278Y046606I-00008J0D01*
G01*
Y047606D02*
G03*
X02278Y047606I-00008J0D01*
G01*
Y048606D02*
G03*
X02278Y048606I-00008J0D01*
G01*
Y049606D02*
G03*
X02278Y049606I-00008J0D01*
G01*
Y050606D02*
G03*
X02278Y050606I-00008J0D01*
G01*
Y051606D02*
G03*
X02278Y051606I-00008J0D01*
G01*
Y052606D02*
G03*
X02278Y052606I-00008J0D01*
G01*
Y053606D02*
G03*
X02278Y053606I-00008J0D01*
G01*
Y054606D02*
G03*
X02278Y054606I-00008J0D01*
G01*
Y055606D02*
G03*
X02278Y055606I-00008J0D01*
G01*
X01778Y044606D02*
G03*
X01778Y044606I-00008J0D01*
G01*
X01678Y0446D02*
G03*
X01678Y0446I-00008J0D01*
G01*
Y0456D02*
G03*
X01678Y0456I-00008J0D01*
G01*
Y0466D02*
G03*
X01678Y0466I-00008J0D01*
G01*
Y0476D02*
G03*
X01678Y0476I-00008J0D01*
G01*
Y0486D02*
G03*
X01678Y0486I-00008J0D01*
G01*
Y0496D02*
G03*
X01678Y0496I-00008J0D01*
G01*
Y0506D02*
G03*
X01678Y0506I-00008J0D01*
G01*
Y0516D02*
G03*
X01678Y0516I-00008J0D01*
G01*
Y0526D02*
G03*
X01678Y0526I-00008J0D01*
G01*
Y0536D02*
G03*
X01678Y0536I-00008J0D01*
G01*
Y0546D02*
G03*
X01678Y0546I-00008J0D01*
G01*
Y0556D02*
G03*
X01678Y0556I-00008J0D01*
G01*
X03358Y0483D02*
G03*
X03358Y0483I-00008J0D01*
G01*
Y0473D02*
G03*
X03358Y0473I-00008J0D01*
G01*
Y0463D02*
G03*
X03358Y0463I-00008J0D01*
G01*
X03258Y0483D02*
G03*
X03258Y0483I-00008J0D01*
G01*
Y0473D02*
G03*
X03258Y0473I-00008J0D01*
G01*
Y0463D02*
G03*
X03258Y0463I-00008J0D01*
G01*
X07263Y05025D02*
G03*
X07263Y05025I-00008J0D01*
G01*
D118*
X07259D02*
G03*
X07259Y05025I-00004J0D01*
G01*
M02*
