G04*
G04 #@! TF.GenerationSoftware,Altium Limited,Altium Designer,20.1.12 (249)*
G04*
G04 Layer_Color=8388736*
%FSTAX24Y24*%
%MOIN*%
G70*
G04*
G04 #@! TF.SameCoordinates,65647CF5-6095-42B6-9084-E7F1C421F8D5*
G04*
G04*
G04 #@! TF.FilePolarity,Negative*
G04*
G01*
G75*
%ADD17C,0.0100*%
G04:AMPARAMS|DCode=32|XSize=39.4mil|YSize=133.9mil|CornerRadius=9.8mil|HoleSize=0mil|Usage=FLASHONLY|Rotation=0.000|XOffset=0mil|YOffset=0mil|HoleType=Round|Shape=RoundedRectangle|*
%AMROUNDEDRECTD32*
21,1,0.0394,0.1142,0,0,0.0*
21,1,0.0197,0.1339,0,0,0.0*
1,1,0.0197,0.0098,-0.0571*
1,1,0.0197,-0.0098,-0.0571*
1,1,0.0197,-0.0098,0.0571*
1,1,0.0197,0.0098,0.0571*
%
%ADD32ROUNDEDRECTD32*%
%ADD44C,0.0200*%
%ADD45R,0.4380X0.2820*%
G04:AMPARAMS|DCode=46|XSize=98mil|YSize=71mil|CornerRadius=19.7mil|HoleSize=0mil|Usage=FLASHONLY|Rotation=270.000|XOffset=0mil|YOffset=0mil|HoleType=Round|Shape=RoundedRectangle|*
%AMROUNDEDRECTD46*
21,1,0.0980,0.0315,0,0,270.0*
21,1,0.0585,0.0710,0,0,270.0*
1,1,0.0395,-0.0157,-0.0293*
1,1,0.0395,-0.0157,0.0293*
1,1,0.0395,0.0157,0.0293*
1,1,0.0395,0.0157,-0.0293*
%
%ADD46ROUNDEDRECTD46*%
%ADD47R,0.0710X0.0980*%
%ADD48R,0.0513X0.0395*%
%ADD49R,0.0630X0.0580*%
%ADD50R,0.0513X0.0552*%
%ADD51R,0.0395X0.0513*%
G04:AMPARAMS|DCode=52|XSize=47.4mil|YSize=86.7mil|CornerRadius=8.9mil|HoleSize=0mil|Usage=FLASHONLY|Rotation=180.000|XOffset=0mil|YOffset=0mil|HoleType=Round|Shape=RoundedRectangle|*
%AMROUNDEDRECTD52*
21,1,0.0474,0.0689,0,0,180.0*
21,1,0.0295,0.0867,0,0,180.0*
1,1,0.0178,-0.0148,0.0344*
1,1,0.0178,0.0148,0.0344*
1,1,0.0178,0.0148,-0.0344*
1,1,0.0178,-0.0148,-0.0344*
%
%ADD52ROUNDEDRECTD52*%
G04:AMPARAMS|DCode=53|XSize=224.5mil|YSize=232.4mil|CornerRadius=31.1mil|HoleSize=0mil|Usage=FLASHONLY|Rotation=180.000|XOffset=0mil|YOffset=0mil|HoleType=Round|Shape=RoundedRectangle|*
%AMROUNDEDRECTD53*
21,1,0.2245,0.1703,0,0,180.0*
21,1,0.1624,0.2324,0,0,180.0*
1,1,0.0621,-0.0812,0.0851*
1,1,0.0621,0.0812,0.0851*
1,1,0.0621,0.0812,-0.0851*
1,1,0.0621,-0.0812,-0.0851*
%
%ADD53ROUNDEDRECTD53*%
G04:AMPARAMS|DCode=54|XSize=47.4mil|YSize=141.9mil|CornerRadius=13.8mil|HoleSize=0mil|Usage=FLASHONLY|Rotation=0.000|XOffset=0mil|YOffset=0mil|HoleType=Round|Shape=RoundedRectangle|*
%AMROUNDEDRECTD54*
21,1,0.0474,0.1142,0,0,0.0*
21,1,0.0197,0.1419,0,0,0.0*
1,1,0.0277,0.0098,-0.0571*
1,1,0.0277,-0.0098,-0.0571*
1,1,0.0277,-0.0098,0.0571*
1,1,0.0277,0.0098,0.0571*
%
%ADD54ROUNDEDRECTD54*%
%ADD55R,0.1379X0.1025*%
%ADD56R,0.0474X0.1025*%
%ADD57R,0.1458X0.0710*%
%ADD58R,0.0710X0.1458*%
%ADD59R,0.0552X0.0513*%
%ADD60R,0.0580X0.0630*%
%ADD61R,0.1478X0.0552*%
%ADD62R,0.1497X0.0552*%
%ADD63R,0.0552X0.1497*%
%ADD64R,0.1596X0.1064*%
%ADD65R,0.0592X0.0671*%
%ADD66O,0.0867X0.0671*%
%ADD67R,0.0867X0.0671*%
%ADD68C,0.0789*%
%ADD69C,0.1580*%
%ADD70R,0.1580X0.1580*%
%ADD71C,0.0710*%
%ADD72R,0.0710X0.0710*%
%ADD73C,0.0780*%
%ADD74R,0.0780X0.0780*%
%ADD75C,0.1380*%
%ADD76R,0.0745X0.0745*%
%ADD77C,0.0745*%
%ADD78C,0.1970*%
%ADD79O,0.1180X0.1280*%
%ADD80C,0.0474*%
%ADD81C,0.0580*%
D17*
X070165Y057951D02*
G03*
X070071Y057827I000036J-000124D01*
G01*
X070165Y057951D02*
G03*
X070071Y057827I000036J-000124D01*
G01*
X070784Y058123D02*
G03*
X070749Y058118I0J-000129D01*
G01*
X070784Y058123D02*
G03*
X070749Y058118I0J-000129D01*
G01*
X074497Y057827D02*
G03*
X074403Y057951I-000129J0D01*
G01*
X074497Y057827D02*
G03*
X074403Y057951I-000129J0D01*
G01*
X07382Y058118D02*
G03*
X073784Y058123I-000035J-000124D01*
G01*
X07382Y058118D02*
G03*
X073784Y058123I-000035J-000124D01*
G01*
X074469Y0579D02*
X074519Y05785D01*
Y0551D02*
Y05785D01*
X074269Y0551D02*
X074519D01*
X070073D02*
X074269D01*
X070071Y055102D02*
X070073Y0551D01*
X070071Y055102D02*
Y057327D01*
Y057827D01*
X070165Y057951D02*
X070748Y058118D01*
X074497Y057327D02*
Y057827D01*
X070784Y058123D02*
X073784D01*
X07382Y058118D02*
X074403Y057951D01*
D32*
X072269Y05225D02*
D03*
D44*
X070467Y057977D02*
X074107D01*
D45*
X072287Y05656D02*
D03*
D46*
X0184Y07795D02*
D03*
X023Y078D02*
D03*
X02075Y07795D02*
D03*
X02995D02*
D03*
X02535Y078D02*
D03*
X02775D02*
D03*
D47*
X0174Y07795D02*
D03*
Y07495D02*
D03*
X0184D02*
D03*
X022Y078D02*
D03*
Y075D02*
D03*
X023D02*
D03*
X01975Y07795D02*
D03*
Y07495D02*
D03*
X02075D02*
D03*
X02895Y07795D02*
D03*
Y07495D02*
D03*
X02995D02*
D03*
X02435Y078D02*
D03*
Y075D02*
D03*
X02535D02*
D03*
X02675Y078D02*
D03*
Y075D02*
D03*
X02775D02*
D03*
D48*
X022Y08D02*
D03*
Y0792D02*
D03*
X0243Y08005D02*
D03*
Y07925D02*
D03*
X02675Y07995D02*
D03*
Y07915D02*
D03*
X02895Y08D02*
D03*
Y0792D02*
D03*
X0197Y08D02*
D03*
Y0792D02*
D03*
X0174Y08005D02*
D03*
Y07925D02*
D03*
X0187Y0728D02*
D03*
Y0736D02*
D03*
X017948Y072809D02*
D03*
Y073609D02*
D03*
X04245Y07995D02*
D03*
Y08075D02*
D03*
X04685Y0799D02*
D03*
Y0807D02*
D03*
X03805Y07993D02*
D03*
Y08073D02*
D03*
X04975Y0799D02*
D03*
Y0807D02*
D03*
X0543Y0799D02*
D03*
Y0807D02*
D03*
X03515Y0799D02*
D03*
Y0807D02*
D03*
X05275Y0799D02*
D03*
Y0807D02*
D03*
X02085Y07285D02*
D03*
Y07365D02*
D03*
X0231Y0729D02*
D03*
Y0737D02*
D03*
X0255Y07295D02*
D03*
Y07375D02*
D03*
X02785Y07295D02*
D03*
Y07375D02*
D03*
X0302Y07295D02*
D03*
Y07375D02*
D03*
X02015Y07285D02*
D03*
Y07365D02*
D03*
X0224Y0729D02*
D03*
Y0737D02*
D03*
X0248Y0729D02*
D03*
Y0737D02*
D03*
X0272Y07295D02*
D03*
Y07375D02*
D03*
X0295Y07295D02*
D03*
Y07375D02*
D03*
X0692Y0791D02*
D03*
Y0799D02*
D03*
X0679Y07915D02*
D03*
Y07995D02*
D03*
X0667Y07915D02*
D03*
Y07995D02*
D03*
X06535Y07915D02*
D03*
Y07995D02*
D03*
X064095Y07915D02*
D03*
Y07995D02*
D03*
X04395Y07993D02*
D03*
Y08073D02*
D03*
X0483Y0799D02*
D03*
Y0807D02*
D03*
X0395Y07993D02*
D03*
Y08073D02*
D03*
X0337Y07993D02*
D03*
Y08073D02*
D03*
X05125Y0799D02*
D03*
Y0807D02*
D03*
X03665Y0799D02*
D03*
Y0807D02*
D03*
X0454Y0799D02*
D03*
Y0807D02*
D03*
X04095Y08D02*
D03*
Y0808D02*
D03*
D49*
X02995Y0791D02*
D03*
Y08D02*
D03*
X0277Y0791D02*
D03*
Y08D02*
D03*
X025309Y07917D02*
D03*
Y08007D02*
D03*
X0229Y07917D02*
D03*
Y08007D02*
D03*
X0207Y07915D02*
D03*
Y08005D02*
D03*
X018398Y0791D02*
D03*
Y08D02*
D03*
X0505Y0807D02*
D03*
Y0798D02*
D03*
X05355Y08065D02*
D03*
Y07975D02*
D03*
X052Y0807D02*
D03*
Y0798D02*
D03*
X04615Y0807D02*
D03*
Y0798D02*
D03*
X04905Y0807D02*
D03*
Y0798D02*
D03*
X0476Y0807D02*
D03*
Y0798D02*
D03*
X0417Y08075D02*
D03*
Y07985D02*
D03*
X0447Y0807D02*
D03*
Y0798D02*
D03*
X04315Y08075D02*
D03*
Y07985D02*
D03*
X03735Y08065D02*
D03*
Y07975D02*
D03*
X04025Y08075D02*
D03*
Y07985D02*
D03*
X0388Y08065D02*
D03*
Y07975D02*
D03*
X033Y08065D02*
D03*
Y07975D02*
D03*
X0359Y08065D02*
D03*
Y07975D02*
D03*
X0344Y08065D02*
D03*
Y07975D02*
D03*
D50*
X01725Y07285D02*
D03*
Y07355D02*
D03*
X067912Y063411D02*
D03*
Y062711D02*
D03*
X072112Y062411D02*
D03*
Y063111D02*
D03*
X0195Y07285D02*
D03*
Y07355D02*
D03*
X0241Y07295D02*
D03*
Y07365D02*
D03*
X0217Y0729D02*
D03*
Y0736D02*
D03*
X0288Y073D02*
D03*
Y0737D02*
D03*
X02655Y073D02*
D03*
Y0737D02*
D03*
X0679Y0779D02*
D03*
Y0772D02*
D03*
X06915Y0779D02*
D03*
Y0772D02*
D03*
X0654Y0779D02*
D03*
Y0772D02*
D03*
X0667Y07785D02*
D03*
Y07715D02*
D03*
X0641Y0779D02*
D03*
Y0772D02*
D03*
X0578Y0608D02*
D03*
Y0601D02*
D03*
D51*
X06645Y0449D02*
D03*
X06565D02*
D03*
X0624Y04495D02*
D03*
X0616D02*
D03*
X0544Y0449D02*
D03*
X0536D02*
D03*
X05855D02*
D03*
X05775D02*
D03*
X05015D02*
D03*
X04935D02*
D03*
X0462D02*
D03*
X0454D02*
D03*
X04205D02*
D03*
X04125D02*
D03*
X0663Y0513D02*
D03*
X0671D02*
D03*
X0623D02*
D03*
X0631D02*
D03*
X05805D02*
D03*
X05885D02*
D03*
X05435Y05135D02*
D03*
X05515D02*
D03*
X0503Y0514D02*
D03*
X0511D02*
D03*
X0461Y05135D02*
D03*
X0469D02*
D03*
X0419D02*
D03*
X0427D02*
D03*
X0663Y0506D02*
D03*
X0671D02*
D03*
X0623Y05065D02*
D03*
X0631D02*
D03*
X05805Y0506D02*
D03*
X05885D02*
D03*
X05435D02*
D03*
X05515D02*
D03*
X0503Y0507D02*
D03*
X0511D02*
D03*
X0461Y05065D02*
D03*
X0469D02*
D03*
X0419D02*
D03*
X0427D02*
D03*
X05635Y0592D02*
D03*
X05715D02*
D03*
X037984Y042722D02*
D03*
X038784D02*
D03*
X02935Y04325D02*
D03*
X03015D02*
D03*
X0767Y04215D02*
D03*
X0775D02*
D03*
X0513Y07905D02*
D03*
X0505D02*
D03*
X0543Y0791D02*
D03*
X0535D02*
D03*
X0528D02*
D03*
X052D02*
D03*
X0469Y07905D02*
D03*
X0461D02*
D03*
X0498D02*
D03*
X049D02*
D03*
X04835D02*
D03*
X04755D02*
D03*
X04245D02*
D03*
X04165D02*
D03*
X0454D02*
D03*
X0446D02*
D03*
X0439D02*
D03*
X0431D02*
D03*
X03815D02*
D03*
X03735D02*
D03*
X04095D02*
D03*
X04015D02*
D03*
X03955D02*
D03*
X03875D02*
D03*
X0337D02*
D03*
X0329D02*
D03*
X03675D02*
D03*
X03595D02*
D03*
X03525D02*
D03*
X03445D02*
D03*
X01695Y05815D02*
D03*
X01775D02*
D03*
X01695Y05745D02*
D03*
X01775D02*
D03*
X017Y05975D02*
D03*
X0178D02*
D03*
X017Y0604D02*
D03*
X0178D02*
D03*
D52*
X05565Y0497D02*
D03*
X05385Y0497D02*
D03*
X043199Y0497D02*
D03*
X0414Y0497D02*
D03*
X0594Y0497D02*
D03*
X0576Y0497D02*
D03*
X0675Y0497D02*
D03*
X0657Y0497D02*
D03*
X0636Y0497D02*
D03*
X061801Y0497D02*
D03*
X0474Y0497D02*
D03*
X0456Y0497D02*
D03*
X0516Y0497D02*
D03*
X0498Y0497D02*
D03*
D53*
X05475Y046787D02*
D03*
X0423D02*
D03*
X0585D02*
D03*
X0666D02*
D03*
X0627D02*
D03*
X0465D02*
D03*
X0507D02*
D03*
D54*
X073608Y05225D02*
D03*
X072939D02*
D03*
X0716D02*
D03*
X070931D02*
D03*
D55*
X070162Y064303D02*
D03*
D56*
X071068Y062019D02*
D03*
X070162D02*
D03*
X069257D02*
D03*
D57*
X070748Y04725D02*
D03*
X072952D02*
D03*
D58*
X074012Y064113D02*
D03*
Y061909D02*
D03*
X066062D02*
D03*
Y064113D02*
D03*
X06125Y054648D02*
D03*
Y056852D02*
D03*
D59*
X07105Y05035D02*
D03*
X07175D02*
D03*
X0349Y05275D02*
D03*
X0356D02*
D03*
X0565Y05995D02*
D03*
X0572D02*
D03*
D60*
X07665Y04055D02*
D03*
X07755D02*
D03*
X0301Y0419D02*
D03*
X0292D02*
D03*
X03885Y04175D02*
D03*
X03795D02*
D03*
X0435Y0449D02*
D03*
X0426D02*
D03*
X05585D02*
D03*
X05495D02*
D03*
X05995D02*
D03*
X05905D02*
D03*
X06785D02*
D03*
X06695D02*
D03*
X06385D02*
D03*
X06295D02*
D03*
X0476D02*
D03*
X0467D02*
D03*
X05155D02*
D03*
X05065D02*
D03*
D61*
X03455Y07475D02*
D03*
X03655D02*
D03*
X03455Y05575D02*
D03*
Y05475D02*
D03*
Y05875D02*
D03*
Y05775D02*
D03*
Y06175D02*
D03*
Y06075D02*
D03*
Y06475D02*
D03*
Y06375D02*
D03*
Y06875D02*
D03*
Y06775D02*
D03*
Y06675D02*
D03*
Y07175D02*
D03*
Y07075D02*
D03*
Y07375D02*
D03*
Y05375D02*
D03*
Y06575D02*
D03*
Y06275D02*
D03*
Y05975D02*
D03*
Y05675D02*
D03*
Y07275D02*
D03*
Y06975D02*
D03*
X03655Y05575D02*
D03*
Y05475D02*
D03*
Y05875D02*
D03*
Y05775D02*
D03*
Y06175D02*
D03*
Y06075D02*
D03*
Y06475D02*
D03*
Y06375D02*
D03*
Y06875D02*
D03*
Y06775D02*
D03*
Y06675D02*
D03*
Y07175D02*
D03*
Y07075D02*
D03*
Y07375D02*
D03*
Y05375D02*
D03*
Y06575D02*
D03*
Y06275D02*
D03*
Y05975D02*
D03*
Y05675D02*
D03*
Y07275D02*
D03*
Y06975D02*
D03*
D62*
X05455Y05575D02*
D03*
Y05475D02*
D03*
Y05875D02*
D03*
Y05775D02*
D03*
Y06175D02*
D03*
Y06075D02*
D03*
Y06475D02*
D03*
Y06375D02*
D03*
Y06875D02*
D03*
Y06775D02*
D03*
Y06675D02*
D03*
Y07175D02*
D03*
Y07075D02*
D03*
Y07475D02*
D03*
Y07375D02*
D03*
Y05375D02*
D03*
Y06575D02*
D03*
Y06275D02*
D03*
Y05975D02*
D03*
Y05675D02*
D03*
Y07275D02*
D03*
Y06975D02*
D03*
X05255Y05575D02*
D03*
Y05475D02*
D03*
Y05875D02*
D03*
Y05775D02*
D03*
Y06175D02*
D03*
Y06075D02*
D03*
Y06475D02*
D03*
Y06375D02*
D03*
Y06875D02*
D03*
Y06775D02*
D03*
Y06675D02*
D03*
Y07175D02*
D03*
Y07075D02*
D03*
Y07375D02*
D03*
Y06575D02*
D03*
Y06275D02*
D03*
Y05975D02*
D03*
Y05675D02*
D03*
Y07275D02*
D03*
Y06975D02*
D03*
Y05375D02*
D03*
Y07475D02*
D03*
D63*
X03805Y07325D02*
D03*
X03905D02*
D03*
X04105D02*
D03*
X04205D02*
D03*
X04405D02*
D03*
X04505D02*
D03*
X04705D02*
D03*
X04805D02*
D03*
X05105D02*
D03*
X05005D02*
D03*
X04005D02*
D03*
X04305D02*
D03*
X04605D02*
D03*
X04905D02*
D03*
X03805Y07525D02*
D03*
X03905D02*
D03*
X04105D02*
D03*
X04205D02*
D03*
X04405D02*
D03*
X04505D02*
D03*
X04705D02*
D03*
X04805D02*
D03*
X05105D02*
D03*
X05005D02*
D03*
X04005D02*
D03*
X04305D02*
D03*
X04605D02*
D03*
X04905D02*
D03*
D64*
X0684Y05715D02*
D03*
Y058528D02*
D03*
X064483Y05715D02*
D03*
Y058528D02*
D03*
D65*
X057124Y0608D02*
D03*
X056376D02*
D03*
D66*
X0255Y0493D02*
D03*
Y0503D02*
D03*
Y0513D02*
D03*
Y0523D02*
D03*
X0265Y0533D02*
D03*
Y0523D02*
D03*
Y0513D02*
D03*
Y0503D02*
D03*
Y0493D02*
D03*
X0144Y0712D02*
D03*
Y0702D02*
D03*
Y0692D02*
D03*
Y0682D02*
D03*
X0134Y0672D02*
D03*
Y0682D02*
D03*
Y0692D02*
D03*
Y0702D02*
D03*
Y0712D02*
D03*
X0143Y0629D02*
D03*
Y0619D02*
D03*
Y0609D02*
D03*
Y0599D02*
D03*
X0133Y0589D02*
D03*
Y0599D02*
D03*
Y0609D02*
D03*
Y0619D02*
D03*
Y0629D02*
D03*
D67*
X0255Y0533D02*
D03*
X0144Y0672D02*
D03*
X0143Y0589D02*
D03*
D68*
X0227Y044606D02*
D03*
Y045606D02*
D03*
Y046606D02*
D03*
Y047606D02*
D03*
Y048606D02*
D03*
Y049606D02*
D03*
Y050606D02*
D03*
Y051606D02*
D03*
Y052606D02*
D03*
Y053606D02*
D03*
Y054606D02*
D03*
Y055606D02*
D03*
X0177Y044606D02*
D03*
X0167Y0446D02*
D03*
Y0456D02*
D03*
Y0466D02*
D03*
Y0476D02*
D03*
Y0486D02*
D03*
Y0496D02*
D03*
Y0506D02*
D03*
Y0516D02*
D03*
Y0526D02*
D03*
Y0536D02*
D03*
Y0546D02*
D03*
Y0556D02*
D03*
D69*
X0685Y05195D02*
D03*
D70*
Y05395D02*
D03*
D71*
X0335Y0483D02*
D03*
Y0473D02*
D03*
Y0463D02*
D03*
X0325Y0473D02*
D03*
Y0463D02*
D03*
D72*
Y0483D02*
D03*
D73*
X02515Y06515D02*
D03*
X01815Y06415D02*
D03*
Y06515D02*
D03*
X01915Y06415D02*
D03*
Y06515D02*
D03*
X02015Y06415D02*
D03*
Y06515D02*
D03*
X02115Y06415D02*
D03*
Y06515D02*
D03*
X02215Y06415D02*
D03*
Y06515D02*
D03*
X02315Y06415D02*
D03*
Y06515D02*
D03*
X02415Y06415D02*
D03*
Y06515D02*
D03*
X02515Y06415D02*
D03*
X02815Y06415D02*
D03*
X02915Y06415D02*
D03*
X02915Y06515D02*
D03*
X02815Y06515D02*
D03*
X02715Y06515D02*
D03*
X02615Y06415D02*
D03*
X02615Y06515D02*
D03*
X03015Y06415D02*
D03*
X02715Y06415D02*
D03*
D74*
X03015Y06515D02*
D03*
D75*
X074026Y043726D02*
D03*
X07Y0437D02*
D03*
X072D02*
D03*
X035976Y043876D02*
D03*
X03195Y04385D02*
D03*
X03395D02*
D03*
D76*
X070917Y082601D02*
D03*
X026767Y082801D02*
D03*
X054785Y082732D02*
D03*
D77*
X063288Y082599D02*
D03*
X063828Y083719D02*
D03*
X064374Y082601D02*
D03*
X064919Y083719D02*
D03*
X065464Y082601D02*
D03*
X066009Y083719D02*
D03*
X066555Y082601D02*
D03*
X0671Y083719D02*
D03*
X067645Y082601D02*
D03*
X068191Y083719D02*
D03*
X068736Y082601D02*
D03*
X069281Y083719D02*
D03*
X069826Y082601D02*
D03*
X070372Y083719D02*
D03*
X019138Y082799D02*
D03*
X019678Y083919D02*
D03*
X020224Y082801D02*
D03*
X020769Y083919D02*
D03*
X021314Y082801D02*
D03*
X021859Y083919D02*
D03*
X022405Y082801D02*
D03*
X02295Y083919D02*
D03*
X023495Y082801D02*
D03*
X024041Y083919D02*
D03*
X024586Y082801D02*
D03*
X025131Y083919D02*
D03*
X025676Y082801D02*
D03*
X026222Y083919D02*
D03*
X035155Y082732D02*
D03*
X0357Y08385D02*
D03*
X036245Y082732D02*
D03*
X036791Y08385D02*
D03*
X038972D02*
D03*
X038426Y082732D02*
D03*
X037881Y08385D02*
D03*
X037336Y082732D02*
D03*
X041153Y08385D02*
D03*
X040607Y082732D02*
D03*
X040062Y08385D02*
D03*
X039517Y082732D02*
D03*
X045515Y08385D02*
D03*
X04497Y082732D02*
D03*
X044424Y08385D02*
D03*
X041698Y082732D02*
D03*
X046606Y08385D02*
D03*
X04606Y082732D02*
D03*
X043334Y08385D02*
D03*
X042789Y082732D02*
D03*
X042243Y08385D02*
D03*
X04388Y082732D02*
D03*
X047151D02*
D03*
X047696Y08385D02*
D03*
X048241Y082732D02*
D03*
X048787Y08385D02*
D03*
X049332Y082732D02*
D03*
X049877Y08385D02*
D03*
X050422Y082732D02*
D03*
X050968Y08385D02*
D03*
X051513Y082732D02*
D03*
X052058Y08385D02*
D03*
X052604Y082732D02*
D03*
X053149Y08385D02*
D03*
X053694Y082732D02*
D03*
X054239Y08385D02*
D03*
D78*
X060541Y08316D02*
D03*
X073659D02*
D03*
X016391Y08336D02*
D03*
X029509D02*
D03*
X032449Y083301D02*
D03*
X057528Y083293D02*
D03*
D79*
X04145Y0436D02*
D03*
X04345D02*
D03*
X04555D02*
D03*
X04755D02*
D03*
X0496D02*
D03*
X0516D02*
D03*
X05775D02*
D03*
X05975D02*
D03*
X065819D02*
D03*
X067819D02*
D03*
X0537D02*
D03*
X0557D02*
D03*
X061767D02*
D03*
X063767D02*
D03*
D80*
X03925Y05865D02*
D03*
Y06015D02*
D03*
X0393Y06135D02*
D03*
X02475Y05745D02*
D03*
X0391Y0641D02*
D03*
X0393Y0625D02*
D03*
X02885Y04935D02*
D03*
X023356Y080753D02*
D03*
X0212Y0809D02*
D03*
X0304Y08065D02*
D03*
X028Y08075D02*
D03*
X0257Y0809D02*
D03*
X02435Y0782D02*
D03*
X02205Y07805D02*
D03*
X01975Y07805D02*
D03*
X0268Y0779D02*
D03*
X029D02*
D03*
X01865Y08085D02*
D03*
X01745Y078D02*
D03*
X0175Y0761D02*
D03*
X0198Y07605D02*
D03*
X022Y0761D02*
D03*
X02435Y07615D02*
D03*
X02675Y076D02*
D03*
X029Y07615D02*
D03*
X02215Y07295D02*
D03*
X018706Y072371D02*
D03*
X059597Y07549D02*
D03*
X0604Y0734D02*
D03*
X065035Y06742D02*
D03*
X0668Y06935D02*
D03*
X0472Y07175D02*
D03*
Y0685D02*
D03*
X03145Y07835D02*
D03*
X0314Y0789D02*
D03*
X02325Y06175D02*
D03*
X02215Y06235D02*
D03*
X049Y0519D02*
D03*
X02315Y072395D02*
D03*
X02085Y07235D02*
D03*
X025523Y07255D02*
D03*
X0279Y0725D02*
D03*
X06535Y0786D02*
D03*
X0667Y07865D02*
D03*
X0679Y0786D02*
D03*
X0692D02*
D03*
X0704Y07785D02*
D03*
Y07865D02*
D03*
X06415Y0786D02*
D03*
X06345Y07795D02*
D03*
X06605Y0779D02*
D03*
X0648Y07795D02*
D03*
X06735D02*
D03*
X0686Y077956D02*
D03*
X061127Y051277D02*
D03*
X064978Y051078D02*
D03*
X0571Y0516D02*
D03*
X060569Y065339D02*
D03*
X0465Y0718D02*
D03*
X04795Y0688D02*
D03*
X0565Y07415D02*
D03*
X0559Y06315D02*
D03*
X0565Y0663D02*
D03*
X05Y0751D02*
D03*
X05025Y07295D02*
D03*
X0563Y055D02*
D03*
Y05435D02*
D03*
X05625Y0537D02*
D03*
X04945Y05145D02*
D03*
X04905Y0751D02*
D03*
X038Y0752D02*
D03*
X0211Y0608D02*
D03*
X042Y07745D02*
D03*
X04955Y0627D02*
D03*
X0376Y05375D02*
D03*
X04035Y0563D02*
D03*
X04105Y0752D02*
D03*
X04365Y07705D02*
D03*
X01925Y06985D02*
D03*
X05105Y0751D02*
D03*
X05095Y07705D02*
D03*
X02585Y06915D02*
D03*
X038404Y053749D02*
D03*
X045Y0752D02*
D03*
X04705Y0668D02*
D03*
X04905Y07295D02*
D03*
X03985Y0657D02*
D03*
X03905Y0752D02*
D03*
X042Y0695D02*
D03*
X0559Y0727D02*
D03*
X018175Y067175D02*
D03*
X0431Y05935D02*
D03*
X0444Y067D02*
D03*
X01745Y07035D02*
D03*
X048Y0751D02*
D03*
X0416Y07665D02*
D03*
X0582Y06235D02*
D03*
X0415Y069853D02*
D03*
X02365Y0592D02*
D03*
X025141Y059866D02*
D03*
X05915Y06135D02*
D03*
X04235Y05825D02*
D03*
X04765Y05775D02*
D03*
X04645Y0677D02*
D03*
X016463Y068187D02*
D03*
X04555Y06815D02*
D03*
X0481Y077403D02*
D03*
X04405Y07295D02*
D03*
X05715Y07465D02*
D03*
X0545Y0638D02*
D03*
X03095Y07425D02*
D03*
X0363Y07475D02*
D03*
X0438Y0589D02*
D03*
X05775Y07025D02*
D03*
X03365Y07775D02*
D03*
X0586Y06175D02*
D03*
X051051Y053749D02*
D03*
X045Y0702D02*
D03*
X0729Y0497D02*
D03*
X07345Y0501D02*
D03*
X07185Y05015D02*
D03*
X037Y0533D02*
D03*
X0363Y05335D02*
D03*
X0214Y057D02*
D03*
X02085Y05785D02*
D03*
X01855Y06035D02*
D03*
X0296Y0545D02*
D03*
X0292Y055D02*
D03*
X02995D02*
D03*
X0691Y0617D02*
D03*
X06905Y06265D02*
D03*
X06845Y0621D02*
D03*
X06775Y06205D02*
D03*
X067Y0621D02*
D03*
X06655Y0639D02*
D03*
X0666Y0647D02*
D03*
X06515Y06385D02*
D03*
X0652Y0648D02*
D03*
X06425Y0639D02*
D03*
Y06485D02*
D03*
X06745Y06395D02*
D03*
Y06485D02*
D03*
X066168Y061909D02*
D03*
X066Y0642D02*
D03*
X0511Y05425D02*
D03*
Y05475D02*
D03*
X0221Y0694D02*
D03*
X02585Y07185D02*
D03*
X0282Y05D02*
D03*
Y04875D02*
D03*
X04395Y066003D02*
D03*
X0457Y05135D02*
D03*
X01915Y05745D02*
D03*
X0302Y072518D02*
D03*
X02345Y067197D02*
D03*
X0416Y05135D02*
D03*
X0155Y06085D02*
D03*
X0201Y06825D02*
D03*
X0211Y0677D02*
D03*
X0187Y06735D02*
D03*
X01695Y06D02*
D03*
X0165Y05795D02*
D03*
X06585Y0488D02*
D03*
X06615Y04925D02*
D03*
X06545Y0493D02*
D03*
X06615Y04985D02*
D03*
X06535D02*
D03*
X04565Y04885D02*
D03*
X046Y0493D02*
D03*
X04535Y04935D02*
D03*
X046Y05D02*
D03*
X0453D02*
D03*
X0415Y04885D02*
D03*
X04185Y04935D02*
D03*
X0411Y0494D02*
D03*
X0418Y05D02*
D03*
X04105D02*
D03*
X0497Y0488D02*
D03*
X0502Y04925D02*
D03*
X0495Y0493D02*
D03*
X0502Y0499D02*
D03*
X0495D02*
D03*
X0539Y04875D02*
D03*
X05425Y04925D02*
D03*
X05355Y0493D02*
D03*
X05415Y0499D02*
D03*
X05355D02*
D03*
X0576Y04875D02*
D03*
X05725Y0493D02*
D03*
X05795Y04925D02*
D03*
Y0499D02*
D03*
X05725D02*
D03*
X06175Y04885D02*
D03*
X06145Y04945D02*
D03*
X0615Y05D02*
D03*
X06215Y04925D02*
D03*
Y05D02*
D03*
D81*
X07255Y05025D02*
D03*
M02*
