G04*
G04 #@! TF.GenerationSoftware,Altium Limited,Altium Designer,20.1.12 (249)*
G04*
G04 Layer_Color=8421504*
%FSTAX24Y24*%
%MOIN*%
G70*
G04*
G04 #@! TF.SameCoordinates,65647CF5-6095-42B6-9084-E7F1C421F8D5*
G04*
G04*
G04 #@! TF.FilePolarity,Positive*
G04*
G01*
G75*
G04:AMPARAMS|DCode=24|XSize=90mil|YSize=63mil|CornerRadius=15.7mil|HoleSize=0mil|Usage=FLASHONLY|Rotation=270.000|XOffset=0mil|YOffset=0mil|HoleType=Round|Shape=RoundedRectangle|*
%AMROUNDEDRECTD24*
21,1,0.0900,0.0315,0,0,270.0*
21,1,0.0585,0.0630,0,0,270.0*
1,1,0.0315,-0.0157,-0.0293*
1,1,0.0315,-0.0157,0.0293*
1,1,0.0315,0.0157,0.0293*
1,1,0.0315,0.0157,-0.0293*
%
%ADD24ROUNDEDRECTD24*%
%ADD25R,0.0630X0.0900*%
%ADD26R,0.0433X0.0315*%
%ADD27R,0.0550X0.0500*%
%ADD28R,0.0433X0.0472*%
%ADD29R,0.0315X0.0433*%
G04:AMPARAMS|DCode=30|XSize=39.4mil|YSize=78.7mil|CornerRadius=4.9mil|HoleSize=0mil|Usage=FLASHONLY|Rotation=180.000|XOffset=0mil|YOffset=0mil|HoleType=Round|Shape=RoundedRectangle|*
%AMROUNDEDRECTD30*
21,1,0.0394,0.0689,0,0,180.0*
21,1,0.0295,0.0787,0,0,180.0*
1,1,0.0098,-0.0148,0.0344*
1,1,0.0098,0.0148,0.0344*
1,1,0.0098,0.0148,-0.0344*
1,1,0.0098,-0.0148,-0.0344*
%
%ADD30ROUNDEDRECTD30*%
G04:AMPARAMS|DCode=31|XSize=216.5mil|YSize=224.4mil|CornerRadius=27.1mil|HoleSize=0mil|Usage=FLASHONLY|Rotation=180.000|XOffset=0mil|YOffset=0mil|HoleType=Round|Shape=RoundedRectangle|*
%AMROUNDEDRECTD31*
21,1,0.2165,0.1703,0,0,180.0*
21,1,0.1624,0.2244,0,0,180.0*
1,1,0.0541,-0.0812,0.0851*
1,1,0.0541,0.0812,0.0851*
1,1,0.0541,0.0812,-0.0851*
1,1,0.0541,-0.0812,-0.0851*
%
%ADD31ROUNDEDRECTD31*%
G04:AMPARAMS|DCode=32|XSize=39.4mil|YSize=133.9mil|CornerRadius=9.8mil|HoleSize=0mil|Usage=FLASHONLY|Rotation=0.000|XOffset=0mil|YOffset=0mil|HoleType=Round|Shape=RoundedRectangle|*
%AMROUNDEDRECTD32*
21,1,0.0394,0.1142,0,0,0.0*
21,1,0.0197,0.1339,0,0,0.0*
1,1,0.0197,0.0098,-0.0571*
1,1,0.0197,-0.0098,-0.0571*
1,1,0.0197,-0.0098,0.0571*
1,1,0.0197,0.0098,0.0571*
%
%ADD32ROUNDEDRECTD32*%
%ADD33R,0.1299X0.0945*%
%ADD34R,0.0394X0.0945*%
%ADD35R,0.1378X0.0630*%
%ADD36R,0.0630X0.1378*%
%ADD37R,0.0472X0.0433*%
%ADD38R,0.0500X0.0550*%
%ADD39R,0.1398X0.0472*%
%ADD40R,0.1417X0.0472*%
%ADD41R,0.0472X0.1417*%
%ADD42R,0.1516X0.0984*%
%ADD43R,0.0512X0.0591*%
D24*
X0184Y07795D02*
D03*
X023Y078D02*
D03*
X02075Y07795D02*
D03*
X02995D02*
D03*
X02535Y078D02*
D03*
X02775D02*
D03*
D25*
X0174Y07795D02*
D03*
Y07495D02*
D03*
X0184D02*
D03*
X022Y078D02*
D03*
Y075D02*
D03*
X023D02*
D03*
X01975Y07795D02*
D03*
Y07495D02*
D03*
X02075D02*
D03*
X02895Y07795D02*
D03*
Y07495D02*
D03*
X02995D02*
D03*
X02435Y078D02*
D03*
Y075D02*
D03*
X02535D02*
D03*
X02675Y078D02*
D03*
Y075D02*
D03*
X02775D02*
D03*
D26*
X022Y08D02*
D03*
Y0792D02*
D03*
X0243Y08005D02*
D03*
Y07925D02*
D03*
X02675Y07995D02*
D03*
Y07915D02*
D03*
X02895Y08D02*
D03*
Y0792D02*
D03*
X0197Y08D02*
D03*
Y0792D02*
D03*
X0174Y08005D02*
D03*
Y07925D02*
D03*
X0187Y0728D02*
D03*
Y0736D02*
D03*
X017948Y072809D02*
D03*
Y073609D02*
D03*
X04245Y07995D02*
D03*
Y08075D02*
D03*
X04685Y0799D02*
D03*
Y0807D02*
D03*
X03805Y07993D02*
D03*
Y08073D02*
D03*
X04975Y0799D02*
D03*
Y0807D02*
D03*
X0543Y0799D02*
D03*
Y0807D02*
D03*
X03515Y0799D02*
D03*
Y0807D02*
D03*
X05275Y0799D02*
D03*
Y0807D02*
D03*
X02085Y07285D02*
D03*
Y07365D02*
D03*
X0231Y0729D02*
D03*
Y0737D02*
D03*
X0255Y07295D02*
D03*
Y07375D02*
D03*
X02785Y07295D02*
D03*
Y07375D02*
D03*
X0302Y07295D02*
D03*
Y07375D02*
D03*
X02015Y07285D02*
D03*
Y07365D02*
D03*
X0224Y0729D02*
D03*
Y0737D02*
D03*
X0248Y0729D02*
D03*
Y0737D02*
D03*
X0272Y07295D02*
D03*
Y07375D02*
D03*
X0295Y07295D02*
D03*
Y07375D02*
D03*
X0692Y0791D02*
D03*
Y0799D02*
D03*
X0679Y07915D02*
D03*
Y07995D02*
D03*
X0667Y07915D02*
D03*
Y07995D02*
D03*
X06535Y07915D02*
D03*
Y07995D02*
D03*
X064095Y07915D02*
D03*
Y07995D02*
D03*
X04395Y07993D02*
D03*
Y08073D02*
D03*
X0483Y0799D02*
D03*
Y0807D02*
D03*
X0395Y07993D02*
D03*
Y08073D02*
D03*
X0337Y07993D02*
D03*
Y08073D02*
D03*
X05125Y0799D02*
D03*
Y0807D02*
D03*
X03665Y0799D02*
D03*
Y0807D02*
D03*
X0454Y0799D02*
D03*
Y0807D02*
D03*
X04095Y08D02*
D03*
Y0808D02*
D03*
D27*
X02995Y0791D02*
D03*
Y08D02*
D03*
X0277Y0791D02*
D03*
Y08D02*
D03*
X025309Y07917D02*
D03*
Y08007D02*
D03*
X0229Y07917D02*
D03*
Y08007D02*
D03*
X0207Y07915D02*
D03*
Y08005D02*
D03*
X018398Y0791D02*
D03*
Y08D02*
D03*
X0505Y0807D02*
D03*
Y0798D02*
D03*
X05355Y08065D02*
D03*
Y07975D02*
D03*
X052Y0807D02*
D03*
Y0798D02*
D03*
X04615Y0807D02*
D03*
Y0798D02*
D03*
X04905Y0807D02*
D03*
Y0798D02*
D03*
X0476Y0807D02*
D03*
Y0798D02*
D03*
X0417Y08075D02*
D03*
Y07985D02*
D03*
X0447Y0807D02*
D03*
Y0798D02*
D03*
X04315Y08075D02*
D03*
Y07985D02*
D03*
X03735Y08065D02*
D03*
Y07975D02*
D03*
X04025Y08075D02*
D03*
Y07985D02*
D03*
X0388Y08065D02*
D03*
Y07975D02*
D03*
X033Y08065D02*
D03*
Y07975D02*
D03*
X0359Y08065D02*
D03*
Y07975D02*
D03*
X0344Y08065D02*
D03*
Y07975D02*
D03*
D28*
X01725Y07285D02*
D03*
Y07355D02*
D03*
X067912Y063411D02*
D03*
Y062711D02*
D03*
X072112Y062411D02*
D03*
Y063111D02*
D03*
X0195Y07285D02*
D03*
Y07355D02*
D03*
X0241Y07295D02*
D03*
Y07365D02*
D03*
X0217Y0729D02*
D03*
Y0736D02*
D03*
X0288Y073D02*
D03*
Y0737D02*
D03*
X02655Y073D02*
D03*
Y0737D02*
D03*
X0679Y0779D02*
D03*
Y0772D02*
D03*
X06915Y0779D02*
D03*
Y0772D02*
D03*
X0654Y0779D02*
D03*
Y0772D02*
D03*
X0667Y07785D02*
D03*
Y07715D02*
D03*
X0641Y0779D02*
D03*
Y0772D02*
D03*
X0578Y0608D02*
D03*
Y0601D02*
D03*
D29*
X06645Y0449D02*
D03*
X06565D02*
D03*
X0624Y04495D02*
D03*
X0616D02*
D03*
X0544Y0449D02*
D03*
X0536D02*
D03*
X05855D02*
D03*
X05775D02*
D03*
X05015D02*
D03*
X04935D02*
D03*
X0462D02*
D03*
X0454D02*
D03*
X04205D02*
D03*
X04125D02*
D03*
X0663Y0513D02*
D03*
X0671D02*
D03*
X0623D02*
D03*
X0631D02*
D03*
X05805D02*
D03*
X05885D02*
D03*
X05435Y05135D02*
D03*
X05515D02*
D03*
X0503Y0514D02*
D03*
X0511D02*
D03*
X0461Y05135D02*
D03*
X0469D02*
D03*
X0419D02*
D03*
X0427D02*
D03*
X0663Y0506D02*
D03*
X0671D02*
D03*
X0623Y05065D02*
D03*
X0631D02*
D03*
X05805Y0506D02*
D03*
X05885D02*
D03*
X05435D02*
D03*
X05515D02*
D03*
X0503Y0507D02*
D03*
X0511D02*
D03*
X0461Y05065D02*
D03*
X0469D02*
D03*
X0419D02*
D03*
X0427D02*
D03*
X05635Y0592D02*
D03*
X05715D02*
D03*
X037984Y042722D02*
D03*
X038784D02*
D03*
X02935Y04325D02*
D03*
X03015D02*
D03*
X0767Y04215D02*
D03*
X0775D02*
D03*
X0513Y07905D02*
D03*
X0505D02*
D03*
X0543Y0791D02*
D03*
X0535D02*
D03*
X0528D02*
D03*
X052D02*
D03*
X0469Y07905D02*
D03*
X0461D02*
D03*
X0498D02*
D03*
X049D02*
D03*
X04835D02*
D03*
X04755D02*
D03*
X04245D02*
D03*
X04165D02*
D03*
X0454D02*
D03*
X0446D02*
D03*
X0439D02*
D03*
X0431D02*
D03*
X03815D02*
D03*
X03735D02*
D03*
X04095D02*
D03*
X04015D02*
D03*
X03955D02*
D03*
X03875D02*
D03*
X0337D02*
D03*
X0329D02*
D03*
X03675D02*
D03*
X03595D02*
D03*
X03525D02*
D03*
X03445D02*
D03*
X01695Y05815D02*
D03*
X01775D02*
D03*
X01695Y05745D02*
D03*
X01775D02*
D03*
X017Y05975D02*
D03*
X0178D02*
D03*
X017Y0604D02*
D03*
X0178D02*
D03*
D30*
X05565Y0497D02*
D03*
X05385Y0497D02*
D03*
X043199Y0497D02*
D03*
X0414Y0497D02*
D03*
X0594Y0497D02*
D03*
X0576Y0497D02*
D03*
X0675Y0497D02*
D03*
X0657Y0497D02*
D03*
X0636Y0497D02*
D03*
X061801Y0497D02*
D03*
X0474Y0497D02*
D03*
X0456Y0497D02*
D03*
X0516Y0497D02*
D03*
X0498Y0497D02*
D03*
D31*
X05475Y046787D02*
D03*
X0423D02*
D03*
X0585D02*
D03*
X0666D02*
D03*
X0627D02*
D03*
X0465D02*
D03*
X0507D02*
D03*
D32*
X073608Y05225D02*
D03*
X072269D02*
D03*
X072939D02*
D03*
X0716D02*
D03*
X070931D02*
D03*
D33*
X070162Y064303D02*
D03*
D34*
X071068Y062019D02*
D03*
X070162D02*
D03*
X069257D02*
D03*
D35*
X070748Y04725D02*
D03*
X072952D02*
D03*
D36*
X074012Y064113D02*
D03*
Y061909D02*
D03*
X066062D02*
D03*
Y064113D02*
D03*
X06125Y054648D02*
D03*
Y056852D02*
D03*
D37*
X07105Y05035D02*
D03*
X07175D02*
D03*
X0349Y05275D02*
D03*
X0356D02*
D03*
X0565Y05995D02*
D03*
X0572D02*
D03*
D38*
X07665Y04055D02*
D03*
X07755D02*
D03*
X0301Y0419D02*
D03*
X0292D02*
D03*
X03885Y04175D02*
D03*
X03795D02*
D03*
X0435Y0449D02*
D03*
X0426D02*
D03*
X05585D02*
D03*
X05495D02*
D03*
X05995D02*
D03*
X05905D02*
D03*
X06785D02*
D03*
X06695D02*
D03*
X06385D02*
D03*
X06295D02*
D03*
X0476D02*
D03*
X0467D02*
D03*
X05155D02*
D03*
X05065D02*
D03*
D39*
X03455Y07475D02*
D03*
X03655D02*
D03*
X03455Y05575D02*
D03*
Y05475D02*
D03*
Y05875D02*
D03*
Y05775D02*
D03*
Y06175D02*
D03*
Y06075D02*
D03*
Y06475D02*
D03*
Y06375D02*
D03*
Y06875D02*
D03*
Y06775D02*
D03*
Y06675D02*
D03*
Y07175D02*
D03*
Y07075D02*
D03*
Y07375D02*
D03*
Y05375D02*
D03*
Y06575D02*
D03*
Y06275D02*
D03*
Y05975D02*
D03*
Y05675D02*
D03*
Y07275D02*
D03*
Y06975D02*
D03*
X03655Y05575D02*
D03*
Y05475D02*
D03*
Y05875D02*
D03*
Y05775D02*
D03*
Y06175D02*
D03*
Y06075D02*
D03*
Y06475D02*
D03*
Y06375D02*
D03*
Y06875D02*
D03*
Y06775D02*
D03*
Y06675D02*
D03*
Y07175D02*
D03*
Y07075D02*
D03*
Y07375D02*
D03*
Y05375D02*
D03*
Y06575D02*
D03*
Y06275D02*
D03*
Y05975D02*
D03*
Y05675D02*
D03*
Y07275D02*
D03*
Y06975D02*
D03*
D40*
X05455Y05575D02*
D03*
Y05475D02*
D03*
Y05875D02*
D03*
Y05775D02*
D03*
Y06175D02*
D03*
Y06075D02*
D03*
Y06475D02*
D03*
Y06375D02*
D03*
Y06875D02*
D03*
Y06775D02*
D03*
Y06675D02*
D03*
Y07175D02*
D03*
Y07075D02*
D03*
Y07475D02*
D03*
Y07375D02*
D03*
Y05375D02*
D03*
Y06575D02*
D03*
Y06275D02*
D03*
Y05975D02*
D03*
Y05675D02*
D03*
Y07275D02*
D03*
Y06975D02*
D03*
X05255Y05575D02*
D03*
Y05475D02*
D03*
Y05875D02*
D03*
Y05775D02*
D03*
Y06175D02*
D03*
Y06075D02*
D03*
Y06475D02*
D03*
Y06375D02*
D03*
Y06875D02*
D03*
Y06775D02*
D03*
Y06675D02*
D03*
Y07175D02*
D03*
Y07075D02*
D03*
Y07375D02*
D03*
Y06575D02*
D03*
Y06275D02*
D03*
Y05975D02*
D03*
Y05675D02*
D03*
Y07275D02*
D03*
Y06975D02*
D03*
Y05375D02*
D03*
Y07475D02*
D03*
D41*
X03805Y07325D02*
D03*
X03905D02*
D03*
X04105D02*
D03*
X04205D02*
D03*
X04405D02*
D03*
X04505D02*
D03*
X04705D02*
D03*
X04805D02*
D03*
X05105D02*
D03*
X05005D02*
D03*
X04005D02*
D03*
X04305D02*
D03*
X04605D02*
D03*
X04905D02*
D03*
X03805Y07525D02*
D03*
X03905D02*
D03*
X04105D02*
D03*
X04205D02*
D03*
X04405D02*
D03*
X04505D02*
D03*
X04705D02*
D03*
X04805D02*
D03*
X05105D02*
D03*
X05005D02*
D03*
X04005D02*
D03*
X04305D02*
D03*
X04605D02*
D03*
X04905D02*
D03*
D42*
X0684Y05715D02*
D03*
Y058528D02*
D03*
X064483Y05715D02*
D03*
Y058528D02*
D03*
D43*
X057124Y0608D02*
D03*
X056376D02*
D03*
M02*
