M48
;Layer_Color=9474304
;FILE_FORMAT=2:4
INCH,LZ
;TYPE=PLATED
T1F00S00C0.0236
T2F00S00C0.0280
T3F00S00C0.0394
T4F00S00C0.0400
T5F00S00C0.0429
T6F00S00C0.0433
T7F00S00C0.0600
T8F00S00C0.0650
T9F00S00C0.1252
T10F00S00C0.1575
%
T01
X06585Y0488
X06615Y04925
Y04985
X06535
X06545Y0493
X064978Y051078
X07185Y05015
X0729Y0497
X07345Y0501
X0691Y0617
X06845Y0621
X06775Y06205
X067Y0621
X066168Y061909
X05915Y06135
X0586Y06175
X0582Y06235
X0563Y055
Y05435
X05625Y0537
X0571Y0516
X05725Y0499
Y0493
X05795Y04925
Y0499
X0576Y04875
X0539
X05425Y04925
X05355Y0493
Y0499
X05415
X0502
Y04925
X0495Y0493
Y0499
X0497Y0488
X04945Y05145
X049Y0519
X051051Y053749
X0511Y05425
Y05475
X04765Y05775
X061127Y051277
X0615Y05
X06145Y04945
X06175Y04885
X06215Y04925
Y05
X046
Y0493
X04535Y04935
X0453Y05
X04565Y04885
X0457Y05135
X0416
X0418Y05
X04185Y04935
X0411Y0494
X04105Y05
X0415Y04885
X038404Y053749
X0376Y05375
X037Y0533
X0363Y05335
X04035Y0563
X03925Y05865
Y06015
X0393Y06135
X0431Y05935
X0438Y0589
X04235Y05825
X02995Y055
X0292
X0296Y0545
X02885Y04935
X0282Y04875
Y05
X02475Y05745
X025141Y059866
X02365Y0592
X02325Y06175
X02215Y06235
X0211Y0608
X01855Y06035
X01695Y06
X0165Y05795
X01915Y05745
X02085Y05785
X0214Y057
X0155Y06085
X016463Y068187
X018175Y067175
X0187Y06735
X0201Y06825
X0211Y0677
X0221Y0694
X01925Y06985
X01745Y07035
X018706Y072371
X02085Y07235
X02215Y07295
X02315Y072395
X025523Y07255
X02585Y07185
X0279Y0725
X0302Y072518
X03095Y07425
X029Y07615
Y0779
X0268
X02675Y076
X02435Y07615
X022Y0761
X02205Y07805
X01975Y07805
X0198Y07605
X0175Y0761
X01745Y078
X02345Y067197
X02585Y06915
X0363Y07475
X038Y0752
X03905
X04105
X0416Y07665
X042Y07745
X04365Y07705
X045Y0752
X04405Y07295
X0465Y0718
X045Y0702
X04555Y06815
X04645Y0677
X0444Y067
X04395Y066003
X03985Y0657
X0391Y0641
X0393Y0625
X0415Y069853
X042Y0695
X03365Y07775
X0481Y077403
X048Y0751
X04905
X05
X05105
X05095Y07705
X05025Y07295
X04905
X0472Y07175
Y0685
X04795Y0688
X04705Y0668
X04955Y0627
X0545Y0638
X0559Y06315
X0565Y0663
X060569Y065339
X05775Y07025
X0559Y0727
X0565Y07415
X05715Y07465
X059597Y07549
X0604Y0734
X06345Y07795
X0648
X06605Y0779
X06735Y07795
X0686Y077956
X0704Y07785
X0668Y06935
X065035Y06742
X0652Y0648
X06515Y06385
X06425Y0639
Y06485
X066Y0642
X06655Y0639
X0666Y0647
X06745Y06485
Y06395
X06905Y06265
X0692Y0786
X0704Y07865
X0679Y0786
X0667Y07865
X06535Y0786
X06415
X03145Y07835
X0314Y0789
X0304Y08065
X028Y08075
X0257Y0809
X023356Y080753
X0212Y0809
X01865Y08085
X02435Y0782
T02
X07255Y05025
T03
X0255Y0493
Y0503
Y0513
Y0523
Y0533
X0265
Y0523
Y0513
Y0503
Y0493
X0143Y0589
Y0599
Y0609
Y0619
X0133
Y0609
Y0599
Y0589
Y0629
X0143
X0144Y0672
Y0682
Y0692
Y0702
Y0712
X0134
Y0702
Y0692
Y0682
Y0672
T04
X01815Y06415
Y06515
X01915
Y06415
X02015
Y06515
X02115
Y06415
X02215
Y06515
X02315
Y06415
X02415
Y06515
X02515
Y06415
X02615Y06415
X02715Y06415
Y06515
X02615Y06515
X02815Y06515
Y06415
X02915Y06415
X02915Y06515
X03015Y06515
Y06415
T05
X063288Y082599
X064374Y082601
X065464
X066555
X067645
X068736
X069826
X070917
X070372Y083719
X069281
X068191
X0671
X066009
X064919
X063828
X054239Y08385
X053149
X052058
X050968
X049877
X048787
X047696
X048241Y082732
X049332
X050422
X051513
X052604
X053694
X054785Y082732
X047151Y082732
X04606
X04497
X04388
X042789
X041698
X040607
X039517
X038426
X037336
X036245
X035155
X0357Y08385
X036791
X037881
X038972
X040062
X041153
X042243
X043334
X044424
X045515
X046606
X026222Y083919
X025131
X024041
X02295
X021859
X020769
X019678
X019138Y082799
X020224Y082801
X021314
X022405
X023495
X024586
X025676
X026767
T06
X0167Y0446
Y0456
Y0466
X0177Y044606
X0227
Y045606
Y046606
X0325Y0463
X0335
Y0473
Y0483
X0325
Y0473
X0227Y047606
Y048606
Y049606
Y050606
Y051606
Y052606
Y053606
Y054606
Y055606
X0167Y0556
Y0546
Y0536
Y0526
Y0516
Y0506
Y0496
Y0486
Y0476
T07
X04145Y0436
X04345
X04555
X04755
X0496
X0516
X0537
X0557
X05775
X05975
X061767
X063767
X065819
X067819
X0685Y05195
Y05395
T08
X03195Y04385
X03395
X035976Y043876
X07Y0437
X072
X074026Y043726
T09
X073659Y08316
X060541
X057528Y083293
X032449Y083301
X029509Y08336
X016391
T10
X012646Y045305
X076422
Y081155
X012646Y081205
M30
