G04*
G04 #@! TF.GenerationSoftware,Altium Limited,Altium Designer,20.1.12 (249)*
G04*
G04 Layer_Color=16711935*
%FSTAX24Y24*%
%MOIN*%
G70*
G04*
G04 #@! TF.SameCoordinates,65647CF5-6095-42B6-9084-E7F1C421F8D5*
G04*
G04*
G04 #@! TF.FilePolarity,Negative*
G04*
G01*
G75*
%ADD50R,0.0513X0.0552*%
%ADD51R,0.0395X0.0513*%
%ADD59R,0.0552X0.0513*%
%ADD66O,0.0867X0.0671*%
%ADD67R,0.0867X0.0671*%
%ADD68C,0.0789*%
%ADD69C,0.1580*%
%ADD70R,0.1580X0.1580*%
%ADD71C,0.0710*%
%ADD72R,0.0710X0.0710*%
%ADD73C,0.0780*%
%ADD74R,0.0780X0.0780*%
%ADD75C,0.1380*%
%ADD76R,0.0745X0.0745*%
%ADD77C,0.0745*%
%ADD78C,0.1970*%
%ADD79O,0.1180X0.1280*%
%ADD80C,0.0474*%
%ADD81C,0.0580*%
%ADD86C,0.0500*%
%ADD109R,0.1064X0.1104*%
%ADD110R,0.0434X0.0454*%
%ADD111R,0.0730X0.0880*%
D50*
X0164Y08515D02*
D03*
Y08445D02*
D03*
X03245Y08435D02*
D03*
Y08505D02*
D03*
X0605Y08425D02*
D03*
Y08495D02*
D03*
D51*
X0522Y07845D02*
D03*
X053D02*
D03*
X035D02*
D03*
X0358D02*
D03*
X04815D02*
D03*
X04895D02*
D03*
X0403D02*
D03*
X0411D02*
D03*
X0442D02*
D03*
X045D02*
D03*
X0363D02*
D03*
X0371D02*
D03*
X03895D02*
D03*
X03975D02*
D03*
X0468D02*
D03*
X0476D02*
D03*
X0429D02*
D03*
X0437D02*
D03*
X0175Y08035D02*
D03*
X0183D02*
D03*
X01975Y08065D02*
D03*
X02055D02*
D03*
X02205Y0807D02*
D03*
X02285D02*
D03*
X02435D02*
D03*
X02515D02*
D03*
X0267Y08075D02*
D03*
X0275D02*
D03*
X0291D02*
D03*
X0299D02*
D03*
X01825Y07885D02*
D03*
X01745D02*
D03*
X02055Y07895D02*
D03*
X01975D02*
D03*
X02285Y079D02*
D03*
X02205D02*
D03*
X0251D02*
D03*
X0243D02*
D03*
X0276Y07905D02*
D03*
X0268D02*
D03*
X029958D02*
D03*
X029158D02*
D03*
X034486Y079178D02*
D03*
X033686D02*
D03*
X0384Y07915D02*
D03*
X0376D02*
D03*
X0424D02*
D03*
X0416D02*
D03*
X0463D02*
D03*
X0455D02*
D03*
X05035D02*
D03*
X04955D02*
D03*
X0371D02*
D03*
X0363D02*
D03*
X0411D02*
D03*
X0403D02*
D03*
X045D02*
D03*
X0442D02*
D03*
X04895D02*
D03*
X04815D02*
D03*
X053D02*
D03*
X0522D02*
D03*
X0358D02*
D03*
X035D02*
D03*
X03975D02*
D03*
X03895D02*
D03*
X0437D02*
D03*
X0429D02*
D03*
X0476D02*
D03*
X0468D02*
D03*
X0517D02*
D03*
X0509D02*
D03*
Y07845D02*
D03*
X0517D02*
D03*
X033686Y078478D02*
D03*
X034486D02*
D03*
X0416Y07845D02*
D03*
X0424D02*
D03*
X0376D02*
D03*
X0384D02*
D03*
X0455D02*
D03*
X0463D02*
D03*
X04955D02*
D03*
X05035D02*
D03*
D59*
X0182Y0796D02*
D03*
X0175D02*
D03*
X02505Y07975D02*
D03*
X02435D02*
D03*
X0205Y0797D02*
D03*
X0198D02*
D03*
X02275Y0798D02*
D03*
X02205D02*
D03*
X029908D02*
D03*
X029208D02*
D03*
X0275D02*
D03*
X0268D02*
D03*
D66*
X0255Y0493D02*
D03*
Y0503D02*
D03*
Y0513D02*
D03*
Y0523D02*
D03*
X0265Y0533D02*
D03*
Y0523D02*
D03*
Y0513D02*
D03*
Y0503D02*
D03*
Y0493D02*
D03*
X0144Y0712D02*
D03*
Y0702D02*
D03*
Y0692D02*
D03*
Y0682D02*
D03*
X0134Y0672D02*
D03*
Y0682D02*
D03*
Y0692D02*
D03*
Y0702D02*
D03*
Y0712D02*
D03*
X0143Y0629D02*
D03*
Y0619D02*
D03*
Y0609D02*
D03*
Y0599D02*
D03*
X0133Y0589D02*
D03*
Y0599D02*
D03*
Y0609D02*
D03*
Y0619D02*
D03*
Y0629D02*
D03*
D67*
X0255Y0533D02*
D03*
X0144Y0672D02*
D03*
X0143Y0589D02*
D03*
D68*
X0227Y044606D02*
D03*
Y045606D02*
D03*
Y046606D02*
D03*
Y047606D02*
D03*
Y048606D02*
D03*
Y049606D02*
D03*
Y050606D02*
D03*
Y051606D02*
D03*
Y052606D02*
D03*
Y053606D02*
D03*
Y054606D02*
D03*
Y055606D02*
D03*
X0177Y044606D02*
D03*
X0167Y0446D02*
D03*
Y0456D02*
D03*
Y0466D02*
D03*
Y0476D02*
D03*
Y0486D02*
D03*
Y0496D02*
D03*
Y0506D02*
D03*
Y0516D02*
D03*
Y0526D02*
D03*
Y0536D02*
D03*
Y0546D02*
D03*
Y0556D02*
D03*
D69*
X0685Y05195D02*
D03*
D70*
Y05395D02*
D03*
D71*
X0335Y0483D02*
D03*
Y0473D02*
D03*
Y0463D02*
D03*
X0325Y0473D02*
D03*
Y0463D02*
D03*
D72*
Y0483D02*
D03*
D73*
X02515Y06515D02*
D03*
X01815Y06415D02*
D03*
Y06515D02*
D03*
X01915Y06415D02*
D03*
Y06515D02*
D03*
X02015Y06415D02*
D03*
Y06515D02*
D03*
X02115Y06415D02*
D03*
Y06515D02*
D03*
X02215Y06415D02*
D03*
Y06515D02*
D03*
X02315Y06415D02*
D03*
Y06515D02*
D03*
X02415Y06415D02*
D03*
Y06515D02*
D03*
X02515Y06415D02*
D03*
X02815Y06415D02*
D03*
X02915Y06415D02*
D03*
X02915Y06515D02*
D03*
X02815Y06515D02*
D03*
X02715Y06515D02*
D03*
X02615Y06415D02*
D03*
X02615Y06515D02*
D03*
X03015Y06415D02*
D03*
X02715Y06415D02*
D03*
D74*
X03015Y06515D02*
D03*
D75*
X074026Y043726D02*
D03*
X07Y0437D02*
D03*
X072D02*
D03*
X035976Y043876D02*
D03*
X03195Y04385D02*
D03*
X03395D02*
D03*
D76*
X070917Y082601D02*
D03*
X026767Y082801D02*
D03*
X054785Y082732D02*
D03*
D77*
X063288Y082599D02*
D03*
X063828Y083719D02*
D03*
X064374Y082601D02*
D03*
X064919Y083719D02*
D03*
X065464Y082601D02*
D03*
X066009Y083719D02*
D03*
X066555Y082601D02*
D03*
X0671Y083719D02*
D03*
X067645Y082601D02*
D03*
X068191Y083719D02*
D03*
X068736Y082601D02*
D03*
X069281Y083719D02*
D03*
X069826Y082601D02*
D03*
X070372Y083719D02*
D03*
X019138Y082799D02*
D03*
X019678Y083919D02*
D03*
X020224Y082801D02*
D03*
X020769Y083919D02*
D03*
X021314Y082801D02*
D03*
X021859Y083919D02*
D03*
X022405Y082801D02*
D03*
X02295Y083919D02*
D03*
X023495Y082801D02*
D03*
X024041Y083919D02*
D03*
X024586Y082801D02*
D03*
X025131Y083919D02*
D03*
X025676Y082801D02*
D03*
X026222Y083919D02*
D03*
X035155Y082732D02*
D03*
X0357Y08385D02*
D03*
X036245Y082732D02*
D03*
X036791Y08385D02*
D03*
X038972D02*
D03*
X038426Y082732D02*
D03*
X037881Y08385D02*
D03*
X037336Y082732D02*
D03*
X041153Y08385D02*
D03*
X040607Y082732D02*
D03*
X040062Y08385D02*
D03*
X039517Y082732D02*
D03*
X045515Y08385D02*
D03*
X04497Y082732D02*
D03*
X044424Y08385D02*
D03*
X041698Y082732D02*
D03*
X046606Y08385D02*
D03*
X04606Y082732D02*
D03*
X043334Y08385D02*
D03*
X042789Y082732D02*
D03*
X042243Y08385D02*
D03*
X04388Y082732D02*
D03*
X047151D02*
D03*
X047696Y08385D02*
D03*
X048241Y082732D02*
D03*
X048787Y08385D02*
D03*
X049332Y082732D02*
D03*
X049877Y08385D02*
D03*
X050422Y082732D02*
D03*
X050968Y08385D02*
D03*
X051513Y082732D02*
D03*
X052058Y08385D02*
D03*
X052604Y082732D02*
D03*
X053149Y08385D02*
D03*
X053694Y082732D02*
D03*
X054239Y08385D02*
D03*
D78*
X060541Y08316D02*
D03*
X073659D02*
D03*
X016391Y08336D02*
D03*
X029509D02*
D03*
X032449Y083301D02*
D03*
X057528Y083293D02*
D03*
D79*
X04145Y0436D02*
D03*
X04345D02*
D03*
X04555D02*
D03*
X04755D02*
D03*
X0496D02*
D03*
X0516D02*
D03*
X05775D02*
D03*
X05975D02*
D03*
X065819D02*
D03*
X067819D02*
D03*
X0537D02*
D03*
X0557D02*
D03*
X061767D02*
D03*
X063767D02*
D03*
D80*
X03925Y05865D02*
D03*
Y06015D02*
D03*
X0393Y06135D02*
D03*
X02475Y05745D02*
D03*
X0391Y0641D02*
D03*
X0393Y0625D02*
D03*
X02885Y04935D02*
D03*
X023356Y080753D02*
D03*
X0212Y0809D02*
D03*
X0304Y08065D02*
D03*
X028Y08075D02*
D03*
X0257Y0809D02*
D03*
X02435Y0782D02*
D03*
X02205Y07805D02*
D03*
X01975Y07805D02*
D03*
X0268Y0779D02*
D03*
X029D02*
D03*
X01865Y08085D02*
D03*
X01745Y078D02*
D03*
X0175Y0761D02*
D03*
X0198Y07605D02*
D03*
X022Y0761D02*
D03*
X02435Y07615D02*
D03*
X02675Y076D02*
D03*
X029Y07615D02*
D03*
X02215Y07295D02*
D03*
X018706Y072371D02*
D03*
X059597Y07549D02*
D03*
X0604Y0734D02*
D03*
X065035Y06742D02*
D03*
X0668Y06935D02*
D03*
X0472Y07175D02*
D03*
Y0685D02*
D03*
X03145Y07835D02*
D03*
X0314Y0789D02*
D03*
X02325Y06175D02*
D03*
X02215Y06235D02*
D03*
X049Y0519D02*
D03*
X02315Y072395D02*
D03*
X02085Y07235D02*
D03*
X025523Y07255D02*
D03*
X0279Y0725D02*
D03*
X06535Y0786D02*
D03*
X0667Y07865D02*
D03*
X0679Y0786D02*
D03*
X0692D02*
D03*
X0704Y07785D02*
D03*
Y07865D02*
D03*
X06415Y0786D02*
D03*
X06345Y07795D02*
D03*
X06605Y0779D02*
D03*
X0648Y07795D02*
D03*
X06735D02*
D03*
X0686Y077956D02*
D03*
X061127Y051277D02*
D03*
X064978Y051078D02*
D03*
X0571Y0516D02*
D03*
X060569Y065339D02*
D03*
X0465Y0718D02*
D03*
X04795Y0688D02*
D03*
X0565Y07415D02*
D03*
X0559Y06315D02*
D03*
X0565Y0663D02*
D03*
X05Y0751D02*
D03*
X05025Y07295D02*
D03*
X0563Y055D02*
D03*
Y05435D02*
D03*
X05625Y0537D02*
D03*
X04945Y05145D02*
D03*
X04905Y0751D02*
D03*
X038Y0752D02*
D03*
X0211Y0608D02*
D03*
X042Y07745D02*
D03*
X04955Y0627D02*
D03*
X0376Y05375D02*
D03*
X04035Y0563D02*
D03*
X04105Y0752D02*
D03*
X04365Y07705D02*
D03*
X01925Y06985D02*
D03*
X05105Y0751D02*
D03*
X05095Y07705D02*
D03*
X02585Y06915D02*
D03*
X038404Y053749D02*
D03*
X045Y0752D02*
D03*
X04705Y0668D02*
D03*
X04905Y07295D02*
D03*
X03985Y0657D02*
D03*
X03905Y0752D02*
D03*
X042Y0695D02*
D03*
X0559Y0727D02*
D03*
X018175Y067175D02*
D03*
X0431Y05935D02*
D03*
X0444Y067D02*
D03*
X01745Y07035D02*
D03*
X048Y0751D02*
D03*
X0416Y07665D02*
D03*
X0582Y06235D02*
D03*
X0415Y069853D02*
D03*
X02365Y0592D02*
D03*
X025141Y059866D02*
D03*
X05915Y06135D02*
D03*
X04235Y05825D02*
D03*
X04765Y05775D02*
D03*
X04645Y0677D02*
D03*
X016463Y068187D02*
D03*
X04555Y06815D02*
D03*
X0481Y077403D02*
D03*
X04405Y07295D02*
D03*
X05715Y07465D02*
D03*
X0545Y0638D02*
D03*
X03095Y07425D02*
D03*
X0363Y07475D02*
D03*
X0438Y0589D02*
D03*
X05775Y07025D02*
D03*
X03365Y07775D02*
D03*
X0586Y06175D02*
D03*
X051051Y053749D02*
D03*
X045Y0702D02*
D03*
X0729Y0497D02*
D03*
X07345Y0501D02*
D03*
X07185Y05015D02*
D03*
X037Y0533D02*
D03*
X0363Y05335D02*
D03*
X0214Y057D02*
D03*
X02085Y05785D02*
D03*
X01855Y06035D02*
D03*
X0296Y0545D02*
D03*
X0292Y055D02*
D03*
X02995D02*
D03*
X0691Y0617D02*
D03*
X06905Y06265D02*
D03*
X06845Y0621D02*
D03*
X06775Y06205D02*
D03*
X067Y0621D02*
D03*
X06655Y0639D02*
D03*
X0666Y0647D02*
D03*
X06515Y06385D02*
D03*
X0652Y0648D02*
D03*
X06425Y0639D02*
D03*
Y06485D02*
D03*
X06745Y06395D02*
D03*
Y06485D02*
D03*
X066168Y061909D02*
D03*
X066Y0642D02*
D03*
X0511Y05425D02*
D03*
Y05475D02*
D03*
X0221Y0694D02*
D03*
X02585Y07185D02*
D03*
X0282Y05D02*
D03*
Y04875D02*
D03*
X04395Y066003D02*
D03*
X0457Y05135D02*
D03*
X01915Y05745D02*
D03*
X0302Y072518D02*
D03*
X02345Y067197D02*
D03*
X0416Y05135D02*
D03*
X0155Y06085D02*
D03*
X0201Y06825D02*
D03*
X0211Y0677D02*
D03*
X0187Y06735D02*
D03*
X01695Y06D02*
D03*
X0165Y05795D02*
D03*
X06585Y0488D02*
D03*
X06615Y04925D02*
D03*
X06545Y0493D02*
D03*
X06615Y04985D02*
D03*
X06535D02*
D03*
X04565Y04885D02*
D03*
X046Y0493D02*
D03*
X04535Y04935D02*
D03*
X046Y05D02*
D03*
X0453D02*
D03*
X0415Y04885D02*
D03*
X04185Y04935D02*
D03*
X0411Y0494D02*
D03*
X0418Y05D02*
D03*
X04105D02*
D03*
X0497Y0488D02*
D03*
X0502Y04925D02*
D03*
X0495Y0493D02*
D03*
X0502Y0499D02*
D03*
X0495D02*
D03*
X0539Y04875D02*
D03*
X05425Y04925D02*
D03*
X05355Y0493D02*
D03*
X05415Y0499D02*
D03*
X05355D02*
D03*
X0576Y04875D02*
D03*
X05725Y0493D02*
D03*
X05795Y04925D02*
D03*
Y0499D02*
D03*
X05725D02*
D03*
X06175Y04885D02*
D03*
X06145Y04945D02*
D03*
X0615Y05D02*
D03*
X06215Y04925D02*
D03*
Y05D02*
D03*
D81*
X07255Y05025D02*
D03*
D86*
X0695Y0453D02*
X06955Y0477D01*
X0688Y04825D02*
X06955Y0477D01*
X06795Y04825D02*
X0688D01*
X04185Y0482D02*
X06795Y04825D01*
X0702Y0455D02*
Y04845D01*
X06965Y04895D02*
X0702Y04845D01*
X0667Y049D02*
X06965Y04895D01*
X0419Y0491D02*
X0667Y049D01*
D109*
X06595Y04215D02*
D03*
X06755D02*
D03*
X0497D02*
D03*
X0513D02*
D03*
X04145D02*
D03*
X04305D02*
D03*
X0538D02*
D03*
X0554D02*
D03*
X0576D02*
D03*
X0592D02*
D03*
X062D02*
D03*
X0636D02*
D03*
X0456D02*
D03*
X0472D02*
D03*
D110*
X039724Y079808D02*
D03*
X03935Y080792D02*
D03*
X038974Y079808D02*
D03*
X035774D02*
D03*
X0354Y080792D02*
D03*
X035024Y079808D02*
D03*
X048924D02*
D03*
X04855Y080792D02*
D03*
X048174Y079808D02*
D03*
X052974D02*
D03*
X0526Y080792D02*
D03*
X052224Y079808D02*
D03*
X041024D02*
D03*
X04065Y080792D02*
D03*
X040274Y079808D02*
D03*
X044974D02*
D03*
X0446Y080792D02*
D03*
X044224Y079808D02*
D03*
X037074D02*
D03*
X0367Y080792D02*
D03*
X036324Y079808D02*
D03*
X046224D02*
D03*
X04585Y080792D02*
D03*
X045474Y079808D02*
D03*
X0503D02*
D03*
X049926Y080792D02*
D03*
X04955Y079808D02*
D03*
X042374D02*
D03*
X042Y080792D02*
D03*
X041624Y079808D02*
D03*
X0476D02*
D03*
X047226Y080792D02*
D03*
X04685Y079808D02*
D03*
X051624D02*
D03*
X05125Y080792D02*
D03*
X050874Y079808D02*
D03*
X038374D02*
D03*
X038Y080792D02*
D03*
X037624Y079808D02*
D03*
X03446Y079836D02*
D03*
X034086Y08082D02*
D03*
X03371Y079836D02*
D03*
X043674Y079808D02*
D03*
X0433Y080792D02*
D03*
X042924Y079808D02*
D03*
D111*
X0711Y04195D02*
D03*
X0725D02*
D03*
M02*
