G04*
G04 #@! TF.GenerationSoftware,Altium Limited,Altium Designer,20.1.12 (249)*
G04*
G04 Layer_Color=255*
%FSTAX24Y24*%
%MOIN*%
G70*
G04*
G04 #@! TF.SameCoordinates,65647CF5-6095-42B6-9084-E7F1C421F8D5*
G04*
G04*
G04 #@! TF.FilePolarity,Positive*
G04*
G01*
G75*
%ADD28R,0.0433X0.0472*%
%ADD29R,0.0315X0.0433*%
%ADD37R,0.0472X0.0433*%
%ADD89O,0.0787X0.0591*%
%ADD90R,0.0787X0.0591*%
%ADD91C,0.0709*%
%ADD92C,0.1500*%
%ADD93R,0.1500X0.1500*%
%ADD94C,0.0630*%
%ADD95R,0.0630X0.0630*%
%ADD96C,0.0700*%
%ADD97R,0.0700X0.0700*%
%ADD98C,0.1300*%
%ADD99R,0.0665X0.0665*%
%ADD100C,0.0665*%
%ADD101C,0.1890*%
%ADD102O,0.1100X0.1200*%
%ADD106R,0.0984X0.1024*%
%ADD107R,0.0354X0.0374*%
%ADD108R,0.0650X0.0800*%
D28*
X0164Y08515D02*
D03*
Y08445D02*
D03*
X03245Y08435D02*
D03*
Y08505D02*
D03*
X0605Y08425D02*
D03*
Y08495D02*
D03*
D29*
X0522Y07845D02*
D03*
X053D02*
D03*
X035D02*
D03*
X0358D02*
D03*
X04815D02*
D03*
X04895D02*
D03*
X0403D02*
D03*
X0411D02*
D03*
X0442D02*
D03*
X045D02*
D03*
X0363D02*
D03*
X0371D02*
D03*
X03895D02*
D03*
X03975D02*
D03*
X0468D02*
D03*
X0476D02*
D03*
X0429D02*
D03*
X0437D02*
D03*
X0175Y08035D02*
D03*
X0183D02*
D03*
X01975Y08065D02*
D03*
X02055D02*
D03*
X02205Y0807D02*
D03*
X02285D02*
D03*
X02435D02*
D03*
X02515D02*
D03*
X0267Y08075D02*
D03*
X0275D02*
D03*
X0291D02*
D03*
X0299D02*
D03*
X01825Y07885D02*
D03*
X01745D02*
D03*
X02055Y07895D02*
D03*
X01975D02*
D03*
X02285Y079D02*
D03*
X02205D02*
D03*
X0251D02*
D03*
X0243D02*
D03*
X0276Y07905D02*
D03*
X0268D02*
D03*
X029958D02*
D03*
X029158D02*
D03*
X034486Y079178D02*
D03*
X033686D02*
D03*
X0384Y07915D02*
D03*
X0376D02*
D03*
X0424D02*
D03*
X0416D02*
D03*
X0463D02*
D03*
X0455D02*
D03*
X05035D02*
D03*
X04955D02*
D03*
X0371D02*
D03*
X0363D02*
D03*
X0411D02*
D03*
X0403D02*
D03*
X045D02*
D03*
X0442D02*
D03*
X04895D02*
D03*
X04815D02*
D03*
X053D02*
D03*
X0522D02*
D03*
X0358D02*
D03*
X035D02*
D03*
X03975D02*
D03*
X03895D02*
D03*
X0437D02*
D03*
X0429D02*
D03*
X0476D02*
D03*
X0468D02*
D03*
X0517D02*
D03*
X0509D02*
D03*
Y07845D02*
D03*
X0517D02*
D03*
X033686Y078478D02*
D03*
X034486D02*
D03*
X0416Y07845D02*
D03*
X0424D02*
D03*
X0376D02*
D03*
X0384D02*
D03*
X0455D02*
D03*
X0463D02*
D03*
X04955D02*
D03*
X05035D02*
D03*
D37*
X0182Y0796D02*
D03*
X0175D02*
D03*
X02505Y07975D02*
D03*
X02435D02*
D03*
X0205Y0797D02*
D03*
X0198D02*
D03*
X02275Y0798D02*
D03*
X02205D02*
D03*
X029908D02*
D03*
X029208D02*
D03*
X0275D02*
D03*
X0268D02*
D03*
D89*
X0255Y0493D02*
D03*
Y0503D02*
D03*
Y0513D02*
D03*
Y0523D02*
D03*
X0265Y0533D02*
D03*
Y0523D02*
D03*
Y0513D02*
D03*
Y0503D02*
D03*
Y0493D02*
D03*
X0144Y0712D02*
D03*
Y0702D02*
D03*
Y0692D02*
D03*
Y0682D02*
D03*
X0134Y0672D02*
D03*
Y0682D02*
D03*
Y0692D02*
D03*
Y0702D02*
D03*
Y0712D02*
D03*
X0143Y0629D02*
D03*
Y0619D02*
D03*
Y0609D02*
D03*
Y0599D02*
D03*
X0133Y0589D02*
D03*
Y0599D02*
D03*
Y0609D02*
D03*
Y0619D02*
D03*
Y0629D02*
D03*
D90*
X0255Y0533D02*
D03*
X0144Y0672D02*
D03*
X0143Y0589D02*
D03*
D91*
X0227Y044606D02*
D03*
Y045606D02*
D03*
Y046606D02*
D03*
Y047606D02*
D03*
Y048606D02*
D03*
Y049606D02*
D03*
Y050606D02*
D03*
Y051606D02*
D03*
Y052606D02*
D03*
Y053606D02*
D03*
Y054606D02*
D03*
Y055606D02*
D03*
X0177Y044606D02*
D03*
X0167Y0446D02*
D03*
Y0456D02*
D03*
Y0466D02*
D03*
Y0476D02*
D03*
Y0486D02*
D03*
Y0496D02*
D03*
Y0506D02*
D03*
Y0516D02*
D03*
Y0526D02*
D03*
Y0536D02*
D03*
Y0546D02*
D03*
Y0556D02*
D03*
D92*
X0685Y05195D02*
D03*
D93*
Y05395D02*
D03*
D94*
X0335Y0483D02*
D03*
Y0473D02*
D03*
Y0463D02*
D03*
X0325Y0473D02*
D03*
Y0463D02*
D03*
D95*
Y0483D02*
D03*
D96*
X02515Y06515D02*
D03*
X01815Y06415D02*
D03*
Y06515D02*
D03*
X01915Y06415D02*
D03*
Y06515D02*
D03*
X02015Y06415D02*
D03*
Y06515D02*
D03*
X02115Y06415D02*
D03*
Y06515D02*
D03*
X02215Y06415D02*
D03*
Y06515D02*
D03*
X02315Y06415D02*
D03*
Y06515D02*
D03*
X02415Y06415D02*
D03*
Y06515D02*
D03*
X02515Y06415D02*
D03*
X02815Y06415D02*
D03*
X02915Y06415D02*
D03*
X02915Y06515D02*
D03*
X02815Y06515D02*
D03*
X02715Y06515D02*
D03*
X02615Y06415D02*
D03*
X02615Y06515D02*
D03*
X03015Y06415D02*
D03*
X02715Y06415D02*
D03*
D97*
X03015Y06515D02*
D03*
D98*
X074026Y043726D02*
D03*
X07Y0437D02*
D03*
X072D02*
D03*
X035976Y043876D02*
D03*
X03195Y04385D02*
D03*
X03395D02*
D03*
D99*
X070917Y082601D02*
D03*
X026767Y082801D02*
D03*
X054785Y082732D02*
D03*
D100*
X063288Y082599D02*
D03*
X063828Y083719D02*
D03*
X064374Y082601D02*
D03*
X064919Y083719D02*
D03*
X065464Y082601D02*
D03*
X066009Y083719D02*
D03*
X066555Y082601D02*
D03*
X0671Y083719D02*
D03*
X067645Y082601D02*
D03*
X068191Y083719D02*
D03*
X068736Y082601D02*
D03*
X069281Y083719D02*
D03*
X069826Y082601D02*
D03*
X070372Y083719D02*
D03*
X019138Y082799D02*
D03*
X019678Y083919D02*
D03*
X020224Y082801D02*
D03*
X020769Y083919D02*
D03*
X021314Y082801D02*
D03*
X021859Y083919D02*
D03*
X022405Y082801D02*
D03*
X02295Y083919D02*
D03*
X023495Y082801D02*
D03*
X024041Y083919D02*
D03*
X024586Y082801D02*
D03*
X025131Y083919D02*
D03*
X025676Y082801D02*
D03*
X026222Y083919D02*
D03*
X035155Y082732D02*
D03*
X0357Y08385D02*
D03*
X036245Y082732D02*
D03*
X036791Y08385D02*
D03*
X038972D02*
D03*
X038426Y082732D02*
D03*
X037881Y08385D02*
D03*
X037336Y082732D02*
D03*
X041153Y08385D02*
D03*
X040607Y082732D02*
D03*
X040062Y08385D02*
D03*
X039517Y082732D02*
D03*
X045515Y08385D02*
D03*
X04497Y082732D02*
D03*
X044424Y08385D02*
D03*
X041698Y082732D02*
D03*
X046606Y08385D02*
D03*
X04606Y082732D02*
D03*
X043334Y08385D02*
D03*
X042789Y082732D02*
D03*
X042243Y08385D02*
D03*
X04388Y082732D02*
D03*
X047151D02*
D03*
X047696Y08385D02*
D03*
X048241Y082732D02*
D03*
X048787Y08385D02*
D03*
X049332Y082732D02*
D03*
X049877Y08385D02*
D03*
X050422Y082732D02*
D03*
X050968Y08385D02*
D03*
X051513Y082732D02*
D03*
X052058Y08385D02*
D03*
X052604Y082732D02*
D03*
X053149Y08385D02*
D03*
X053694Y082732D02*
D03*
X054239Y08385D02*
D03*
D101*
X060541Y08316D02*
D03*
X073659D02*
D03*
X016391Y08336D02*
D03*
X029509D02*
D03*
X032449Y083301D02*
D03*
X057528Y083293D02*
D03*
D102*
X04145Y0436D02*
D03*
X04345D02*
D03*
X04555D02*
D03*
X04755D02*
D03*
X0496D02*
D03*
X0516D02*
D03*
X05775D02*
D03*
X05975D02*
D03*
X065819D02*
D03*
X067819D02*
D03*
X0537D02*
D03*
X0557D02*
D03*
X061767D02*
D03*
X063767D02*
D03*
D106*
X06595Y04215D02*
D03*
X06755D02*
D03*
X0497D02*
D03*
X0513D02*
D03*
X04145D02*
D03*
X04305D02*
D03*
X0538D02*
D03*
X0554D02*
D03*
X0576D02*
D03*
X0592D02*
D03*
X062D02*
D03*
X0636D02*
D03*
X0456D02*
D03*
X0472D02*
D03*
D107*
X039724Y079808D02*
D03*
X03935Y080792D02*
D03*
X038974Y079808D02*
D03*
X035774D02*
D03*
X0354Y080792D02*
D03*
X035024Y079808D02*
D03*
X048924D02*
D03*
X04855Y080792D02*
D03*
X048174Y079808D02*
D03*
X052974D02*
D03*
X0526Y080792D02*
D03*
X052224Y079808D02*
D03*
X041024D02*
D03*
X04065Y080792D02*
D03*
X040274Y079808D02*
D03*
X044974D02*
D03*
X0446Y080792D02*
D03*
X044224Y079808D02*
D03*
X037074D02*
D03*
X0367Y080792D02*
D03*
X036324Y079808D02*
D03*
X046224D02*
D03*
X04585Y080792D02*
D03*
X045474Y079808D02*
D03*
X0503D02*
D03*
X049926Y080792D02*
D03*
X04955Y079808D02*
D03*
X042374D02*
D03*
X042Y080792D02*
D03*
X041624Y079808D02*
D03*
X0476D02*
D03*
X047226Y080792D02*
D03*
X04685Y079808D02*
D03*
X051624D02*
D03*
X05125Y080792D02*
D03*
X050874Y079808D02*
D03*
X038374D02*
D03*
X038Y080792D02*
D03*
X037624Y079808D02*
D03*
X03446Y079836D02*
D03*
X034086Y08082D02*
D03*
X03371Y079836D02*
D03*
X043674Y079808D02*
D03*
X0433Y080792D02*
D03*
X042924Y079808D02*
D03*
D108*
X0711Y04195D02*
D03*
X0725D02*
D03*
M02*
