G04*
G04 #@! TF.GenerationSoftware,Altium Limited,Altium Designer,20.1.12 (249)*
G04*
G04 Layer_Color=32896*
%FSTAX24Y24*%
%MOIN*%
G70*
G04*
G04 #@! TF.SameCoordinates,65647CF5-6095-42B6-9084-E7F1C421F8D5*
G04*
G04*
G04 #@! TF.FilePolarity,Positive*
G04*
G01*
G75*
%ADD14C,0.0079*%
%ADD17C,0.0100*%
%ADD18C,0.0039*%
%ADD19C,0.0040*%
%ADD20C,0.0050*%
D14*
X016243Y08478D02*
Y08482D01*
X016557Y08478D02*
Y08482D01*
X032607Y08468D02*
Y08472D01*
X032293Y08468D02*
Y08472D01*
X060657Y08458D02*
Y08462D01*
X060343Y08458D02*
Y08462D01*
X066649Y042003D02*
Y042397D01*
X066846Y042082D02*
Y042318D01*
X066885Y042003D02*
Y042397D01*
X066688Y0422D02*
X066885Y042003D01*
X066787Y042141D02*
Y042259D01*
X066688Y0422D02*
X066885Y042397D01*
X06535Y0416D02*
X066328D01*
X06535Y0427D02*
X066328D01*
X067272D02*
X0681D01*
X067272Y0416D02*
X0681D01*
X06535D02*
Y0427D01*
X0681Y0416D02*
Y0427D01*
X038838Y080152D02*
Y080792D01*
X039862Y080152D02*
Y080792D01*
X039685D02*
X039862D01*
X038838D02*
X039015D01*
X034888Y080152D02*
Y080792D01*
X035912Y080152D02*
Y080792D01*
X035735D02*
X035912D01*
X034888D02*
X035065D01*
X048038Y080152D02*
Y080792D01*
X049062Y080152D02*
Y080792D01*
X048885D02*
X049062D01*
X048038D02*
X048215D01*
X052088Y080152D02*
Y080792D01*
X053112Y080152D02*
Y080792D01*
X052935D02*
X053112D01*
X052088D02*
X052265D01*
X040138Y080152D02*
Y080792D01*
X041162Y080152D02*
Y080792D01*
X040985D02*
X041162D01*
X040138D02*
X040315D01*
X044088Y080152D02*
Y080792D01*
X045112Y080152D02*
Y080792D01*
X044935D02*
X045112D01*
X044088D02*
X044265D01*
X036188Y080152D02*
Y080792D01*
X037212Y080152D02*
Y080792D01*
X037035D02*
X037212D01*
X036188D02*
X036365D01*
X045338Y080152D02*
Y080792D01*
X046362Y080152D02*
Y080792D01*
X046185D02*
X046362D01*
X045338D02*
X045515D01*
X049414Y080152D02*
Y080792D01*
X050438Y080152D02*
Y080792D01*
X050261D02*
X050438D01*
X049414D02*
X049591D01*
X041488Y080152D02*
Y080792D01*
X042512Y080152D02*
Y080792D01*
X042335D02*
X042512D01*
X041488D02*
X041665D01*
X046714Y080152D02*
Y080792D01*
X047738Y080152D02*
Y080792D01*
X047561D02*
X047738D01*
X046714D02*
X046891D01*
X050738Y080152D02*
Y080792D01*
X051762Y080152D02*
Y080792D01*
X051585D02*
X051762D01*
X050738D02*
X050915D01*
X01783Y079757D02*
X01787D01*
X01783Y079443D02*
X01787D01*
X02468Y079907D02*
X02472D01*
X02468Y079593D02*
X02472D01*
X02013Y079857D02*
X02017D01*
X02013Y079543D02*
X02017D01*
X02238Y079957D02*
X02242D01*
X02238Y079643D02*
X02242D01*
X029539Y079957D02*
X029578D01*
X029539Y079643D02*
X029578D01*
X02713Y079957D02*
X02717D01*
X02713Y079643D02*
X02717D01*
X071813Y042009D02*
Y042127D01*
X071715Y042265D02*
X071912Y042068D01*
X071715Y041871D02*
X071912Y042068D01*
X071715Y041871D02*
Y042265D01*
X071754Y04195D02*
Y042186D01*
X071951Y041871D02*
Y042265D01*
X050399Y042003D02*
Y042397D01*
X050596Y042082D02*
Y042318D01*
X050635Y042003D02*
Y042397D01*
X050438Y0422D02*
X050635Y042003D01*
X050537Y042141D02*
Y042259D01*
X050438Y0422D02*
X050635Y042397D01*
X0491Y0416D02*
X050078D01*
X0491Y0427D02*
X050078D01*
X051022D02*
X05185D01*
X051022Y0416D02*
X05185D01*
X0491D02*
Y0427D01*
X05185Y0416D02*
Y0427D01*
X042149Y042003D02*
Y042397D01*
X042346Y042082D02*
Y042318D01*
X042385Y042003D02*
Y042397D01*
X042188Y0422D02*
X042385Y042003D01*
X042287Y042141D02*
Y042259D01*
X042188Y0422D02*
X042385Y042397D01*
X04085Y0416D02*
X041828D01*
X04085Y0427D02*
X041828D01*
X042772D02*
X0436D01*
X042772Y0416D02*
X0436D01*
X04085D02*
Y0427D01*
X0436Y0416D02*
Y0427D01*
X054499Y042003D02*
Y042397D01*
X054696Y042082D02*
Y042318D01*
X054735Y042003D02*
Y042397D01*
X054538Y0422D02*
X054735Y042003D01*
X054637Y042141D02*
Y042259D01*
X054538Y0422D02*
X054735Y042397D01*
X0532Y0416D02*
X054178D01*
X0532Y0427D02*
X054178D01*
X055122D02*
X05595D01*
X055122Y0416D02*
X05595D01*
X0532D02*
Y0427D01*
X05595Y0416D02*
Y0427D01*
X058299Y042003D02*
Y042397D01*
X058496Y042082D02*
Y042318D01*
X058535Y042003D02*
Y042397D01*
X058338Y0422D02*
X058535Y042003D01*
X058437Y042141D02*
Y042259D01*
X058338Y0422D02*
X058535Y042397D01*
X057Y0416D02*
X057978D01*
X057Y0427D02*
X057978D01*
X058922D02*
X05975D01*
X058922Y0416D02*
X05975D01*
X057D02*
Y0427D01*
X05975Y0416D02*
Y0427D01*
X062699Y042003D02*
Y042397D01*
X062896Y042082D02*
Y042318D01*
X062935Y042003D02*
Y042397D01*
X062738Y0422D02*
X062935Y042003D01*
X062837Y042141D02*
Y042259D01*
X062738Y0422D02*
X062935Y042397D01*
X0614Y0416D02*
X062378D01*
X0614Y0427D02*
X062378D01*
X063322D02*
X06415D01*
X063322Y0416D02*
X06415D01*
X0614D02*
Y0427D01*
X06415Y0416D02*
Y0427D01*
X046299Y042003D02*
Y042397D01*
X046496Y042082D02*
Y042318D01*
X046535Y042003D02*
Y042397D01*
X046338Y0422D02*
X046535Y042003D01*
X046437Y042141D02*
Y042259D01*
X046338Y0422D02*
X046535Y042397D01*
X045Y0416D02*
X045978D01*
X045Y0427D02*
X045978D01*
X046922D02*
X04775D01*
X046922Y0416D02*
X04775D01*
X045D02*
Y0427D01*
X04775Y0416D02*
Y0427D01*
X037488Y080152D02*
Y080792D01*
X038512Y080152D02*
Y080792D01*
X038335D02*
X038512D01*
X037488D02*
X037665D01*
X033575Y08018D02*
Y08082D01*
X034598Y08018D02*
Y08082D01*
X034421D02*
X034598D01*
X033575D02*
X033752D01*
X042788Y080152D02*
Y080792D01*
X043812Y080152D02*
Y080792D01*
X043635D02*
X043812D01*
X042788D02*
X042965D01*
D17*
X06137Y08607D02*
X06147Y08617D01*
X06167D01*
X06177Y08607D01*
Y08567D01*
X06167Y08557D01*
X06147D01*
X06137Y08567D01*
X06117Y08557D02*
X06097D01*
X06107D01*
Y08617D01*
X06117Y08607D01*
X06037Y08557D02*
Y08617D01*
X06067Y08587D01*
X06027D01*
X01727Y08627D02*
X01737Y08637D01*
X01757D01*
X01767Y08627D01*
Y08587D01*
X01757Y08577D01*
X01737D01*
X01727Y08587D01*
X01707Y08577D02*
X01687D01*
X01697D01*
Y08637D01*
X01707Y08627D01*
X01657D02*
X01647Y08637D01*
X01627D01*
X01617Y08627D01*
Y08617D01*
X01627Y08607D01*
X01637D01*
X01627D01*
X01617Y08597D01*
Y08587D01*
X01627Y08577D01*
X01647D01*
X01657Y08587D01*
X03158Y08322D02*
X03148Y08312D01*
X03128D01*
X03118Y08322D01*
Y08362D01*
X03128Y08372D01*
X03148D01*
X03158Y08362D01*
X03178Y08372D02*
X03198D01*
X03188D01*
Y08312D01*
X03178Y08322D01*
X03268Y08372D02*
X03228D01*
X03268Y08332D01*
Y08322D01*
X03258Y08312D01*
X03238D01*
X03228Y08322D01*
D18*
X052Y07815D02*
Y07875D01*
X0528D01*
X0532D01*
Y07815D02*
Y07875D01*
X052Y07815D02*
X0532D01*
X05245Y07825D02*
Y07865D01*
X05275D01*
Y07825D02*
Y07865D01*
X05245Y07825D02*
X05275D01*
X0348Y07815D02*
Y07875D01*
X0356D01*
X036D01*
Y07815D02*
Y07875D01*
X0348Y07815D02*
X036D01*
X03525Y07825D02*
Y07865D01*
X03555D01*
Y07825D02*
Y07865D01*
X03525Y07825D02*
X03555D01*
X04795Y07815D02*
Y07875D01*
X04875D01*
X04915D01*
Y07815D02*
Y07875D01*
X04795Y07815D02*
X04915D01*
X0484Y07825D02*
Y07865D01*
X0487D01*
Y07825D02*
Y07865D01*
X0484Y07825D02*
X0487D01*
X0401Y07815D02*
Y07875D01*
X0409D01*
X0413D01*
Y07815D02*
Y07875D01*
X0401Y07815D02*
X0413D01*
X04055Y07825D02*
Y07865D01*
X04085D01*
Y07825D02*
Y07865D01*
X04055Y07825D02*
X04085D01*
X044Y07815D02*
Y07875D01*
X0448D01*
X0452D01*
Y07815D02*
Y07875D01*
X044Y07815D02*
X0452D01*
X04445Y07825D02*
Y07865D01*
X04475D01*
Y07825D02*
Y07865D01*
X04445Y07825D02*
X04475D01*
X0361Y07815D02*
Y07875D01*
X0369D01*
X0373D01*
Y07815D02*
Y07875D01*
X0361Y07815D02*
X0373D01*
X03655Y07825D02*
Y07865D01*
X03685D01*
Y07825D02*
Y07865D01*
X03655Y07825D02*
X03685D01*
X03875Y07815D02*
Y07875D01*
X03955D01*
X03995D01*
Y07815D02*
Y07875D01*
X03875Y07815D02*
X03995D01*
X0392Y07825D02*
Y07865D01*
X0395D01*
Y07825D02*
Y07865D01*
X0392Y07825D02*
X0395D01*
X0466Y07815D02*
Y07875D01*
X0474D01*
X0478D01*
Y07815D02*
Y07875D01*
X0466Y07815D02*
X0478D01*
X04705Y07825D02*
Y07865D01*
X04735D01*
Y07825D02*
Y07865D01*
X04705Y07825D02*
X04735D01*
X0427Y07815D02*
Y07875D01*
X0435D01*
X0439D01*
Y07815D02*
Y07875D01*
X0427Y07815D02*
X0439D01*
X04315Y07825D02*
Y07865D01*
X04345D01*
Y07825D02*
Y07865D01*
X04315Y07825D02*
X04345D01*
X0173Y08005D02*
Y08065D01*
X0181D01*
X0185D01*
Y08005D02*
Y08065D01*
X0173Y08005D02*
X0185D01*
X01775Y08015D02*
Y08055D01*
X01805D01*
Y08015D02*
Y08055D01*
X01775Y08015D02*
X01805D01*
X01955Y08035D02*
Y08095D01*
X02035D01*
X02075D01*
Y08035D02*
Y08095D01*
X01955Y08035D02*
X02075D01*
X02Y08045D02*
Y08085D01*
X0203D01*
Y08045D02*
Y08085D01*
X02Y08045D02*
X0203D01*
X02185Y0804D02*
Y081D01*
X02265D01*
X02305D01*
Y0804D02*
Y081D01*
X02185Y0804D02*
X02305D01*
X0223Y0805D02*
Y0809D01*
X0226D01*
Y0805D02*
Y0809D01*
X0223Y0805D02*
X0226D01*
X02415Y0804D02*
Y081D01*
X02495D01*
X02535D01*
Y0804D02*
Y081D01*
X02415Y0804D02*
X02535D01*
X0246Y0805D02*
Y0809D01*
X0249D01*
Y0805D02*
Y0809D01*
X0246Y0805D02*
X0249D01*
X0265Y08045D02*
Y08105D01*
X0273D01*
X0277D01*
Y08045D02*
Y08105D01*
X0265Y08045D02*
X0277D01*
X02695Y08055D02*
Y08095D01*
X02725D01*
Y08055D02*
Y08095D01*
X02695Y08055D02*
X02725D01*
X0289Y08045D02*
Y08105D01*
X0297D01*
X0301D01*
Y08045D02*
Y08105D01*
X0289Y08045D02*
X0301D01*
X02935Y08055D02*
Y08095D01*
X02965D01*
Y08055D02*
Y08095D01*
X02935Y08055D02*
X02965D01*
X01845Y07855D02*
Y07915D01*
X01765Y07855D02*
X01845D01*
X01725D02*
X01765D01*
X01725D02*
Y07915D01*
X01845D01*
X018Y07865D02*
Y07905D01*
X0177Y07865D02*
X018D01*
X0177D02*
Y07905D01*
X018D01*
X02075Y07865D02*
Y07925D01*
X01995Y07865D02*
X02075D01*
X01955D02*
X01995D01*
X01955D02*
Y07925D01*
X02075D01*
X0203Y07875D02*
Y07915D01*
X02Y07875D02*
X0203D01*
X02D02*
Y07915D01*
X0203D01*
X02305Y0787D02*
Y0793D01*
X02225Y0787D02*
X02305D01*
X02185D02*
X02225D01*
X02185D02*
Y0793D01*
X02305D01*
X0226Y0788D02*
Y0792D01*
X0223Y0788D02*
X0226D01*
X0223D02*
Y0792D01*
X0226D01*
X0253Y0787D02*
Y0793D01*
X0245Y0787D02*
X0253D01*
X0241D02*
X0245D01*
X0241D02*
Y0793D01*
X0253D01*
X02485Y0788D02*
Y0792D01*
X02455Y0788D02*
X02485D01*
X02455D02*
Y0792D01*
X02485D01*
X0278Y07875D02*
Y07935D01*
X027Y07875D02*
X0278D01*
X0266D02*
X027D01*
X0266D02*
Y07935D01*
X0278D01*
X02735Y07885D02*
Y07925D01*
X02705Y07885D02*
X02735D01*
X02705D02*
Y07925D01*
X02735D01*
X030158Y07875D02*
Y07935D01*
X029358Y07875D02*
X030158D01*
X028958D02*
X029358D01*
X028958D02*
Y07935D01*
X030158D01*
X029708Y07885D02*
Y07925D01*
X029409Y07885D02*
X029708D01*
X029409D02*
Y07925D01*
X029708D01*
X034686Y078878D02*
Y079478D01*
X033886Y078878D02*
X034686D01*
X033486D02*
X033886D01*
X033486D02*
Y079478D01*
X034686D01*
X034236Y078978D02*
Y079378D01*
X033936Y078978D02*
X034236D01*
X033936D02*
Y079378D01*
X034236D01*
X0386Y07885D02*
Y07945D01*
X0378Y07885D02*
X0386D01*
X0374D02*
X0378D01*
X0374D02*
Y07945D01*
X0386D01*
X03815Y07895D02*
Y07935D01*
X03785Y07895D02*
X03815D01*
X03785D02*
Y07935D01*
X03815D01*
X0426Y07885D02*
Y07945D01*
X0418Y07885D02*
X0426D01*
X0414D02*
X0418D01*
X0414D02*
Y07945D01*
X0426D01*
X04215Y07895D02*
Y07935D01*
X04185Y07895D02*
X04215D01*
X04185D02*
Y07935D01*
X04215D01*
X0465Y07885D02*
Y07945D01*
X0457Y07885D02*
X0465D01*
X0453D02*
X0457D01*
X0453D02*
Y07945D01*
X0465D01*
X04605Y07895D02*
Y07935D01*
X04575Y07895D02*
X04605D01*
X04575D02*
Y07935D01*
X04605D01*
X05055Y07885D02*
Y07945D01*
X04975Y07885D02*
X05055D01*
X04935D02*
X04975D01*
X04935D02*
Y07945D01*
X05055D01*
X0501Y07895D02*
Y07935D01*
X0498Y07895D02*
X0501D01*
X0498D02*
Y07935D01*
X0501D01*
X0373Y07885D02*
Y07945D01*
X0365Y07885D02*
X0373D01*
X0361D02*
X0365D01*
X0361D02*
Y07945D01*
X0373D01*
X03685Y07895D02*
Y07935D01*
X03655Y07895D02*
X03685D01*
X03655D02*
Y07935D01*
X03685D01*
X0413Y07885D02*
Y07945D01*
X0405Y07885D02*
X0413D01*
X0401D02*
X0405D01*
X0401D02*
Y07945D01*
X0413D01*
X04085Y07895D02*
Y07935D01*
X04055Y07895D02*
X04085D01*
X04055D02*
Y07935D01*
X04085D01*
X0452Y07885D02*
Y07945D01*
X0444Y07885D02*
X0452D01*
X044D02*
X0444D01*
X044D02*
Y07945D01*
X0452D01*
X04475Y07895D02*
Y07935D01*
X04445Y07895D02*
X04475D01*
X04445D02*
Y07935D01*
X04475D01*
X04915Y07885D02*
Y07945D01*
X04835Y07885D02*
X04915D01*
X04795D02*
X04835D01*
X04795D02*
Y07945D01*
X04915D01*
X0487Y07895D02*
Y07935D01*
X0484Y07895D02*
X0487D01*
X0484D02*
Y07935D01*
X0487D01*
X0532Y07885D02*
Y07945D01*
X0524Y07885D02*
X0532D01*
X052D02*
X0524D01*
X052D02*
Y07945D01*
X0532D01*
X05275Y07895D02*
Y07935D01*
X05245Y07895D02*
X05275D01*
X05245D02*
Y07935D01*
X05275D01*
X036Y07885D02*
Y07945D01*
X0352Y07885D02*
X036D01*
X0348D02*
X0352D01*
X0348D02*
Y07945D01*
X036D01*
X03555Y07895D02*
Y07935D01*
X03525Y07895D02*
X03555D01*
X03525D02*
Y07935D01*
X03555D01*
X03995Y07885D02*
Y07945D01*
X03915Y07885D02*
X03995D01*
X03875D02*
X03915D01*
X03875D02*
Y07945D01*
X03995D01*
X0395Y07895D02*
Y07935D01*
X0392Y07895D02*
X0395D01*
X0392D02*
Y07935D01*
X0395D01*
X0439Y07885D02*
Y07945D01*
X0431Y07885D02*
X0439D01*
X0427D02*
X0431D01*
X0427D02*
Y07945D01*
X0439D01*
X04345Y07895D02*
Y07935D01*
X04315Y07895D02*
X04345D01*
X04315D02*
Y07935D01*
X04345D01*
X0478Y07885D02*
Y07945D01*
X047Y07885D02*
X0478D01*
X0466D02*
X047D01*
X0466D02*
Y07945D01*
X0478D01*
X04735Y07895D02*
Y07935D01*
X04705Y07895D02*
X04735D01*
X04705D02*
Y07935D01*
X04735D01*
X0519Y07885D02*
Y07945D01*
X0511Y07885D02*
X0519D01*
X0507D02*
X0511D01*
X0507D02*
Y07945D01*
X0519D01*
X05145Y07895D02*
Y07935D01*
X05115Y07895D02*
X05145D01*
X05115D02*
Y07935D01*
X05145D01*
X0507Y07815D02*
Y07875D01*
X0515D01*
X0519D01*
Y07815D02*
Y07875D01*
X0507Y07815D02*
X0519D01*
X05115Y07825D02*
Y07865D01*
X05145D01*
Y07825D02*
Y07865D01*
X05115Y07825D02*
X05145D01*
X033486Y078178D02*
Y078778D01*
X034286D01*
X034686D01*
Y078178D02*
Y078778D01*
X033486Y078178D02*
X034686D01*
X033936Y078278D02*
Y078678D01*
X034236D01*
Y078278D02*
Y078678D01*
X033936Y078278D02*
X034236D01*
X0414Y07815D02*
Y07875D01*
X0422D01*
X0426D01*
Y07815D02*
Y07875D01*
X0414Y07815D02*
X0426D01*
X04185Y07825D02*
Y07865D01*
X04215D01*
Y07825D02*
Y07865D01*
X04185Y07825D02*
X04215D01*
X0374Y07815D02*
Y07875D01*
X0382D01*
X0386D01*
Y07815D02*
Y07875D01*
X0374Y07815D02*
X0386D01*
X03785Y07825D02*
Y07865D01*
X03815D01*
Y07825D02*
Y07865D01*
X03785Y07825D02*
X03815D01*
X0453Y07815D02*
Y07875D01*
X0461D01*
X0465D01*
Y07815D02*
Y07875D01*
X0453Y07815D02*
X0465D01*
X04575Y07825D02*
Y07865D01*
X04605D01*
Y07825D02*
Y07865D01*
X04575Y07825D02*
X04605D01*
X04935Y07815D02*
Y07875D01*
X05015D01*
X05055D01*
Y07815D02*
Y07875D01*
X04935Y07815D02*
X05055D01*
X0498Y07825D02*
Y07865D01*
X0501D01*
Y07825D02*
Y07865D01*
X0498Y07825D02*
X0501D01*
D19*
X0707Y041418D02*
X0729D01*
X0707D02*
Y042518D01*
X0729D01*
Y041418D02*
Y042518D01*
D20*
X0167Y08415D02*
Y08545D01*
X0161Y08415D02*
Y08545D01*
X0167D01*
X0161Y08415D02*
X0167D01*
X03215Y08405D02*
Y08535D01*
X03275Y08405D02*
Y08535D01*
X03215Y08405D02*
X03275D01*
X03215Y08535D02*
X03275D01*
X0602Y08395D02*
Y08525D01*
X0608Y08395D02*
Y08525D01*
X0602Y08395D02*
X0608D01*
X0602Y08525D02*
X0608D01*
X0172Y0793D02*
X0185D01*
X0172Y0799D02*
X0185D01*
Y0793D02*
Y0799D01*
X0172Y0793D02*
Y0799D01*
X02405Y07945D02*
X02535D01*
X02405Y08005D02*
X02535D01*
Y07945D02*
Y08005D01*
X02405Y07945D02*
Y08005D01*
X0195Y0794D02*
X0208D01*
X0195Y08D02*
X0208D01*
Y0794D02*
Y08D01*
X0195Y0794D02*
Y08D01*
X02175Y0795D02*
X02305D01*
X02175Y0801D02*
X02305D01*
Y0795D02*
Y0801D01*
X02175Y0795D02*
Y0801D01*
X028908Y0795D02*
X030208D01*
X028908Y0801D02*
X030208D01*
Y0795D02*
Y0801D01*
X028908Y0795D02*
Y0801D01*
X0265Y0795D02*
X0278D01*
X0265Y0801D02*
X0278D01*
Y0795D02*
Y0801D01*
X0265Y0795D02*
Y0801D01*
M02*
