G04*
G04 #@! TF.GenerationSoftware,Altium Limited,Altium Designer,20.1.12 (249)*
G04*
G04 Layer_Color=16711935*
%FSTAX24Y24*%
%MOIN*%
G70*
G04*
G04 #@! TF.SameCoordinates,65647CF5-6095-42B6-9084-E7F1C421F8D5*
G04*
G04*
G04 #@! TF.FilePolarity,Positive*
G04*
G01*
G75*
%ADD18C,0.0039*%
%ADD20C,0.0050*%
D18*
X068725Y055752D02*
G03*
X068725Y055752I-000197J0D01*
G01*
X016213Y084456D02*
Y085144D01*
X016587Y084456D02*
Y085144D01*
X016213D02*
X016587D01*
X016213Y084456D02*
X016587D01*
X032637Y084356D02*
Y085044D01*
X032263Y084356D02*
Y085044D01*
Y084356D02*
X032637D01*
X032263Y085044D02*
X032637D01*
X060687Y084256D02*
Y084944D01*
X060313Y084256D02*
Y084944D01*
Y084256D02*
X060687D01*
X060313Y084944D02*
X060687D01*
X017063Y072856D02*
Y073544D01*
X017437Y072856D02*
Y073544D01*
X017063Y072856D02*
X017437D01*
X017063Y073544D02*
X017437D01*
X071481Y062433D02*
Y063889D01*
X068843Y062433D02*
Y063889D01*
X071481D01*
X068843Y062433D02*
X071481D01*
X071056Y050537D02*
X071744D01*
X071056Y050163D02*
X071744D01*
X071056D02*
Y050537D01*
X071744Y050163D02*
Y050537D01*
X017506Y079787D02*
X018194D01*
X017506Y079413D02*
X018194D01*
Y079787D01*
X017506Y079413D02*
Y079787D01*
X024356Y079937D02*
X025044D01*
X024356Y079563D02*
X025044D01*
Y079937D01*
X024356Y079563D02*
Y079937D01*
X068099Y062717D02*
Y063405D01*
X067725Y062717D02*
Y063405D01*
X068099D01*
X067725Y062717D02*
X068099D01*
X019806Y079887D02*
X020494D01*
X019806Y079513D02*
X020494D01*
Y079887D01*
X019806Y079513D02*
Y079887D01*
X071925Y062417D02*
Y063106D01*
X072299Y062417D02*
Y063106D01*
X071925Y062417D02*
X072299D01*
X071925Y063106D02*
X072299D01*
X022056Y079987D02*
X022744D01*
X022056Y079613D02*
X022744D01*
Y079987D01*
X022056Y079613D02*
Y079987D01*
X029214D02*
X029903D01*
X029214Y079613D02*
X029903D01*
Y079987D01*
X029214Y079613D02*
Y079987D01*
X026806D02*
X027494D01*
X026806Y079613D02*
X027494D01*
Y079987D01*
X026806Y079613D02*
Y079987D01*
X019313Y072856D02*
Y073544D01*
X019687Y072856D02*
Y073544D01*
X019313Y072856D02*
X019687D01*
X019313Y073544D02*
X019687D01*
X023913Y072956D02*
Y073644D01*
X024287Y072956D02*
Y073644D01*
X023913Y072956D02*
X024287D01*
X023913Y073644D02*
X024287D01*
X021513Y072906D02*
Y073594D01*
X021887Y072906D02*
Y073594D01*
X021513Y072906D02*
X021887D01*
X021513Y073594D02*
X021887D01*
X028613Y073006D02*
Y073694D01*
X028987Y073006D02*
Y073694D01*
X028613Y073006D02*
X028987D01*
X028613Y073694D02*
X028987D01*
X026363Y073006D02*
Y073694D01*
X026737Y073006D02*
Y073694D01*
X026363Y073006D02*
X026737D01*
X026363Y073694D02*
X026737D01*
X068087Y077206D02*
Y077894D01*
X067713Y077206D02*
Y077894D01*
X068087D01*
X067713Y077206D02*
X068087D01*
X069337D02*
Y077894D01*
X068963Y077206D02*
Y077894D01*
X069337D01*
X068963Y077206D02*
X069337D01*
X065587D02*
Y077894D01*
X065213Y077206D02*
Y077894D01*
X065587D01*
X065213Y077206D02*
X065587D01*
X066887Y077156D02*
Y077844D01*
X066513Y077156D02*
Y077844D01*
X066887D01*
X066513Y077156D02*
X066887D01*
X064287Y077206D02*
Y077894D01*
X063913Y077206D02*
Y077894D01*
X064287D01*
X063913Y077206D02*
X064287D01*
X068902Y055378D02*
Y0603D01*
X063981Y055378D02*
Y0603D01*
Y055378D02*
X068902D01*
X063981Y0603D02*
X068902D01*
X034906Y052937D02*
X035594D01*
X034906Y052563D02*
X035594D01*
X034906D02*
Y052937D01*
X035594Y052563D02*
Y052937D01*
X057987Y060106D02*
Y060794D01*
X057613Y060106D02*
Y060794D01*
X057987D01*
X057613Y060106D02*
X057987D01*
X056506Y060137D02*
X057194D01*
X056506Y059763D02*
X057194D01*
X056506D02*
Y060137D01*
X057194Y059763D02*
Y060137D01*
D20*
X07309Y04725D02*
G03*
X07309Y04725I-00124J0D01*
G01*
X075252Y063011D02*
G03*
X075252Y063011I-00124J0D01*
G01*
X067302D02*
G03*
X067302Y063011I-00124J0D01*
G01*
X06249Y05575D02*
G03*
X06249Y05575I-00124J0D01*
G01*
X070551Y048549D02*
X073149D01*
X070551Y045951D02*
Y048549D01*
Y045951D02*
X073149D01*
Y048549D01*
X075311Y061712D02*
Y06431D01*
X072713D02*
X075311D01*
X072713Y061712D02*
Y06431D01*
Y061712D02*
X075311D01*
X064763D02*
Y06431D01*
Y061712D02*
X067361D01*
Y06431D01*
X064763D02*
X067361D01*
X059951Y054451D02*
Y057049D01*
Y054451D02*
X062549D01*
Y057049D01*
X059951D02*
X062549D01*
M02*
