G04*
G04 #@! TF.GenerationSoftware,Altium Limited,Altium Designer,20.1.12 (249)*
G04*
G04 Layer_Color=128*
%FSTAX24Y24*%
%MOIN*%
G70*
G04*
G04 #@! TF.SameCoordinates,50E87493-BE94-4217-AE32-DCF7016E3123*
G04*
G04*
G04 #@! TF.FilePolarity,Positive*
G04*
G01*
G75*
%ADD19C,0.0020*%
D19*
X066733Y0157D02*
X067167D01*
X06695Y015483D02*
Y015917D01*
X066733Y0147D02*
X067167D01*
X06695Y014483D02*
Y014917D01*
X066733Y0137D02*
X067167D01*
X06695Y013483D02*
Y013917D01*
X066733Y0127D02*
X067167D01*
X06695Y012483D02*
Y012917D01*
X067733Y0127D02*
X068167D01*
X06795Y012483D02*
Y012917D01*
X067733Y0137D02*
X068167D01*
X06795Y013483D02*
Y013917D01*
X067733Y0147D02*
X068167D01*
X06795Y014483D02*
Y014917D01*
X067733Y0157D02*
X068167D01*
X06795Y015483D02*
Y015917D01*
X048783Y0121D02*
X049217D01*
X049Y011883D02*
Y012317D01*
X048783Y0131D02*
X049217D01*
X049Y012883D02*
Y013317D01*
X048783Y0141D02*
X049217D01*
X049Y013883D02*
Y014317D01*
X048783Y0151D02*
X049217D01*
X049Y014883D02*
Y015317D01*
X047783Y0151D02*
X048217D01*
X048Y014883D02*
Y015317D01*
X047783Y0141D02*
X048217D01*
X048Y013883D02*
Y014317D01*
X047783Y0131D02*
X048217D01*
X048Y012883D02*
Y013317D01*
X047783Y0121D02*
X048217D01*
X048Y011883D02*
Y012317D01*
X011462Y032218D02*
X011862D01*
X011662Y032018D02*
Y032418D01*
X010462Y039218D02*
X010862D01*
X010662Y039018D02*
Y039418D01*
X011462Y039218D02*
X011862D01*
X011662Y039018D02*
Y039418D01*
X010462Y038218D02*
X010862D01*
X010662Y038018D02*
Y038418D01*
X011462Y038218D02*
X011862D01*
X011662Y038018D02*
Y038418D01*
X010462Y037218D02*
X010862D01*
X010662Y037018D02*
Y037418D01*
X011462Y037218D02*
X011862D01*
X011662Y037018D02*
Y037418D01*
X010462Y036218D02*
X010862D01*
X010662Y036018D02*
Y036418D01*
X011462Y036218D02*
X011862D01*
X011662Y036018D02*
Y036418D01*
X010462Y035218D02*
X010862D01*
X010662Y035018D02*
Y035418D01*
X011462Y035218D02*
X011862D01*
X011662Y035018D02*
Y035418D01*
X010462Y034218D02*
X010862D01*
X010662Y034018D02*
Y034418D01*
X011462Y034218D02*
X011862D01*
X011662Y034018D02*
Y034418D01*
X010462Y033218D02*
X010862D01*
X010662Y033018D02*
Y033418D01*
X011462Y033218D02*
X011862D01*
X011662Y033018D02*
Y033418D01*
X010462Y032218D02*
X010862D01*
X010662Y032018D02*
Y032418D01*
X010462Y029218D02*
X010862D01*
X010662Y029018D02*
Y029418D01*
X010462Y028218D02*
X010862D01*
X010662Y028018D02*
Y028418D01*
X011462Y028218D02*
X011862D01*
X011662Y028018D02*
Y028418D01*
X011462Y029218D02*
X011862D01*
X011662Y029018D02*
Y029418D01*
X011462Y030218D02*
X011862D01*
X011662Y030018D02*
Y030418D01*
X011462Y027218D02*
X011862D01*
X011662Y027018D02*
Y027418D01*
X010462Y031218D02*
X010862D01*
X010662Y031018D02*
Y031418D01*
X011462Y031218D02*
X011862D01*
X011662Y031018D02*
Y031418D01*
X010462Y027218D02*
X010862D01*
X010662Y027018D02*
Y027418D01*
X010462Y030218D02*
X010862D01*
X010662Y030018D02*
Y030418D01*
X021595Y0103D02*
X021949D01*
X021772Y010123D02*
Y010477D01*
X018868Y011418D02*
X019222D01*
X019045Y011241D02*
Y011595D01*
X019413Y0103D02*
X019768D01*
X019591Y010123D02*
Y010477D01*
X021049Y011418D02*
X021404D01*
X021226Y011241D02*
Y011595D01*
X017778Y011418D02*
X018132D01*
X017955Y011241D02*
Y011595D01*
X018323Y0103D02*
X018677D01*
X0185Y010123D02*
Y010477D01*
X019959Y011418D02*
X020313D01*
X020136Y011241D02*
Y011595D01*
X020504Y0103D02*
X020858D01*
X020681Y010123D02*
Y010477D01*
X02214Y011418D02*
X022494D01*
X022317Y011241D02*
Y011595D01*
X014567Y010859D02*
X015866D01*
X015217Y010209D02*
Y011509D01*
X024406Y010859D02*
X025705D01*
X025055Y010209D02*
Y011509D01*
X053959Y011218D02*
X054388D01*
X054174Y011004D02*
Y011433D01*
X061588Y01122D02*
X062017D01*
X061803Y011006D02*
Y011435D01*
X061048Y0101D02*
X061477D01*
X061262Y009885D02*
Y010315D01*
X060502Y011218D02*
X060931D01*
X060717Y011004D02*
Y011433D01*
X059957Y0101D02*
X060386D01*
X060172Y009885D02*
Y010315D01*
X059412Y011218D02*
X059841D01*
X059626Y011004D02*
Y011433D01*
X058867Y0101D02*
X059296D01*
X059081Y009885D02*
Y010315D01*
X058321Y011218D02*
X05875D01*
X058536Y011004D02*
Y011433D01*
X057776Y0101D02*
X058205D01*
X057991Y009885D02*
Y010315D01*
X057231Y011218D02*
X05766D01*
X057445Y011004D02*
Y011433D01*
X056685Y0101D02*
X057115D01*
X0569Y009885D02*
Y010315D01*
X05614Y011218D02*
X056569D01*
X056355Y011004D02*
Y011433D01*
X055595Y0101D02*
X056024D01*
X055809Y009885D02*
Y010315D01*
X05505Y011218D02*
X055479D01*
X055264Y011004D02*
Y011433D01*
X054504Y0101D02*
X054933D01*
X054719Y009885D02*
Y010315D01*
X063924Y010659D02*
X065176D01*
X06455Y010033D02*
Y011285D01*
X050806Y010659D02*
X052057D01*
X051431Y010033D02*
Y011285D01*
X034278Y011318D02*
X034707D01*
X034493Y011104D02*
Y011533D01*
X041907Y01132D02*
X042336D01*
X042122Y011106D02*
Y011535D01*
X041367Y0102D02*
X041796D01*
X041581Y009985D02*
Y010415D01*
X040821Y011318D02*
X04125D01*
X041036Y011104D02*
Y011533D01*
X040276Y0102D02*
X040705D01*
X040491Y009985D02*
Y010415D01*
X039731Y011318D02*
X04016D01*
X039945Y011104D02*
Y011533D01*
X039185Y0102D02*
X039615D01*
X0394Y009985D02*
Y010415D01*
X03864Y011318D02*
X039069D01*
X038855Y011104D02*
Y011533D01*
X038095Y0102D02*
X038524D01*
X038309Y009985D02*
Y010415D01*
X03755Y011318D02*
X037979D01*
X037764Y011104D02*
Y011533D01*
X037004Y0102D02*
X037433D01*
X037219Y009985D02*
Y010415D01*
X036459Y011318D02*
X036888D01*
X036674Y011104D02*
Y011533D01*
X035914Y0102D02*
X036343D01*
X036128Y009985D02*
Y010415D01*
X035368Y011318D02*
X035798D01*
X035583Y011104D02*
Y011533D01*
X034823Y0102D02*
X035252D01*
X035038Y009985D02*
Y010415D01*
X044243Y010759D02*
X045494D01*
X044868Y010133D02*
Y011385D01*
X031124Y010759D02*
X032376D01*
X03175Y010133D02*
Y011385D01*
X06169Y0196D02*
X06201D01*
X06185Y01944D02*
Y01976D01*
X06069Y0196D02*
X06101D01*
X06085Y01944D02*
Y01976D01*
X05969Y0196D02*
X06001D01*
X05985Y01944D02*
Y01976D01*
X05239Y0196D02*
X05271D01*
X05255Y01944D02*
Y01976D01*
X05139Y0196D02*
X05171D01*
X05155Y01944D02*
Y01976D01*
X05039Y0196D02*
X05071D01*
X05055Y01944D02*
Y01976D01*
X05854Y0196D02*
X05886D01*
X0587Y01944D02*
Y01976D01*
X05754Y0196D02*
X05786D01*
X0577Y01944D02*
Y01976D01*
X05654Y0196D02*
X05686D01*
X0567Y01944D02*
Y01976D01*
X06494Y0196D02*
X06526D01*
X0651Y01944D02*
Y01976D01*
X06394Y0196D02*
X06426D01*
X0641Y01944D02*
Y01976D01*
X06294Y0196D02*
X06326D01*
X0631Y01944D02*
Y01976D01*
X05544Y0196D02*
X05576D01*
X0556Y01944D02*
Y01976D01*
X05444Y0196D02*
X05476D01*
X0546Y01944D02*
Y01976D01*
X05344Y0196D02*
X05376D01*
X0536Y01944D02*
Y01976D01*
X028785Y015213D02*
X029185D01*
X028985Y015013D02*
Y015413D01*
X028785Y014213D02*
X029185D01*
X028985Y014013D02*
Y014413D01*
X0316Y0245D02*
X032D01*
X0318Y0243D02*
Y0247D01*
X0306Y0245D02*
X031D01*
X0308Y0243D02*
Y0247D01*
X0344Y0245D02*
X0348D01*
X0346Y0243D02*
Y0247D01*
X0334Y0245D02*
X0338D01*
X0336Y0243D02*
Y0247D01*
X0374Y0245D02*
X0378D01*
X0376Y0243D02*
Y0247D01*
X0364Y0245D02*
X0368D01*
X0366Y0243D02*
Y0247D01*
X0403Y0245D02*
X0407D01*
X0405Y0243D02*
Y0247D01*
X0393Y0245D02*
X0397D01*
X0395Y0243D02*
Y0247D01*
X0431Y0245D02*
X0435D01*
X0433Y0243D02*
Y0247D01*
X0421Y0245D02*
X0425D01*
X0423Y0243D02*
Y0247D01*
X0457Y0245D02*
X0461D01*
X0459Y0243D02*
Y0247D01*
X0447Y0245D02*
X0451D01*
X0449Y0243D02*
Y0247D01*
X06345Y02825D02*
X06385D01*
X06365Y02805D02*
Y02845D01*
X06445Y02825D02*
X06485D01*
X06465Y02805D02*
Y02845D01*
X0602Y02825D02*
X0606D01*
X0604Y02805D02*
Y02845D01*
X0612Y02825D02*
X0616D01*
X0614Y02805D02*
Y02845D01*
X05705Y02825D02*
X05745D01*
X05725Y02805D02*
Y02845D01*
X05805Y02825D02*
X05845D01*
X05825Y02805D02*
Y02845D01*
X0541Y0284D02*
X0545D01*
X0543Y0282D02*
Y0286D01*
X0551Y0284D02*
X0555D01*
X0553Y0282D02*
Y0286D01*
X05075Y02835D02*
X05115D01*
X05095Y02815D02*
Y02855D01*
X05175Y02835D02*
X05215D01*
X05195Y02815D02*
Y02855D01*
X023182Y02075D02*
X023418D01*
X0233Y020632D02*
Y020868D01*
X019732Y02075D02*
X019968D01*
X01985Y020632D02*
Y020868D01*
X016532Y0208D02*
X016768D01*
X01665Y020682D02*
Y020918D01*
X011582Y0196D02*
X011818D01*
X0117Y019482D02*
Y019718D01*
X00801Y02825D02*
X00829D01*
X00815Y02811D02*
Y02839D01*
X01006Y02065D02*
X01034D01*
X0102Y02051D02*
Y02079D01*
X02481Y0207D02*
X02509D01*
X02495Y02056D02*
Y02084D01*
X016422Y016176D02*
X016702D01*
X016562Y016036D02*
Y016316D01*
X02286Y01615D02*
X02314D01*
X023Y01601D02*
Y01629D01*
X01961Y01625D02*
X01989D01*
X01975Y01611D02*
Y01639D01*
X016532Y02965D02*
X016768D01*
X01665Y029532D02*
Y029768D01*
X018282Y02935D02*
X018518D01*
X0184Y029232D02*
Y029468D01*
X016582Y0305D02*
X016818D01*
X0167Y030382D02*
Y030618D01*
X018082Y03045D02*
X018318D01*
X0182Y030332D02*
Y030568D01*
X02596Y016174D02*
X02624D01*
X0261Y016034D02*
Y016314D01*
X01831Y0204D02*
X01859D01*
X01845Y02026D02*
Y02054D01*
X02161Y0204D02*
X02189D01*
X02175Y02026D02*
Y02054D01*
X04476Y0406D02*
X04504D01*
X0449Y04046D02*
Y04074D01*
X00696Y0424D02*
X00724D01*
X0071Y04226D02*
Y04254D01*
X030445Y02305D02*
X030725D01*
X030585Y02291D02*
Y02319D01*
X01726Y0292D02*
X01754D01*
X0174Y02906D02*
Y02934D01*
X04516Y01415D02*
X04544D01*
X0453Y01401D02*
Y01429D01*
X04236Y01415D02*
X04264D01*
X0425Y01401D02*
Y01429D01*
X03371Y0141D02*
X03399D01*
X03385Y01396D02*
Y01424D01*
X03951Y0141D02*
X03979D01*
X03965Y01396D02*
Y01424D01*
X03671Y0141D02*
X03699D01*
X03685Y01396D02*
Y01424D01*
X04166Y02305D02*
X04194D01*
X0418Y02291D02*
Y02319D01*
X03896Y02305D02*
X03924D01*
X0391Y02291D02*
Y02319D01*
X03621Y023D02*
X03649D01*
X03635Y02286D02*
Y02314D01*
X03321Y02295D02*
X03349D01*
X03335Y02281D02*
Y02309D01*
X04431Y023D02*
X04459D01*
X04445Y02286D02*
Y02314D01*
X05601Y01295D02*
X05629D01*
X05615Y01281D02*
Y01309D01*
X05286Y0209D02*
X05314D01*
X053Y02076D02*
Y02104D01*
X05603Y020795D02*
X05631D01*
X05617Y020655D02*
Y020935D01*
X06591Y0203D02*
X06619D01*
X06605Y02016D02*
Y02044D01*
X061842Y013618D02*
X062122D01*
X061982Y013478D02*
Y013758D01*
X06056Y01515D02*
X06084D01*
X0607Y01501D02*
Y01529D01*
X05876Y01445D02*
X05904D01*
X0589Y01431D02*
Y01459D01*
X05916Y0207D02*
X05944D01*
X0593Y02056D02*
Y02084D01*
X06231Y02055D02*
X06259D01*
X06245Y02041D02*
Y02069D01*
X06381Y015625D02*
X06409D01*
X06395Y015485D02*
Y015765D01*
X005787Y01325D02*
X007362D01*
X006575Y012463D02*
Y014037D01*
X069563Y01325D02*
X071137D01*
X07035Y012463D02*
Y014037D01*
X005787Y04915D02*
X007362D01*
X006575Y048363D02*
Y049937D01*
X069563Y0491D02*
X071137D01*
X07035Y048313D02*
Y049887D01*
M02*
