G04*
G04 #@! TF.GenerationSoftware,Altium Limited,Altium Designer,20.1.12 (249)*
G04*
G04 Layer_Color=16711935*
%FSTAX24Y24*%
%MOIN*%
G70*
G04*
G04 #@! TF.SameCoordinates,50E87493-BE94-4217-AE32-DCF7016E3123*
G04*
G04*
G04 #@! TF.FilePolarity,Positive*
G04*
G01*
G75*
%ADD16C,0.0039*%
D16*
X024247Y017743D02*
G03*
X024247Y017743I-000197J0D01*
G01*
X020997D02*
G03*
X020997Y017743I-000197J0D01*
G01*
X017747D02*
G03*
X017747Y017743I-000197J0D01*
G01*
X01446D02*
G03*
X01446Y017743I-000197J0D01*
G01*
X024256Y016087D02*
X024944D01*
X024256Y015713D02*
X024944D01*
X024256D02*
Y016087D01*
X024944Y015713D02*
Y016087D01*
X026063Y017156D02*
Y017844D01*
X026437Y017156D02*
Y017844D01*
X026063Y017156D02*
X026437D01*
X026063Y017844D02*
X026437D01*
X023696Y017389D02*
X025704D01*
X023696Y018963D02*
X025704D01*
X023696Y017389D02*
Y018963D01*
X025704Y017389D02*
Y018963D01*
X058713Y015256D02*
Y015944D01*
X059087Y015256D02*
Y015944D01*
X058713Y015256D02*
X059087D01*
X058713Y015944D02*
X059087D01*
X046037Y021456D02*
Y022144D01*
X045663Y021456D02*
Y022144D01*
X046037D01*
X045663Y021456D02*
X046037D01*
X043387D02*
Y022144D01*
X043013Y021456D02*
Y022144D01*
X043387D01*
X043013Y021456D02*
X043387D01*
X040737D02*
Y022144D01*
X040363Y021456D02*
Y022144D01*
X040737D01*
X040363Y021456D02*
X040737D01*
X037887D02*
Y022144D01*
X037513Y021456D02*
Y022144D01*
X037887D01*
X037513Y021456D02*
X037887D01*
X035087D02*
Y022144D01*
X034713Y021456D02*
Y022144D01*
X035087D01*
X034713Y021456D02*
X035087D01*
X032087D02*
Y022144D01*
X031713Y021456D02*
Y022144D01*
X032087D01*
X031713Y021456D02*
X032087D01*
X031406Y015737D02*
X032094D01*
X031406Y015363D02*
X032094D01*
X031406D02*
Y015737D01*
X032094Y015363D02*
Y015737D01*
X034256D02*
X034944D01*
X034256Y015363D02*
X034944D01*
X034256D02*
Y015737D01*
X034944Y015363D02*
Y015737D01*
X037156Y015687D02*
X037844D01*
X037156Y015313D02*
X037844D01*
X037156D02*
Y015687D01*
X037844Y015313D02*
Y015687D01*
X039806Y015737D02*
X040494D01*
X039806Y015363D02*
X040494D01*
X039806D02*
Y015737D01*
X040494Y015363D02*
Y015737D01*
X042656Y015637D02*
X043344D01*
X042656Y015263D02*
X043344D01*
X042656D02*
Y015637D01*
X043344Y015263D02*
Y015637D01*
X051687Y008856D02*
Y009544D01*
X051313Y008856D02*
Y009544D01*
Y008856D02*
X051687D01*
X051313Y009544D02*
X051687D01*
X031563Y008856D02*
Y009544D01*
X031937Y008856D02*
Y009544D01*
X031563D02*
X031937D01*
X031563Y008856D02*
X031937D01*
X024863Y008956D02*
Y009644D01*
X025237Y008956D02*
Y009644D01*
X024863D02*
X025237D01*
X024863Y008956D02*
X025237D01*
X061963Y015256D02*
Y015944D01*
X062337Y015256D02*
Y015944D01*
X061963Y015256D02*
X062337D01*
X061963Y015944D02*
X062337D01*
X05105Y026063D02*
X051739D01*
X05105Y026437D02*
X051739D01*
Y026063D02*
Y026437D01*
X05105Y026063D02*
Y026437D01*
X054356Y026063D02*
X055044D01*
X054356Y026437D02*
X055044D01*
Y026063D02*
Y026437D01*
X054356Y026063D02*
Y026437D01*
X065213Y015256D02*
Y015944D01*
X065587Y015256D02*
Y015944D01*
X065213Y015256D02*
X065587D01*
X065213Y015944D02*
X065587D01*
X055663Y015506D02*
Y016194D01*
X056037Y015506D02*
Y016194D01*
X055663Y015506D02*
X056037D01*
X055663Y016194D02*
X056037D01*
X063706Y026113D02*
X064394D01*
X063706Y026487D02*
X064394D01*
Y026113D02*
Y026487D01*
X063706Y026113D02*
Y026487D01*
X060556Y026063D02*
X061244D01*
X060556Y026437D02*
X061244D01*
Y026063D02*
Y026437D01*
X060556Y026063D02*
Y026437D01*
X057306Y026063D02*
X057994D01*
X057306Y026437D02*
X057994D01*
Y026063D02*
Y026437D01*
X057306Y026063D02*
Y026437D01*
X052463Y015406D02*
Y016094D01*
X052837Y015406D02*
Y016094D01*
X052463Y015406D02*
X052837D01*
X052463Y016094D02*
X052837D01*
X045356Y015787D02*
X046044D01*
X045356Y015413D02*
X046044D01*
X045356D02*
Y015787D01*
X046044Y015413D02*
Y015787D01*
X022813Y017156D02*
Y017844D01*
X023187Y017156D02*
Y017844D01*
X022813Y017156D02*
X023187D01*
X022813Y017844D02*
X023187D01*
X021056Y016037D02*
X021744D01*
X021056Y015663D02*
X021744D01*
X021056D02*
Y016037D01*
X021744Y015663D02*
Y016037D01*
X017906D02*
X018594D01*
X017906Y015663D02*
X018594D01*
X017906D02*
Y016037D01*
X018594Y015663D02*
Y016037D01*
X014618Y016213D02*
X015307D01*
X014618Y015839D02*
X015307D01*
X014618D02*
Y016213D01*
X015307Y015839D02*
Y016213D01*
X019563Y017156D02*
Y017844D01*
X019937Y017156D02*
Y017844D01*
X019563Y017156D02*
X019937D01*
X019563Y017844D02*
X019937D01*
X016325Y017281D02*
Y01797D01*
X016699Y017281D02*
Y01797D01*
X016325Y017281D02*
X016699D01*
X016325Y01797D02*
X016699D01*
X020446Y017389D02*
X022454D01*
X020446Y018963D02*
X022454D01*
X020446Y017389D02*
Y018963D01*
X022454Y017389D02*
Y018963D01*
X017196Y017389D02*
X019204D01*
X017196Y018963D02*
X019204D01*
X017196Y017389D02*
Y018963D01*
X019204Y017389D02*
Y018963D01*
X013908Y017389D02*
X015916D01*
X013908Y018963D02*
X015916D01*
X013908Y017389D02*
Y018963D01*
X015916Y017389D02*
Y018963D01*
M02*
