G04*
G04 #@! TF.GenerationSoftware,Altium Limited,Altium Designer,20.1.12 (249)*
G04*
G04 Layer_Physical_Order=2*
G04 Layer_Color=16711680*
%FSTAX24Y24*%
%MOIN*%
G70*
G04*
G04 #@! TF.SameCoordinates,50E87493-BE94-4217-AE32-DCF7016E3123*
G04*
G04*
G04 #@! TF.FilePolarity,Positive*
G04*
G01*
G75*
%ADD22C,0.0100*%
%ADD28R,0.0433X0.0472*%
%ADD56C,0.0665*%
%ADD63C,0.0200*%
%ADD64C,0.0200*%
%ADD65C,0.0500*%
%ADD66C,0.0300*%
%ADD67R,0.0709X0.0709*%
%ADD68C,0.0709*%
%ADD69C,0.0700*%
%ADD70R,0.0700X0.0700*%
%ADD71R,0.0665X0.0665*%
%ADD72C,0.1874*%
%ADD73C,0.0665*%
%ADD74C,0.1890*%
%ADD75O,0.0660X0.1000*%
%ADD76C,0.0394*%
%ADD77C,0.0500*%
%ADD78C,0.2362*%
G36*
X056362Y020635D02*
X056341Y020609D01*
X056305Y020558D01*
X05629Y020534D01*
X056278Y020511D01*
X056268Y020489D01*
X05626Y020467D01*
X056254Y020447D01*
X056251Y020427D01*
X05625Y020408D01*
X05605Y020426D01*
X056049Y020446D01*
X056047Y020467D01*
X056042Y020489D01*
X056036Y020511D01*
X056028Y020533D01*
X056019Y020557D01*
X056007Y02058D01*
X055979Y02063D01*
X055963Y020655D01*
X056362Y020635D01*
D02*
G37*
G36*
X059481Y020524D02*
X059449Y020473D01*
X059436Y020449D01*
X059425Y020426D01*
X059416Y020404D01*
X059409Y020382D01*
X059404Y020361D01*
X059401Y02034D01*
X0594Y020321D01*
X0592D01*
X059199Y02034D01*
X059196Y020361D01*
X059191Y020382D01*
X059184Y020404D01*
X059175Y020426D01*
X059164Y020449D01*
X059151Y020473D01*
X059119Y020524D01*
X0591Y02055D01*
X0595D01*
X059481Y020524D01*
D02*
G37*
G36*
X062631Y020374D02*
X062599Y020323D01*
X062586Y020299D01*
X062575Y020276D01*
X062566Y020254D01*
X062559Y020232D01*
X062554Y020211D01*
X062551Y02019D01*
X06255Y020171D01*
X06235D01*
X062349Y02019D01*
X062346Y020211D01*
X062341Y020232D01*
X062334Y020254D01*
X062325Y020276D01*
X062314Y020299D01*
X062301Y020323D01*
X062269Y020374D01*
X06225Y0204D01*
X06265D01*
X062631Y020374D01*
D02*
G37*
G36*
X066229Y020126D02*
X066205Y0201D01*
X066163Y02005D01*
X066147Y020027D01*
X066132Y020004D01*
X066121Y019982D01*
X066112Y019962D01*
X066105Y019942D01*
X066101Y019923D01*
X0661Y019905D01*
X0659Y01995D01*
X065899Y019972D01*
X065897Y019994D01*
X065894Y020016D01*
X065889Y020038D01*
X065883Y020061D01*
X065867Y020106D01*
X065857Y020129D01*
X065833Y020176D01*
X066229Y020126D01*
D02*
G37*
G36*
X070859Y04485D02*
X070859Y0241D01*
X046984D01*
X046913Y019D01*
X0272Y019D01*
X0272Y0084D01*
X0064D01*
Y011762D01*
X006516Y011869D01*
X006575Y011865D01*
X006792Y011882D01*
X007003Y011932D01*
X007204Y012016D01*
X007389Y012129D01*
X007554Y01227D01*
X007696Y012436D01*
X007809Y012621D01*
X007892Y012822D01*
X007943Y013033D01*
X00796Y01325D01*
X007943Y013467D01*
X007892Y013678D01*
X007809Y013879D01*
X007696Y014064D01*
X007554Y01423D01*
X007389Y014371D01*
X007204Y014484D01*
X007003Y014568D01*
X006792Y014618D01*
X006575Y014635D01*
X006516Y014631D01*
X0064Y014738D01*
Y04485D01*
X070859Y04485D01*
D02*
G37*
G36*
X064342Y019205D02*
X064263Y019092D01*
X064244Y019058D01*
X064228Y019026D01*
X064216Y018995D01*
X064207Y018967D01*
X064202Y018941D01*
X0642Y018917D01*
X064D01*
X063998Y018941D01*
X063993Y018967D01*
X063984Y018995D01*
X063972Y019026D01*
X063956Y019058D01*
X063937Y019092D01*
X063888Y019165D01*
X063858Y019205D01*
X063825Y019246D01*
X064375D01*
X064342Y019205D01*
D02*
G37*
G36*
X061092D02*
X061013Y019092D01*
X060994Y019058D01*
X060978Y019026D01*
X060966Y018995D01*
X060957Y018967D01*
X060952Y018941D01*
X06095Y018917D01*
X06075D01*
X060748Y018941D01*
X060743Y018967D01*
X060734Y018995D01*
X060722Y019026D01*
X060706Y019058D01*
X060687Y019092D01*
X060638Y019165D01*
X060608Y019205D01*
X060575Y019246D01*
X061125D01*
X061092Y019205D01*
D02*
G37*
G36*
X057942D02*
X057863Y019092D01*
X057844Y019058D01*
X057828Y019026D01*
X057816Y018995D01*
X057807Y018967D01*
X057802Y018941D01*
X0578Y018917D01*
X0576D01*
X057598Y018941D01*
X057593Y018967D01*
X057584Y018995D01*
X057572Y019026D01*
X057556Y019058D01*
X057537Y019092D01*
X057488Y019165D01*
X057458Y019205D01*
X057425Y019246D01*
X057975D01*
X057942Y019205D01*
D02*
G37*
G36*
X054842D02*
X054763Y019092D01*
X054744Y019058D01*
X054728Y019026D01*
X054716Y018995D01*
X054707Y018967D01*
X054702Y018941D01*
X0547Y018917D01*
X0545D01*
X054498Y018941D01*
X054493Y018967D01*
X054484Y018995D01*
X054472Y019026D01*
X054456Y019058D01*
X054437Y019092D01*
X054388Y019165D01*
X054358Y019205D01*
X054325Y019246D01*
X054875D01*
X054842Y019205D01*
D02*
G37*
G36*
X051792D02*
X051713Y019092D01*
X051694Y019058D01*
X051678Y019026D01*
X051666Y018995D01*
X051657Y018967D01*
X051652Y018941D01*
X05165Y018917D01*
X05145D01*
X051448Y018941D01*
X051443Y018967D01*
X051434Y018995D01*
X051422Y019026D01*
X051406Y019058D01*
X051387Y019092D01*
X051338Y019165D01*
X051308Y019205D01*
X051275Y019246D01*
X051825D01*
X051792Y019205D01*
D02*
G37*
G36*
X064289Y015823D02*
X064276Y015808D01*
X064263Y015792D01*
X064252Y015773D01*
X064242Y015753D01*
X064232Y015731D01*
X064223Y015707D01*
X064216Y01568D01*
X064203Y015622D01*
X064198Y01559D01*
X063915Y015873D01*
X063947Y015878D01*
X064005Y015891D01*
X064031Y015899D01*
X064055Y015907D01*
X064078Y015917D01*
X064098Y015928D01*
X064116Y015939D01*
X064133Y015951D01*
X064147Y015964D01*
X064289Y015823D01*
D02*
G37*
G36*
X061039Y015347D02*
X061026Y015333D01*
X061013Y015316D01*
X061002Y015298D01*
X060992Y015278D01*
X060982Y015255D01*
X060973Y015231D01*
X060966Y015205D01*
X060953Y015147D01*
X060948Y015115D01*
X060665Y015398D01*
X060697Y015403D01*
X060755Y015416D01*
X060781Y015423D01*
X060805Y015432D01*
X060828Y015442D01*
X060848Y015452D01*
X060866Y015463D01*
X060883Y015476D01*
X060897Y015489D01*
X061039Y015347D01*
D02*
G37*
G36*
X068198Y01544D02*
X068096Y01528D01*
X068079Y015248D01*
X068067Y015218D01*
X06806Y0152D01*
X068067Y015182D01*
X068079Y015152D01*
X068096Y01512D01*
X06814Y015046D01*
X068198Y01496D01*
X068233Y014913D01*
X067667D01*
X067702Y01496D01*
X067804Y01512D01*
X067821Y015152D01*
X067833Y015182D01*
X06784Y0152D01*
X067833Y015218D01*
X067821Y015248D01*
X067804Y01528D01*
X06776Y015354D01*
X067702Y01544D01*
X067667Y015487D01*
X068233D01*
X068198Y01544D01*
D02*
G37*
G36*
X059001Y01481D02*
X059004Y014789D01*
X059009Y014768D01*
X059016Y014746D01*
X059025Y014724D01*
X059036Y014701D01*
X059049Y014677D01*
X059081Y014626D01*
X0591Y0146D01*
X0587D01*
X058719Y014626D01*
X058751Y014677D01*
X058764Y014701D01*
X058775Y014724D01*
X058784Y014746D01*
X058791Y014768D01*
X058796Y014789D01*
X058799Y01481D01*
X0588Y014829D01*
X059D01*
X059001Y01481D01*
D02*
G37*
G36*
X066737Y014417D02*
X06669Y014452D01*
X06653Y014554D01*
X066498Y014571D01*
X066468Y014583D01*
X066442Y014593D01*
X066418Y014598D01*
X066397Y0146D01*
Y0148D01*
X066418Y014802D01*
X066442Y014807D01*
X066468Y014816D01*
X066498Y014829D01*
X06653Y014846D01*
X066604Y01489D01*
X06669Y014949D01*
X066737Y014983D01*
Y014417D01*
D02*
G37*
G36*
X068198Y01444D02*
X068096Y01428D01*
X068079Y014248D01*
X068067Y014218D01*
X06806Y0142D01*
X068067Y014182D01*
X068079Y014152D01*
X068096Y01412D01*
X06814Y014046D01*
X068198Y01396D01*
X068233Y013913D01*
X067667D01*
X067702Y01396D01*
X067804Y01412D01*
X067821Y014152D01*
X067833Y014182D01*
X06784Y0142D01*
X067833Y014218D01*
X067821Y014248D01*
X067804Y01428D01*
X06776Y014354D01*
X067702Y01444D01*
X067667Y014487D01*
X068233D01*
X068198Y01444D01*
D02*
G37*
G36*
X062321Y013815D02*
X062308Y013801D01*
X062296Y013784D01*
X062284Y013766D01*
X062274Y013745D01*
X062264Y013723D01*
X062256Y013699D01*
X062248Y013673D01*
X062235Y013615D01*
X06223Y013583D01*
X061947Y013865D01*
X061979Y01387D01*
X062037Y013883D01*
X062063Y013891D01*
X062087Y0139D01*
X06211Y013909D01*
X06213Y01392D01*
X062149Y013931D01*
X062165Y013943D01*
X06218Y013957D01*
X062321Y013815D01*
D02*
G37*
G36*
X066737Y013417D02*
X06669Y013451D01*
X06653Y013554D01*
X066498Y013571D01*
X066468Y013584D01*
X066442Y013593D01*
X066418Y013598D01*
X066397Y0136D01*
Y0138D01*
X066418Y013802D01*
X066442Y013807D01*
X066468Y013816D01*
X066498Y013829D01*
X06653Y013846D01*
X066604Y01389D01*
X06669Y013949D01*
X066737Y013983D01*
Y013417D01*
D02*
G37*
G36*
X056251Y01331D02*
X056254Y013289D01*
X056259Y013268D01*
X056266Y013246D01*
X056275Y013224D01*
X056286Y013201D01*
X056299Y013177D01*
X056331Y013126D01*
X05635Y0131D01*
X05595D01*
X055969Y013126D01*
X056001Y013177D01*
X056014Y013201D01*
X056025Y013224D01*
X056034Y013246D01*
X056041Y013268D01*
X056046Y013289D01*
X056049Y01331D01*
X05605Y013329D01*
X05625D01*
X056251Y01331D01*
D02*
G37*
G36*
X068198Y01344D02*
X068096Y01328D01*
X068079Y013248D01*
X068067Y013218D01*
X06806Y0132D01*
X068067Y013182D01*
X068079Y013152D01*
X068096Y01312D01*
X06814Y013046D01*
X068198Y01296D01*
X068233Y012913D01*
X067667D01*
X067702Y01296D01*
X067804Y01312D01*
X067821Y013152D01*
X067833Y013182D01*
X06784Y0132D01*
X067833Y013218D01*
X067821Y013248D01*
X067804Y01328D01*
X06776Y013354D01*
X067702Y01344D01*
X067667Y013487D01*
X068233D01*
X068198Y01344D01*
D02*
G37*
G36*
Y01244D02*
X068096Y01228D01*
X068079Y012248D01*
X068067Y012218D01*
X068057Y012192D01*
X068052Y012168D01*
X06805Y012147D01*
X06785D01*
X067848Y012168D01*
X067843Y012192D01*
X067833Y012218D01*
X067821Y012248D01*
X067804Y01228D01*
X06776Y012354D01*
X067702Y01244D01*
X067667Y012487D01*
X068233D01*
X068198Y01244D01*
D02*
G37*
G36*
X067199D02*
X067096Y01228D01*
X067079Y012248D01*
X067066Y012218D01*
X067057Y012192D01*
X067052Y012168D01*
X06705Y012147D01*
X06685D01*
X066848Y012168D01*
X066843Y012192D01*
X066834Y012218D01*
X066821Y012248D01*
X066804Y01228D01*
X06676Y012354D01*
X066701Y01244D01*
X066667Y012487D01*
X067233D01*
X067199Y01244D01*
D02*
G37*
G36*
X059728Y011715D02*
X059733Y011692D01*
X059741Y011666D01*
X059753Y011638D01*
X059768Y011608D01*
X059808Y011539D01*
X059833Y011501D01*
X059892Y011418D01*
X05936D01*
X059392Y011461D01*
X059467Y011575D01*
X059485Y011608D01*
X059511Y011666D01*
X05952Y011692D01*
X059525Y011715D01*
X059526Y011735D01*
X059726D01*
X059728Y011715D01*
D02*
G37*
G36*
X056076Y011641D02*
X056095Y011628D01*
X056119Y011616D01*
X056147Y011605D01*
X056179Y011594D01*
X056256Y011573D01*
X0563Y011564D01*
X056402Y011547D01*
X056025Y011171D01*
X056017Y011224D01*
X05599Y011357D01*
X055979Y011394D01*
X055957Y011454D01*
X055945Y011478D01*
X055932Y011497D01*
X055919Y011513D01*
X05606Y011654D01*
X056076Y011641D01*
D02*
G37*
G36*
X041278Y011553D02*
X041392Y011479D01*
X041425Y01146D01*
X041483Y011434D01*
X041509Y011426D01*
X041532Y011421D01*
X041552Y011419D01*
X041553Y011219D01*
X041533Y011217D01*
X04151Y011212D01*
X041484Y011204D01*
X041456Y011192D01*
X041426Y011177D01*
X041357Y011137D01*
X041319Y011112D01*
X041236Y011052D01*
X041235Y011585D01*
X041278Y011553D01*
D02*
G37*
G36*
X041922Y01112D02*
X042388D01*
X042385Y011114D01*
X042382Y011105D01*
X042379Y011092D01*
X042377Y011075D01*
X042373Y011004D01*
X042372Y010901D01*
X041872D01*
X041871Y010939D01*
X041862Y011097D01*
X041765Y01116D01*
X041732Y011178D01*
X041674Y011204D01*
X041649Y011212D01*
X041626Y011217D01*
X041605Y011219D01*
X041604Y011419D01*
X041625Y011421D01*
X041648Y011426D01*
X041673Y011434D01*
X041701Y011446D01*
X041732Y011461D01*
X0418Y011501D01*
X041838Y011526D01*
X041921Y011586D01*
X041922Y01112D01*
D02*
G37*
G36*
X05877Y010975D02*
X058696Y010862D01*
X058677Y010829D01*
X058651Y01077D01*
X058642Y010745D01*
X058637Y010722D01*
X058636Y010701D01*
X058436D01*
X058434Y010722D01*
X058429Y010745D01*
X058421Y01077D01*
X058409Y010798D01*
X058394Y010829D01*
X058354Y010897D01*
X05833Y010935D01*
X05827Y011018D01*
X058802D01*
X05877Y010975D01*
D02*
G37*
G36*
X055499D02*
X055424Y010862D01*
X055406Y010829D01*
X055379Y01077D01*
X055371Y010745D01*
X055366Y010722D01*
X055364Y010701D01*
X055164D01*
X055163Y010722D01*
X055158Y010745D01*
X055149Y01077D01*
X055138Y010798D01*
X055123Y010829D01*
X055083Y010897D01*
X055058Y010935D01*
X054998Y011018D01*
X05553D01*
X055499Y010975D01*
D02*
G37*
G36*
X061364Y010596D02*
X061369Y010573D01*
X061377Y010548D01*
X061389Y01052D01*
X061404Y01049D01*
X061444Y010421D01*
X061468Y010383D01*
X061528Y0103D01*
X060996D01*
X061028Y010343D01*
X061102Y010457D01*
X061121Y01049D01*
X061147Y010548D01*
X061156Y010573D01*
X061161Y010596D01*
X061162Y010617D01*
X061362D01*
X061364Y010596D01*
D02*
G37*
G36*
X058092D02*
X058097Y010573D01*
X058105Y010548D01*
X058117Y01052D01*
X058132Y01049D01*
X058172Y010421D01*
X058197Y010383D01*
X058257Y0103D01*
X057725D01*
X057756Y010343D01*
X057831Y010457D01*
X057849Y01049D01*
X057876Y010548D01*
X057884Y010573D01*
X057889Y010596D01*
X057891Y010617D01*
X058091D01*
X058092Y010596D01*
D02*
G37*
G36*
X041381Y009934D02*
X041338Y009966D01*
X041224Y01004D01*
X041192Y010058D01*
X041133Y010085D01*
X041108Y010093D01*
X041085Y010098D01*
X041064Y0101D01*
Y0103D01*
X041085Y010302D01*
X041108Y010307D01*
X041133Y010315D01*
X041161Y010327D01*
X041192Y010342D01*
X04126Y010381D01*
X041298Y010406D01*
X041381Y010466D01*
Y009934D01*
D02*
G37*
G36*
X040733Y010434D02*
X040847Y01036D01*
X04088Y010342D01*
X040939Y010315D01*
X040964Y010307D01*
X040987Y010302D01*
X041007Y0103D01*
Y0101D01*
X040987Y010098D01*
X040964Y010093D01*
X040939Y010085D01*
X040911Y010073D01*
X04088Y010058D01*
X040812Y010019D01*
X040774Y009994D01*
X04069Y009934D01*
Y010466D01*
X040733Y010434D01*
D02*
G37*
G36*
X041669Y010254D02*
X041689Y010239D01*
X04171Y010226D01*
X041732Y010213D01*
X041756Y010202D01*
X041782Y010192D01*
X041809Y010183D01*
X041838Y010175D01*
X041901Y010163D01*
X041618Y00988D01*
X041613Y009912D01*
X041599Y009972D01*
X04159Y009999D01*
X041579Y010025D01*
X041568Y010049D01*
X041555Y010072D01*
X041542Y010092D01*
X041527Y010112D01*
X04151Y010129D01*
X041652Y010271D01*
X041669Y010254D01*
D02*
G37*
G36*
X041883Y010058D02*
X041883Y010054D01*
X041885Y010048D01*
X041889Y010042D01*
X041893Y010035D01*
X041899Y010027D01*
X041915Y010008D01*
X041936Y009986D01*
X041795Y009845D01*
X041783Y009856D01*
X041746Y009888D01*
X041739Y009892D01*
X041733Y009896D01*
X041728Y009898D01*
X041723Y009898D01*
X04172Y009898D01*
X041884Y010062D01*
X041883Y010058D01*
D02*
G37*
G36*
X054519Y009834D02*
X054476Y009866D01*
X054362Y00994D01*
X054329Y009959D01*
X054271Y009985D01*
X054245Y009993D01*
X054222Y009998D01*
X054202Y01D01*
Y0102D01*
X054222Y010202D01*
X054245Y010207D01*
X054271Y010215D01*
X054299Y010227D01*
X054329Y010242D01*
X054398Y010281D01*
X054436Y010306D01*
X054519Y010366D01*
Y009834D01*
D02*
G37*
G36*
X0458Y01345D02*
X0338D01*
Y0106D01*
X03975D01*
Y0098D01*
X03325D01*
Y01345D01*
X02855D01*
Y0146D01*
X0458D01*
Y01345D01*
D02*
G37*
G36*
X057134Y009857D02*
X05706Y009743D01*
X057042Y00971D01*
X057015Y009652D01*
X057007Y009627D01*
X057002Y009604D01*
X057Y009583D01*
X0568D01*
X056798Y009604D01*
X056793Y009627D01*
X056785Y009652D01*
X056773Y00968D01*
X056758Y00971D01*
X056719Y009779D01*
X056694Y009817D01*
X056634Y0099D01*
X057166D01*
X057134Y009857D01*
D02*
G37*
G36*
X041834Y009523D02*
X041736Y009403D01*
X041668Y009296D01*
X041628Y009205D01*
X041618Y009127D01*
X041637Y009063D01*
X041685Y009014D01*
X041762Y008978D01*
X041868Y008957D01*
X042004Y00895D01*
X04065Y00845D01*
X039796Y00895D01*
X039946Y008957D01*
X040095Y008978D01*
X040243Y009014D01*
X04039Y009063D01*
X040536Y009127D01*
X040681Y009205D01*
X040825Y009296D01*
X040969Y009403D01*
X041112Y009523D01*
X041254Y009657D01*
X041961D01*
X041834Y009523D01*
D02*
G37*
%LPC*%
G36*
X012014Y032499D02*
X011733Y032218D01*
X012014Y031937D01*
X012055Y031991D01*
X012101Y0321D01*
X012116Y032218D01*
X012101Y032335D01*
X012055Y032445D01*
X012014Y032499D01*
D02*
G37*
G36*
X012014Y031499D02*
X011733Y031218D01*
X012014Y030937D01*
X012055Y030991D01*
X012101Y0311D01*
X012116Y031218D01*
X012101Y031335D01*
X012055Y031445D01*
X012014Y031499D01*
D02*
G37*
G36*
X012097Y030345D02*
X012112Y030247D01*
X012101Y030335D01*
X012097Y030345D01*
D02*
G37*
G36*
X011864Y030349D02*
X011733Y030218D01*
X011883Y030068D01*
X011864Y030349D01*
D02*
G37*
G36*
X01206Y030001D02*
X012014Y029998D01*
X011987Y029993D01*
X011964Y029987D01*
X012014Y029937D01*
X012055Y029991D01*
X01206Y030001D01*
D02*
G37*
G36*
X0553Y028955D02*
X055156Y028936D01*
X055023Y02888D01*
X054908Y028792D01*
X054899Y028781D01*
X054701D01*
X054692Y028792D01*
X054577Y02888D01*
X054444Y028936D01*
X0543Y028955D01*
X054156Y028936D01*
X054023Y02888D01*
X053908Y028792D01*
X05382Y028677D01*
X053764Y028544D01*
X053745Y0284D01*
X053764Y028256D01*
X05382Y028123D01*
X053908Y028008D01*
X054023Y02792D01*
X054156Y027864D01*
X0543Y027845D01*
X054444Y027864D01*
X054577Y02792D01*
X054692Y028008D01*
X054701Y028019D01*
X054899D01*
X054908Y028008D01*
X055023Y02792D01*
X055156Y027864D01*
X0553Y027845D01*
X055444Y027864D01*
X055577Y02792D01*
X055692Y028008D01*
X05578Y028123D01*
X055836Y028256D01*
X055855Y0284D01*
X055836Y028544D01*
X05578Y028677D01*
X055692Y028792D01*
X055577Y02888D01*
X055444Y028936D01*
X0553Y028955D01*
D02*
G37*
G36*
X05195Y028905D02*
X051806Y028886D01*
X051673Y02883D01*
X051558Y028742D01*
X051549Y028731D01*
X051351D01*
X051342Y028742D01*
X051227Y02883D01*
X051094Y028886D01*
X05095Y028905D01*
X050806Y028886D01*
X050673Y02883D01*
X050558Y028742D01*
X05047Y028627D01*
X050414Y028494D01*
X050395Y02835D01*
X050414Y028206D01*
X05047Y028073D01*
X050558Y027958D01*
X050673Y02787D01*
X050806Y027814D01*
X05095Y027795D01*
X051094Y027814D01*
X051227Y02787D01*
X051342Y027958D01*
X051351Y027969D01*
X051549D01*
X051558Y027958D01*
X051673Y02787D01*
X051806Y027814D01*
X05195Y027795D01*
X052094Y027814D01*
X052227Y02787D01*
X052342Y027958D01*
X05243Y028073D01*
X052486Y028206D01*
X052505Y02835D01*
X052486Y028494D01*
X05243Y028627D01*
X052342Y028742D01*
X052227Y02883D01*
X052094Y028886D01*
X05195Y028905D01*
D02*
G37*
G36*
X05825Y028805D02*
X058106Y028786D01*
X057973Y02873D01*
X057858Y028642D01*
X057849Y028631D01*
X057651D01*
X057642Y028642D01*
X057527Y02873D01*
X057394Y028786D01*
X05725Y028805D01*
X057106Y028786D01*
X056973Y02873D01*
X056858Y028642D01*
X05677Y028527D01*
X056714Y028394D01*
X056695Y02825D01*
X056714Y028106D01*
X05677Y027973D01*
X056858Y027858D01*
X056973Y02777D01*
X057106Y027714D01*
X05725Y027695D01*
X057394Y027714D01*
X057527Y02777D01*
X057642Y027858D01*
X057651Y027869D01*
X057849D01*
X057858Y027858D01*
X057973Y02777D01*
X058106Y027714D01*
X05825Y027695D01*
X058394Y027714D01*
X058527Y02777D01*
X058642Y027858D01*
X05873Y027973D01*
X058786Y028106D01*
X058805Y02825D01*
X058786Y028394D01*
X05873Y028527D01*
X058642Y028642D01*
X058527Y02873D01*
X058394Y028786D01*
X05825Y028805D01*
D02*
G37*
G36*
X0614Y028805D02*
X061256Y028786D01*
X061123Y02873D01*
X061008Y028642D01*
X060999Y028631D01*
X060801D01*
X060792Y028642D01*
X060677Y02873D01*
X060544Y028786D01*
X0604Y028805D01*
X060256Y028786D01*
X060123Y02873D01*
X060008Y028642D01*
X05992Y028527D01*
X059864Y028394D01*
X059845Y02825D01*
X059864Y028106D01*
X05992Y027973D01*
X060008Y027858D01*
X060123Y02777D01*
X060256Y027714D01*
X0604Y027695D01*
X060544Y027714D01*
X060677Y02777D01*
X060792Y027858D01*
X060801Y027869D01*
X060999D01*
X061008Y027858D01*
X061123Y02777D01*
X061256Y027714D01*
X0614Y027695D01*
X061544Y027714D01*
X061677Y02777D01*
X061792Y027858D01*
X06188Y027973D01*
X061936Y028106D01*
X061955Y02825D01*
X061936Y028394D01*
X06188Y028527D01*
X061792Y028642D01*
X061677Y02873D01*
X061544Y028786D01*
X0614Y028805D01*
D02*
G37*
G36*
X062887Y044353D02*
X008567D01*
X008489Y044342D01*
X008416Y044312D01*
X008353Y044264D01*
X008353Y044264D01*
X008236Y044147D01*
X008188Y044084D01*
X008158Y044011D01*
X008147Y043933D01*
Y03605D01*
X008158Y035972D01*
X008188Y035899D01*
X008236Y035836D01*
X009068Y035004D01*
X009131Y034956D01*
X009204Y034926D01*
X009282Y034915D01*
X009282Y034915D01*
X010097D01*
X010099Y034915D01*
X010105Y034914D01*
X010114Y034911D01*
X01013Y034904D01*
X010147Y034896D01*
X010276Y034813D01*
X010283Y034798D01*
X010293Y034772D01*
X010293Y034662D01*
X010281Y03463D01*
X010276Y034622D01*
X010212Y034578D01*
X010151Y034542D01*
X01013Y034531D01*
X010114Y034524D01*
X010105Y034522D01*
X010099Y034521D01*
X010097Y03452D01*
X008157D01*
X007403Y035275D01*
Y042006D01*
X007404Y04201D01*
X007404Y04202D01*
X007404Y042022D01*
X007406Y042027D01*
X007408Y042035D01*
X007412Y042045D01*
X007418Y042057D01*
X007425Y04207D01*
X00745Y042109D01*
X007465Y04213D01*
X007472Y042146D01*
X007493Y042173D01*
X007538Y042283D01*
X007554Y0424D01*
X007538Y042517D01*
X007493Y042627D01*
X007421Y042721D01*
X007327Y042793D01*
X007217Y042838D01*
X0071Y042854D01*
X006983Y042838D01*
X006873Y042793D01*
X006779Y042721D01*
X006707Y042627D01*
X006662Y042517D01*
X006646Y0424D01*
X006662Y042283D01*
X006707Y042173D01*
X006728Y042146D01*
X006735Y04213D01*
X00675Y042109D01*
X006775Y04207D01*
X006782Y042057D01*
X006788Y042045D01*
X006792Y042035D01*
X006794Y042027D01*
X006796Y042022D01*
X006796Y04202D01*
X006796Y04201D01*
X006797Y042006D01*
Y03515D01*
X006808Y035072D01*
X006838Y034999D01*
X006886Y034936D01*
X007818Y034004D01*
X007818Y034004D01*
X007881Y033956D01*
X007954Y033926D01*
X008032Y033915D01*
X008032Y033915D01*
X010097D01*
X010099Y033915D01*
X010105Y033914D01*
X010114Y033911D01*
X01013Y033904D01*
X010147Y033896D01*
X010276Y033813D01*
X010293Y033755D01*
X010297Y033658D01*
X010294Y033648D01*
X010281Y033619D01*
X01027Y03361D01*
X010182Y033495D01*
X010127Y033361D01*
X010108Y033218D01*
X010127Y033074D01*
X010182Y032941D01*
X01027Y032826D01*
X010281Y032817D01*
X010296Y032784D01*
X010296Y032782D01*
X010277Y032622D01*
X010274Y032619D01*
X010099Y032495D01*
X010064Y032473D01*
X009018D01*
X00892Y032453D01*
X008838Y032398D01*
X00722Y03078D01*
X007165Y030698D01*
X007145Y0306D01*
Y02175D01*
X007165Y021652D01*
X00722Y02157D01*
X00832Y02047D01*
X008402Y020415D01*
X0085Y020395D01*
X009766D01*
X009895Y020311D01*
X009928Y020286D01*
X009945Y020278D01*
X009973Y020257D01*
X010083Y020212D01*
X0102Y020196D01*
X010317Y020212D01*
X010427Y020257D01*
X010521Y020329D01*
X010593Y020423D01*
X010638Y020533D01*
X010654Y02065D01*
X010638Y020767D01*
X010593Y020877D01*
X010521Y020971D01*
X010427Y021043D01*
X010317Y021088D01*
X0102Y021104D01*
X010083Y021088D01*
X009973Y021043D01*
X009945Y021022D01*
X009928Y021014D01*
X009892Y020987D01*
X009803Y020925D01*
X009771Y020905D01*
X008606D01*
X007655Y021856D01*
Y027897D01*
X007812Y027951D01*
X007829Y027929D01*
X007923Y027857D01*
X008033Y027812D01*
X00815Y027796D01*
X008267Y027812D01*
X008377Y027857D01*
X008404Y027878D01*
X00842Y027885D01*
X008441Y0279D01*
X00848Y027925D01*
X008493Y027932D01*
X008505Y027938D01*
X008515Y027942D01*
X008523Y027944D01*
X008528Y027946D01*
X00853Y027946D01*
X00854Y027946D01*
X008544Y027947D01*
X010088D01*
X010088Y027947D01*
X01009Y027947D01*
X010095Y027945D01*
X010109Y027938D01*
X010129Y027927D01*
X010189Y027887D01*
X010263Y027829D01*
X010279Y027816D01*
X010302Y027687D01*
X010281Y027619D01*
X01027Y02761D01*
X010182Y027495D01*
X010127Y027361D01*
X010108Y027218D01*
X010127Y027074D01*
X010182Y026941D01*
X01027Y026826D01*
X010385Y026737D01*
X010519Y026682D01*
X010662Y026663D01*
X010806Y026682D01*
X01094Y026737D01*
X010955Y026749D01*
X011112Y026671D01*
Y026668D01*
X012212D01*
Y027768D01*
X012209D01*
X012131Y027925D01*
X012143Y027941D01*
X012198Y028074D01*
X012217Y028218D01*
X012198Y028361D01*
X012143Y028495D01*
X012055Y02861D01*
X012044Y028619D01*
Y028817D01*
X012055Y028826D01*
X012143Y02894D01*
X012198Y029074D01*
X012217Y029218D01*
X012198Y029361D01*
X012143Y029495D01*
X012055Y02961D01*
X011956Y029686D01*
X011948Y029702D01*
X011941Y02975D01*
X011944Y029865D01*
X011627Y030183D01*
X011662Y030218D01*
X011627Y030253D01*
X011855Y030481D01*
X011853Y030511D01*
X011857Y03051D01*
X011864Y03051D01*
X011882Y030509D01*
X011943Y03057D01*
X011889Y030611D01*
X011834Y030634D01*
X011834Y030802D01*
X011889Y030825D01*
X011943Y030866D01*
X011627Y031183D01*
X011662Y031218D01*
X011627Y031253D01*
X011943Y03157D01*
X011889Y031611D01*
X011834Y031634D01*
X011834Y031802D01*
X011889Y031825D01*
X011943Y031866D01*
X011627Y032183D01*
X011662Y032218D01*
X011627Y032253D01*
X011944Y03257D01*
X011941Y032686D01*
X011948Y032734D01*
X011956Y03275D01*
X011978Y032767D01*
X011994Y032775D01*
X012051Y032817D01*
X012226Y032941D01*
X012261Y032963D01*
X013177D01*
X013295Y032844D01*
Y02895D01*
X013314Y028852D01*
X01337Y02877D01*
X018195Y023944D01*
Y020834D01*
X018111Y020705D01*
X018086Y020672D01*
X018078Y020655D01*
X018057Y020627D01*
X018012Y020517D01*
X017996Y0204D01*
X018012Y020283D01*
X018057Y020173D01*
X018129Y020079D01*
X018223Y020007D01*
X018333Y019962D01*
X01845Y019946D01*
X018567Y019962D01*
X018677Y020007D01*
X018771Y020079D01*
X018843Y020173D01*
X018888Y020283D01*
X018904Y0204D01*
X018888Y020517D01*
X018843Y020627D01*
X018822Y020655D01*
X018814Y020672D01*
X018787Y020708D01*
X018725Y020797D01*
X018705Y020829D01*
Y02405D01*
X018685Y024148D01*
X01863Y02423D01*
X018461Y0244D01*
X018521Y024545D01*
X019744D01*
X021495Y022794D01*
Y020834D01*
X021411Y020705D01*
X021386Y020672D01*
X021378Y020655D01*
X021357Y020627D01*
X021312Y020517D01*
X021296Y0204D01*
X021312Y020283D01*
X021357Y020173D01*
X021429Y020079D01*
X021523Y020007D01*
X021633Y019962D01*
X02175Y019946D01*
X021867Y019962D01*
X021977Y020007D01*
X022071Y020079D01*
X022143Y020173D01*
X022188Y020283D01*
X022204Y0204D01*
X022188Y020517D01*
X022143Y020627D01*
X022122Y020655D01*
X022114Y020672D01*
X022087Y020708D01*
X022025Y020797D01*
X022005Y020829D01*
Y0229D01*
X021985Y022998D01*
X02193Y02308D01*
X02003Y02498D01*
X019948Y025036D01*
X01985Y025055D01*
X018406D01*
X014555Y028906D01*
Y03345D01*
X014535Y033548D01*
X01448Y03363D01*
X013712Y034398D01*
X01363Y034453D01*
X013532Y034473D01*
X012272D01*
X012049Y034621D01*
X012047Y034622D01*
X012024Y034703D01*
X012027Y034769D01*
X012034Y034792D01*
X012045Y034816D01*
X012125Y034882D01*
X012241Y034974D01*
X012271Y034995D01*
X013694D01*
X014845Y033844D01*
Y02905D01*
X014864Y028952D01*
X01492Y02887D01*
X01727Y02652D01*
X017352Y026465D01*
X01745Y026445D01*
X021744D01*
X024695Y023494D01*
Y021134D01*
X024611Y021005D01*
X024586Y020972D01*
X024578Y020955D01*
X024557Y020927D01*
X024512Y020817D01*
X024496Y0207D01*
X024512Y020583D01*
X024557Y020473D01*
X024629Y020379D01*
X024723Y020307D01*
X024833Y020262D01*
X02495Y020246D01*
X025067Y020262D01*
X025177Y020307D01*
X025271Y020379D01*
X025343Y020473D01*
X025388Y020583D01*
X025404Y0207D01*
X025388Y020817D01*
X025343Y020927D01*
X025322Y020955D01*
X025314Y020972D01*
X025287Y021008D01*
X025225Y021097D01*
X025205Y021129D01*
Y0236D01*
X025185Y023698D01*
X02513Y02378D01*
X02203Y02688D01*
X021948Y026936D01*
X02185Y026955D01*
X017556D01*
X01631Y028201D01*
X01637Y028346D01*
X01875D01*
X018828Y028362D01*
X018894Y028406D01*
X018938Y028472D01*
X018954Y02855D01*
Y028746D01*
X020962D01*
X025646Y024062D01*
Y016762D01*
X025488Y016604D01*
X023155D01*
X023065Y016641D01*
X022947Y016657D01*
X019944D01*
X019867Y016688D01*
X01975Y016704D01*
X019633Y016688D01*
X019556Y016657D01*
X016589D01*
X016589Y016657D01*
X016472Y016641D01*
X016362Y016596D01*
X016268Y016524D01*
X016268Y016524D01*
X016241Y016497D01*
X016169Y016403D01*
X016124Y016293D01*
X016108Y016176D01*
X016124Y016059D01*
X016169Y015949D01*
X016241Y015855D01*
X016335Y015783D01*
X016445Y015738D01*
X016562Y015722D01*
X01668Y015738D01*
X016708Y015749D01*
X022792D01*
X022883Y015712D01*
X023Y015696D01*
X023Y015696D01*
X025676D01*
X025793Y015712D01*
X025903Y015757D01*
X025913Y015765D01*
X025983Y015736D01*
X0261Y01572D01*
X026217Y015736D01*
X026327Y015781D01*
X026421Y015853D01*
X026493Y015947D01*
X026538Y016057D01*
X026554Y016174D01*
Y016574D01*
Y02425D01*
X026554Y02425D01*
X026538Y024367D01*
X026493Y024477D01*
X026421Y024571D01*
X021471Y029521D01*
X021377Y029593D01*
X021267Y029638D01*
X02115Y029654D01*
X018954D01*
Y030146D01*
X022012D01*
X029383Y022775D01*
X029383Y022775D01*
X029477Y022703D01*
X029587Y022657D01*
X029704Y022642D01*
X030394D01*
X030468Y022612D01*
X030585Y022596D01*
X030703Y022612D01*
X030776Y022642D01*
X033019D01*
X033029Y022629D01*
X033123Y022557D01*
X033233Y022512D01*
X03335Y022496D01*
X033467Y022512D01*
X033577Y022557D01*
X033671Y022629D01*
X033681Y022642D01*
X036077D01*
X036123Y022607D01*
X036233Y022562D01*
X03635Y022546D01*
X036467Y022562D01*
X036577Y022607D01*
X036623Y022642D01*
X038909D01*
X038983Y022612D01*
X0391Y022596D01*
X039217Y022612D01*
X039291Y022642D01*
X041609D01*
X041683Y022612D01*
X0418Y022596D01*
X041917Y022612D01*
X041991Y022642D01*
X044177D01*
X044223Y022607D01*
X044333Y022562D01*
X04445Y022546D01*
X044567Y022562D01*
X044677Y022607D01*
X044771Y022679D01*
X044867Y022775D01*
X044867Y022775D01*
X044939Y022869D01*
X044984Y022978D01*
X045Y023096D01*
X044984Y023213D01*
X044939Y023323D01*
X044867Y023417D01*
X044773Y023489D01*
X044663Y023534D01*
X044546Y02355D01*
X044546Y02355D01*
X029892D01*
X022521Y030921D01*
X022427Y030993D01*
X022317Y031038D01*
X0222Y031054D01*
X01883D01*
X018778Y031088D01*
X0187Y031104D01*
X0162D01*
X016122Y031088D01*
X016056Y031044D01*
X015956Y030944D01*
X015912Y030878D01*
X015896Y0308D01*
Y02882D01*
X015751Y02876D01*
X015355Y029156D01*
Y03395D01*
X015336Y034048D01*
X01528Y03413D01*
X014105Y035306D01*
X01417Y035463D01*
X029727D01*
X030457Y034733D01*
X030497Y03469D01*
X030497Y034689D01*
Y025065D01*
X030497Y025063D01*
X030496Y025057D01*
X030493Y025048D01*
X030486Y025032D01*
X030478Y025015D01*
X030386Y024872D01*
X030356Y024831D01*
X030348Y024815D01*
X03032Y024777D01*
X030264Y024644D01*
X030245Y0245D01*
X030264Y024356D01*
X03032Y024223D01*
X030408Y024108D01*
X030523Y02402D01*
X030656Y023964D01*
X0308Y023945D01*
X030944Y023964D01*
X031077Y02402D01*
X031192Y024108D01*
X031201Y024119D01*
X031399D01*
X031408Y024108D01*
X031523Y02402D01*
X031656Y023964D01*
X0318Y023945D01*
X031944Y023964D01*
X032077Y02402D01*
X032192Y024108D01*
X03228Y024223D01*
X032336Y024356D01*
X032355Y0245D01*
X032336Y024644D01*
X03228Y024777D01*
X032192Y024892D01*
X032077Y02498D01*
X031944Y025036D01*
X0318Y025055D01*
X031656Y025036D01*
X031523Y02498D01*
X031408Y024892D01*
X031399Y024881D01*
X03137Y024868D01*
X031361Y024865D01*
X031224Y024874D01*
X031204Y024886D01*
X03116Y024951D01*
X031124Y025012D01*
X031114Y025032D01*
X031107Y025048D01*
X031104Y025057D01*
X031103Y025063D01*
X031103Y025065D01*
Y03475D01*
X031092Y034828D01*
X031062Y034901D01*
X031014Y034964D01*
X030951Y035012D01*
X030878Y035042D01*
X030877Y035043D01*
X030807Y035103D01*
X030012Y035898D01*
X02993Y035953D01*
X029832Y035973D01*
X012308D01*
X012206Y03613D01*
X012217Y036218D01*
X012206Y036305D01*
X012308Y036463D01*
X032918D01*
X033345Y036036D01*
Y025109D01*
X033197Y024886D01*
X033157Y024832D01*
X033149Y024815D01*
X03312Y024777D01*
X033064Y024644D01*
X033045Y0245D01*
X033064Y024356D01*
X03312Y024223D01*
X033208Y024108D01*
X033323Y02402D01*
X033456Y023964D01*
X0336Y023945D01*
X033744Y023964D01*
X033877Y02402D01*
X033992Y024108D01*
X034001Y024119D01*
X034199D01*
X034208Y024108D01*
X034323Y02402D01*
X034456Y023964D01*
X0346Y023945D01*
X034744Y023964D01*
X034877Y02402D01*
X034992Y024108D01*
X03508Y024223D01*
X035136Y024356D01*
X035155Y0245D01*
X035136Y024644D01*
X03508Y024777D01*
X034992Y024892D01*
X034877Y02498D01*
X034744Y025036D01*
X0346Y025055D01*
X034456Y025036D01*
X034323Y02498D01*
X034208Y024892D01*
X034199Y024881D01*
X034167Y024867D01*
X034164Y024866D01*
X034004Y024885D01*
X034001Y024889D01*
X033877Y025063D01*
X033855Y025098D01*
Y036141D01*
X033835Y036239D01*
X03378Y036322D01*
X033204Y036898D01*
X033121Y036953D01*
X033024Y036973D01*
X012308D01*
X012206Y03713D01*
X012217Y037218D01*
X012198Y037361D01*
X012143Y037495D01*
X012055Y03761D01*
X012044Y037619D01*
X012029Y037651D01*
X012028Y037654D01*
X012047Y037814D01*
X012051Y037817D01*
X012226Y037941D01*
X012261Y037963D01*
X035677D01*
X036345Y037294D01*
Y025109D01*
X036197Y024886D01*
X036157Y024832D01*
X036149Y024815D01*
X03612Y024777D01*
X036064Y024644D01*
X036045Y0245D01*
X036064Y024356D01*
X03612Y024223D01*
X036208Y024108D01*
X036323Y02402D01*
X036456Y023964D01*
X0366Y023945D01*
X036744Y023964D01*
X036877Y02402D01*
X036992Y024108D01*
X037001Y024119D01*
X037199D01*
X037208Y024108D01*
X037323Y02402D01*
X037456Y023964D01*
X0376Y023945D01*
X037744Y023964D01*
X037877Y02402D01*
X037992Y024108D01*
X03808Y024223D01*
X038136Y024356D01*
X038155Y0245D01*
X038136Y024644D01*
X03808Y024777D01*
X037992Y024892D01*
X037877Y02498D01*
X037744Y025036D01*
X0376Y025055D01*
X037456Y025036D01*
X037323Y02498D01*
X037208Y024892D01*
X037199Y024881D01*
X037167Y024867D01*
X037164Y024866D01*
X037004Y024885D01*
X037001Y024889D01*
X036877Y025063D01*
X036855Y025098D01*
Y0374D01*
X036835Y037498D01*
X03678Y03758D01*
X035962Y038398D01*
X03588Y038453D01*
X035782Y038473D01*
X012272D01*
X012049Y038621D01*
X012047Y038622D01*
X012039Y038639D01*
X012031Y038663D01*
Y038773D01*
X012039Y038797D01*
X012047Y038814D01*
X012051Y038817D01*
X012226Y038941D01*
X012261Y038963D01*
X038094D01*
X039245Y037812D01*
Y025109D01*
X039097Y024886D01*
X039057Y024832D01*
X039049Y024815D01*
X03902Y024777D01*
X038964Y024644D01*
X038945Y0245D01*
X038964Y024356D01*
X03902Y024223D01*
X039108Y024108D01*
X039223Y02402D01*
X039356Y023964D01*
X0395Y023945D01*
X039644Y023964D01*
X039777Y02402D01*
X039892Y024108D01*
X039901Y024119D01*
X040099D01*
X040108Y024108D01*
X040223Y02402D01*
X040356Y023964D01*
X0405Y023945D01*
X040644Y023964D01*
X040777Y02402D01*
X040892Y024108D01*
X04098Y024223D01*
X041036Y024356D01*
X041055Y0245D01*
X041036Y024644D01*
X04098Y024777D01*
X040892Y024892D01*
X040777Y02498D01*
X040644Y025036D01*
X0405Y025055D01*
X040356Y025036D01*
X040223Y02498D01*
X040108Y024892D01*
X040099Y024881D01*
X040067Y024867D01*
X040064Y024866D01*
X039904Y024885D01*
X039901Y024889D01*
X039777Y025063D01*
X039755Y025098D01*
Y037918D01*
X039735Y038015D01*
X03968Y038098D01*
X03838Y039398D01*
X038298Y039453D01*
X0382Y039473D01*
X012272D01*
X012049Y039621D01*
X011994Y039661D01*
X011978Y039669D01*
X01194Y039698D01*
X011806Y039754D01*
X011662Y039773D01*
X011519Y039754D01*
X011385Y039698D01*
X01127Y03961D01*
X011262Y039599D01*
X011063D01*
X011055Y03961D01*
X01094Y039698D01*
X010806Y039754D01*
X010662Y039773D01*
X010519Y039754D01*
X010385Y039698D01*
X01027Y03961D01*
X010182Y039495D01*
X010127Y039361D01*
X010108Y039218D01*
X010127Y039074D01*
X010182Y038941D01*
X01027Y038826D01*
X010281Y038817D01*
X010296Y038784D01*
X010296Y038782D01*
X010277Y038622D01*
X010274Y038619D01*
X010099Y038495D01*
X010064Y038473D01*
X009938D01*
X009605Y038806D01*
Y040136D01*
X009864Y040395D01*
X040144D01*
X042045Y038494D01*
Y025109D01*
X041897Y024886D01*
X041857Y024832D01*
X041849Y024815D01*
X04182Y024777D01*
X041764Y024644D01*
X041745Y0245D01*
X041764Y024356D01*
X04182Y024223D01*
X041908Y024108D01*
X042023Y02402D01*
X042156Y023964D01*
X0423Y023945D01*
X042444Y023964D01*
X042577Y02402D01*
X042692Y024108D01*
X042701Y024119D01*
X042899D01*
X042908Y024108D01*
X043023Y02402D01*
X043156Y023964D01*
X0433Y023945D01*
X043444Y023964D01*
X043577Y02402D01*
X043692Y024108D01*
X04378Y024223D01*
X043836Y024356D01*
X043855Y0245D01*
X043836Y024644D01*
X04378Y024777D01*
X043692Y024892D01*
X043577Y02498D01*
X043444Y025036D01*
X0433Y025055D01*
X043156Y025036D01*
X043023Y02498D01*
X042908Y024892D01*
X042899Y024881D01*
X042867Y024867D01*
X042864Y024866D01*
X042704Y024885D01*
X042701Y024889D01*
X042577Y025063D01*
X042555Y025098D01*
Y0386D01*
X042536Y038698D01*
X04248Y03878D01*
X04043Y04083D01*
X040348Y040886D01*
X04025Y040905D01*
X009759D01*
X009661Y040886D01*
X009578Y04083D01*
X00917Y040422D01*
X009115Y040339D01*
X009095Y040241D01*
Y0387D01*
X009115Y038602D01*
X00917Y03852D01*
X009652Y038038D01*
X009735Y037982D01*
X009832Y037963D01*
X010053D01*
X010276Y037815D01*
X010277Y037814D01*
X010296Y037654D01*
X010296Y037651D01*
X010281Y037619D01*
X01027Y03761D01*
X010182Y037495D01*
X010127Y037361D01*
X010108Y037218D01*
X010127Y037074D01*
X010182Y036941D01*
X01027Y036826D01*
X010281Y036817D01*
Y036619D01*
X01027Y03661D01*
X010182Y036495D01*
X010127Y036361D01*
X010108Y036218D01*
X010127Y036074D01*
X010182Y035941D01*
X01027Y035826D01*
X010281Y035817D01*
X010294Y035788D01*
X010297Y035779D01*
X010288Y035641D01*
X010276Y035622D01*
X010212Y035578D01*
X010151Y035542D01*
X01013Y035531D01*
X010114Y035524D01*
X010105Y035522D01*
X010099Y035521D01*
X010097Y03552D01*
X009407D01*
X008753Y036175D01*
Y043747D01*
X062762D01*
X064347Y042162D01*
Y028815D01*
X064347Y028813D01*
X064346Y028807D01*
X064343Y028798D01*
X064336Y028782D01*
X064328Y028765D01*
X064245Y028636D01*
X064187Y02862D01*
X06409Y028615D01*
X06408Y028618D01*
X064051Y028631D01*
X064042Y028642D01*
X063927Y02873D01*
X063794Y028786D01*
X06365Y028805D01*
X063506Y028786D01*
X063373Y02873D01*
X063258Y028642D01*
X06317Y028527D01*
X063114Y028394D01*
X063095Y02825D01*
X063114Y028106D01*
X06317Y027973D01*
X063258Y027858D01*
X063373Y02777D01*
X063506Y027714D01*
X06365Y027695D01*
X063794Y027714D01*
X063927Y02777D01*
X064042Y027858D01*
X064051Y027869D01*
X064249D01*
X064258Y027858D01*
X064373Y02777D01*
X064506Y027714D01*
X06465Y027695D01*
X064794Y027714D01*
X064927Y02777D01*
X065042Y027858D01*
X06513Y027973D01*
X065186Y028106D01*
X065205Y02825D01*
X065186Y028394D01*
X06513Y028527D01*
X065102Y028565D01*
X065094Y028581D01*
X065062Y028625D01*
X06501Y028701D01*
X064974Y028762D01*
X064964Y028782D01*
X064957Y028798D01*
X064954Y028807D01*
X064953Y028813D01*
X064953Y028815D01*
Y042287D01*
X064942Y042366D01*
X064912Y042439D01*
X064864Y042501D01*
X064864Y042501D01*
X063101Y044264D01*
X063039Y044312D01*
X062966Y044342D01*
X062887Y044353D01*
D02*
G37*
G36*
X0449Y041054D02*
X044783Y041038D01*
X044673Y040993D01*
X044579Y040921D01*
X044507Y040827D01*
X044462Y040717D01*
X044446Y0406D01*
X044462Y040483D01*
X044507Y040373D01*
X044528Y040345D01*
X044536Y040328D01*
X044563Y040292D01*
X044625Y040203D01*
X044645Y040171D01*
Y025109D01*
X044497Y024886D01*
X044457Y024832D01*
X044449Y024815D01*
X04442Y024777D01*
X044364Y024644D01*
X044345Y0245D01*
X044364Y024356D01*
X04442Y024223D01*
X044508Y024108D01*
X044623Y02402D01*
X044756Y023964D01*
X0449Y023945D01*
X045044Y023964D01*
X045177Y02402D01*
X045292Y024108D01*
X045301Y024119D01*
X045499D01*
X045508Y024108D01*
X045623Y02402D01*
X045756Y023964D01*
X0459Y023945D01*
X046044Y023964D01*
X046177Y02402D01*
X046292Y024108D01*
X04638Y024223D01*
X046436Y024356D01*
X046455Y0245D01*
X046436Y024644D01*
X04638Y024777D01*
X046292Y024892D01*
X046177Y02498D01*
X046044Y025036D01*
X0459Y025055D01*
X045756Y025036D01*
X045623Y02498D01*
X045508Y024892D01*
X045499Y024881D01*
X045467Y024867D01*
X045464Y024866D01*
X045304Y024885D01*
X045301Y024889D01*
X045177Y025063D01*
X045155Y025098D01*
Y040166D01*
X045239Y040295D01*
X045264Y040328D01*
X045272Y040345D01*
X045293Y040373D01*
X045338Y040483D01*
X045354Y0406D01*
X045338Y040717D01*
X045293Y040827D01*
X045221Y040921D01*
X045127Y040993D01*
X045017Y041038D01*
X0449Y041054D01*
D02*
G37*
G36*
X022174Y011827D02*
X022099Y011796D01*
X022048Y011757D01*
X022062Y011744D01*
X022174Y011827D01*
D02*
G37*
G36*
X021226Y011955D02*
X021087Y011937D01*
X020958Y011883D01*
X020846Y011798D01*
X020768Y011696D01*
X020705Y011687D01*
X020658D01*
X020594Y011696D01*
X020516Y011798D01*
X020404Y011883D01*
X020275Y011937D01*
X020136Y011955D01*
X019997Y011937D01*
X019867Y011883D01*
X019756Y011798D01*
X019677Y011696D01*
X019614Y011687D01*
X019567D01*
X019504Y011696D01*
X019425Y011798D01*
X019314Y011883D01*
X019184Y011937D01*
X019045Y011955D01*
X018906Y011937D01*
X018777Y011883D01*
X018665Y011798D01*
X018645Y011771D01*
X018487Y011825D01*
Y011951D01*
X017422D01*
Y010885D01*
X018129D01*
X018183Y010728D01*
X01812Y01068D01*
X018035Y010569D01*
X017981Y010439D01*
X017963Y0103D01*
X017981Y010161D01*
X018035Y010031D01*
X01812Y00992D01*
X018231Y009835D01*
X018361Y009781D01*
X0185Y009763D01*
X018639Y009781D01*
X018769Y009835D01*
X01888Y00992D01*
X018958Y010022D01*
X019022Y010031D01*
X019069D01*
X019132Y010022D01*
X019211Y00992D01*
X019322Y009835D01*
X019452Y009781D01*
X019591Y009763D01*
X01973Y009781D01*
X019859Y009835D01*
X01997Y00992D01*
X020049Y010022D01*
X020112Y010031D01*
X020159D01*
X020223Y010022D01*
X020301Y00992D01*
X020412Y009835D01*
X020542Y009781D01*
X020681Y009763D01*
X02082Y009781D01*
X02095Y009835D01*
X021061Y00992D01*
X02114Y010022D01*
X021203Y010031D01*
X02125D01*
X021313Y010022D01*
X021392Y00992D01*
X021503Y009835D01*
X021633Y009781D01*
X021772Y009763D01*
X021911Y009781D01*
X02204Y009835D01*
X022152Y00992D01*
X022237Y010031D01*
X022291Y010161D01*
X022309Y0103D01*
X022291Y010439D01*
X022237Y010569D01*
X022152Y01068D01*
X02204Y010765D01*
X021911Y010819D01*
X021772Y010837D01*
X021633Y010819D01*
X021503Y010765D01*
X021392Y01068D01*
X021313Y010578D01*
X02125Y010569D01*
X021203D01*
X02114Y010578D01*
X021061Y01068D01*
X02095Y010765D01*
X02082Y010819D01*
X020681Y010837D01*
X020542Y010819D01*
X020412Y010765D01*
X020301Y01068D01*
X020223Y010578D01*
X020159Y010569D01*
X020112D01*
X020049Y010578D01*
X01997Y01068D01*
X019859Y010765D01*
X01973Y010819D01*
X019591Y010837D01*
X019452Y010819D01*
X019322Y010765D01*
X019211Y01068D01*
X019132Y010578D01*
X019069Y010569D01*
X019022D01*
X018958Y010578D01*
X01888Y01068D01*
X018769Y010765D01*
X018639Y010819D01*
X018618Y010822D01*
X018534Y010863D01*
X01853Y010956D01*
X018609Y011004D01*
X018685Y011023D01*
X018777Y010953D01*
X018906Y010899D01*
X019045Y010881D01*
X019184Y010899D01*
X019314Y010953D01*
X019425Y011038D01*
X019504Y011141D01*
X019567Y011149D01*
X019614D01*
X019677Y011141D01*
X019756Y011038D01*
X019867Y010953D01*
X019997Y010899D01*
X020136Y010881D01*
X020275Y010899D01*
X020404Y010953D01*
X020516Y011038D01*
X020594Y011141D01*
X020658Y011149D01*
X020705D01*
X020768Y011141D01*
X020846Y011038D01*
X020958Y010953D01*
X021087Y010899D01*
X021226Y010881D01*
X021365Y010899D01*
X021495Y010953D01*
X021606Y011038D01*
X021692Y011149D01*
X021745Y011279D01*
X02184Y011296D01*
X021905Y011283D01*
X021939Y0112D01*
X021978Y01115D01*
X022246Y011418D01*
X022138Y011526D01*
X021985Y011391D01*
X021983Y011403D01*
X021978Y011416D01*
X021971Y011431D01*
X021961Y011448D01*
X021948Y011466D01*
X021914Y011508D01*
X021877Y011548D01*
X02184Y011541D01*
X021745Y011557D01*
X021692Y011687D01*
X021606Y011798D01*
X021495Y011883D01*
X021365Y011937D01*
X021226Y011955D01*
D02*
G37*
G36*
X021978Y011687D02*
X021969Y011675D01*
X021981Y011684D01*
X021978Y011687D01*
D02*
G37*
G36*
X022317Y011855D02*
X022282Y01185D01*
X022383Y011744D01*
X022213Y011593D01*
X022317Y011489D01*
X022585Y011757D01*
X022535Y011796D01*
X02243Y01184D01*
X022317Y011855D01*
D02*
G37*
G36*
X022656Y011687D02*
X022388Y011418D01*
X022656Y01115D01*
X022695Y0112D01*
X022738Y011305D01*
X022753Y011418D01*
X022738Y011531D01*
X022695Y011636D01*
X022656Y011687D01*
D02*
G37*
G36*
X022317Y011347D02*
X022048Y011079D01*
X022099Y01104D01*
X022204Y010997D01*
X022317Y010982D01*
X02243Y010997D01*
X022535Y01104D01*
X022585Y011079D01*
X022317Y011347D01*
D02*
G37*
G36*
X015217Y012D02*
X015038Y011986D01*
X014864Y011944D01*
X014699Y011875D01*
X014546Y011782D01*
X01441Y011666D01*
X014294Y011529D01*
X0142Y011377D01*
X014132Y011212D01*
X01409Y011037D01*
X014076Y010859D01*
X01409Y010681D01*
X014132Y010507D01*
X0142Y010341D01*
X014294Y010189D01*
X01441Y010053D01*
X014546Y009936D01*
X014699Y009843D01*
X014864Y009774D01*
X015038Y009733D01*
X015217Y009719D01*
X015395Y009733D01*
X015569Y009774D01*
X015734Y009843D01*
X015887Y009936D01*
X016023Y010053D01*
X016139Y010189D01*
X016233Y010341D01*
X016301Y010507D01*
X016343Y010681D01*
X016357Y010859D01*
X016343Y011037D01*
X016301Y011212D01*
X016233Y011377D01*
X016139Y011529D01*
X016023Y011666D01*
X015887Y011782D01*
X015734Y011875D01*
X015569Y011944D01*
X015395Y011986D01*
X015217Y012D01*
D02*
G37*
G36*
X025055D02*
X024877Y011986D01*
X024703Y011944D01*
X024537Y011875D01*
X024385Y011782D01*
X024249Y011666D01*
X024132Y011529D01*
X024039Y011377D01*
X02397Y011212D01*
X023929Y011037D01*
X023915Y010859D01*
X023929Y010681D01*
X02397Y010507D01*
X024039Y010341D01*
X024132Y010189D01*
X024249Y010053D01*
X024385Y009936D01*
X024489Y009872D01*
X024502Y009861D01*
X024563Y009826D01*
X024613Y009793D01*
X024633Y009779D01*
Y009214D01*
X024733D01*
Y008684D01*
X025015Y008966D01*
X02505Y00893D01*
X025085Y008966D01*
X025367Y008684D01*
Y009214D01*
X025467D01*
Y009772D01*
X025544Y009824D01*
X025603Y009858D01*
X025615Y009869D01*
X025726Y009936D01*
X025862Y010053D01*
X025978Y010189D01*
X026071Y010341D01*
X02614Y010507D01*
X026182Y010681D01*
X026196Y010859D01*
X026182Y011037D01*
X02614Y011212D01*
X026071Y011377D01*
X025978Y011529D01*
X025862Y011666D01*
X025726Y011782D01*
X025573Y011875D01*
X025408Y011944D01*
X025234Y011986D01*
X025055Y012D01*
D02*
G37*
G36*
X02505Y00886D02*
X024804Y008614D01*
X025296D01*
X02505Y00886D01*
D02*
G37*
%LPD*%
G36*
X007281Y042224D02*
X007249Y042173D01*
X007236Y042149D01*
X007225Y042126D01*
X007216Y042104D01*
X007209Y042082D01*
X007204Y042061D01*
X007201Y04204D01*
X0072Y042021D01*
X007D01*
X006999Y04204D01*
X006996Y042061D01*
X006991Y042082D01*
X006984Y042104D01*
X006975Y042126D01*
X006964Y042149D01*
X006951Y042173D01*
X006919Y042224D01*
X0069Y04225D01*
X0073D01*
X007281Y042224D01*
D02*
G37*
G36*
X011931Y039454D02*
X012208Y03927D01*
X012219Y039268D01*
Y039168D01*
X012208Y039166D01*
X012192Y039159D01*
X012171Y039147D01*
X012112Y03911D01*
X011931Y038982D01*
X011873Y038938D01*
Y039498D01*
X011931Y039454D01*
D02*
G37*
G36*
Y038454D02*
X012208Y03827D01*
X012219Y038268D01*
Y038168D01*
X012208Y038166D01*
X012192Y038159D01*
X012171Y038147D01*
X012112Y03811D01*
X011931Y037982D01*
X011873Y037938D01*
Y038498D01*
X011931Y038454D01*
D02*
G37*
G36*
X010452Y037938D02*
X010394Y037982D01*
X010117Y038166D01*
X010106Y038168D01*
Y038268D01*
X010117Y03827D01*
X010133Y038277D01*
X010154Y038289D01*
X010213Y038325D01*
X010394Y038454D01*
X010452Y038498D01*
Y037938D01*
D02*
G37*
G36*
X011019Y037195D02*
X011085Y036869D01*
X011091Y03686D01*
X01102Y036789D01*
X011011Y036795D01*
X010995Y036801D01*
X010972Y036808D01*
X010904Y036824D01*
X010685Y036861D01*
X010613Y036871D01*
X011009Y037267D01*
X011019Y037195D01*
D02*
G37*
G36*
Y036195D02*
X011085Y035869D01*
X011091Y03586D01*
X01102Y035789D01*
X011011Y035795D01*
X010995Y035801D01*
X010972Y035808D01*
X010904Y035824D01*
X010685Y035861D01*
X010613Y035871D01*
X011009Y036267D01*
X011019Y036195D01*
D02*
G37*
G36*
X011916Y03547D02*
X012202Y035302D01*
X012213Y0353D01*
X012222Y0352D01*
X012212Y035198D01*
X012196Y03519D01*
X012176Y035178D01*
X012119Y035138D01*
X011996Y03504D01*
X011888Y034951D01*
X011856Y035509D01*
X011916Y03547D01*
D02*
G37*
G36*
X010452Y034938D02*
X010406Y034972D01*
X010249Y035073D01*
X010217Y035089D01*
X010187Y035102D01*
X010161Y035111D01*
X010138Y035116D01*
X010117Y035118D01*
Y035318D01*
X010138Y03532D01*
X010161Y035325D01*
X010187Y035334D01*
X010217Y035347D01*
X010249Y035363D01*
X010321Y035406D01*
X010406Y035464D01*
X010452Y035498D01*
Y034938D01*
D02*
G37*
G36*
X030659Y034962D02*
X030773Y034862D01*
X030784Y034856D01*
X030793Y034851D01*
X0308Y03485D01*
X0307Y03475D01*
X030699Y034757D01*
X030694Y034766D01*
X030688Y034777D01*
X030678Y034791D01*
X03065Y034824D01*
X030588Y034891D01*
X030562Y034917D01*
X030633Y034988D01*
X030659Y034962D01*
D02*
G37*
G36*
X011931Y034454D02*
X012208Y03427D01*
X012219Y034268D01*
Y034168D01*
X012208Y034166D01*
X012192Y034159D01*
X012171Y034147D01*
X012112Y03411D01*
X011931Y033982D01*
X011873Y033938D01*
Y034498D01*
X011931Y034454D01*
D02*
G37*
G36*
X010452Y033938D02*
X010406Y033972D01*
X010249Y034073D01*
X010217Y034089D01*
X010187Y034102D01*
X010161Y034111D01*
X010138Y034116D01*
X010117Y034118D01*
Y034318D01*
X010138Y03432D01*
X010161Y034325D01*
X010187Y034334D01*
X010217Y034347D01*
X010249Y034363D01*
X010321Y034406D01*
X010406Y034464D01*
X010452Y034498D01*
Y033938D01*
D02*
G37*
G36*
X011931Y033454D02*
X012208Y03327D01*
X012219Y033268D01*
Y033168D01*
X012208Y033166D01*
X012192Y033159D01*
X012171Y033147D01*
X012112Y03311D01*
X011931Y032982D01*
X011873Y032938D01*
Y033498D01*
X011931Y033454D01*
D02*
G37*
G36*
X010452Y031938D02*
X010394Y031982D01*
X010117Y032166D01*
X010106Y032168D01*
Y032268D01*
X010117Y03227D01*
X010133Y032277D01*
X010154Y032289D01*
X010213Y032325D01*
X010394Y032454D01*
X010452Y032498D01*
Y031938D01*
D02*
G37*
G36*
X01875Y03085D02*
Y02855D01*
X0161D01*
Y0308D01*
X0162Y0309D01*
X0187D01*
X01875Y03085D01*
D02*
G37*
G36*
X064752Y028775D02*
X064757Y028751D01*
X064766Y028725D01*
X064779Y028696D01*
X064795Y028664D01*
X064838Y028591D01*
X064896Y028507D01*
X06493Y02846D01*
X06437D01*
X064404Y028507D01*
X064505Y028664D01*
X064521Y028696D01*
X064534Y028725D01*
X064543Y028751D01*
X064548Y028775D01*
X06455Y028795D01*
X06475D01*
X064752Y028775D01*
D02*
G37*
G36*
X010903Y028479D02*
X011061Y02839D01*
X011094Y028375D01*
X011124Y028364D01*
X011151Y028356D01*
X011175Y028352D01*
X011196Y02835D01*
X011216Y02815D01*
X011196Y028148D01*
X011173Y028142D01*
X011148Y028132D01*
X011119Y028118D01*
X011088Y0281D01*
X011017Y028052D01*
X010934Y027988D01*
X010888Y027951D01*
X010662Y028251D01*
X010436Y027951D01*
X010391Y027988D01*
X010308Y028052D01*
X010237Y0281D01*
X010205Y028118D01*
X010177Y028132D01*
X010151Y028142D01*
X010129Y028148D01*
X010109Y02815D01*
X010128Y02835D01*
X01015Y028352D01*
X010174Y028356D01*
X010201Y028364D01*
X010231Y028375D01*
X010264Y02839D01*
X010422Y028479D01*
X010469Y028509D01*
X010662Y028251D01*
X010856Y028509D01*
X010903Y028479D01*
D02*
G37*
G36*
X008326Y028431D02*
X008377Y028399D01*
X008401Y028386D01*
X008424Y028375D01*
X008446Y028366D01*
X008468Y028359D01*
X008489Y028354D01*
X00851Y028351D01*
X008529Y02835D01*
Y02815D01*
X00851Y028149D01*
X008489Y028146D01*
X008468Y028141D01*
X008446Y028134D01*
X008424Y028125D01*
X008401Y028114D01*
X008377Y028101D01*
X008326Y028069D01*
X0083Y02805D01*
Y02845D01*
X008326Y028431D01*
D02*
G37*
G36*
X042352Y025046D02*
X042359Y02503D01*
X042371Y025008D01*
X042407Y02495D01*
X042536Y024769D01*
X04258Y02471D01*
X04202D01*
X042064Y024769D01*
X042248Y025046D01*
X04225Y025056D01*
X04235D01*
X042352Y025046D01*
D02*
G37*
G36*
X039552D02*
X039559Y02503D01*
X039571Y025008D01*
X039607Y02495D01*
X039736Y024769D01*
X03978Y02471D01*
X03922D01*
X039264Y024769D01*
X039448Y025046D01*
X03945Y025056D01*
X03955D01*
X039552Y025046D01*
D02*
G37*
G36*
X036652D02*
X036659Y02503D01*
X036671Y025008D01*
X036707Y02495D01*
X036836Y024769D01*
X03688Y02471D01*
X03632D01*
X036364Y024769D01*
X036548Y025046D01*
X03655Y025056D01*
X03665D01*
X036652Y025046D01*
D02*
G37*
G36*
X033652D02*
X033659Y02503D01*
X033671Y025008D01*
X033707Y02495D01*
X033836Y024769D01*
X03388Y02471D01*
X03332D01*
X033364Y024769D01*
X033548Y025046D01*
X03355Y025056D01*
X03365D01*
X033652Y025046D01*
D02*
G37*
G36*
X030902Y025025D02*
X030907Y025001D01*
X030916Y024975D01*
X030929Y024946D01*
X030945Y024914D01*
X030988Y024841D01*
X031046Y024757D01*
X03108Y02471D01*
X03052D01*
X030554Y024757D01*
X030655Y024914D01*
X030671Y024946D01*
X030684Y024975D01*
X030693Y025001D01*
X030698Y025025D01*
X0307Y025045D01*
X0309D01*
X030902Y025025D01*
D02*
G37*
G36*
X025001Y021084D02*
X025006Y021071D01*
X025013Y021054D01*
X025024Y021034D01*
X025054Y020985D01*
X025121Y020889D01*
X02515Y02085D01*
X02475D01*
X024779Y020889D01*
X024887Y021054D01*
X024894Y021071D01*
X024899Y021084D01*
X0249Y021095D01*
X025D01*
X025001Y021084D01*
D02*
G37*
G36*
X021802Y020784D02*
X021806Y020771D01*
X021813Y020754D01*
X021824Y020734D01*
X021854Y020685D01*
X021921Y020589D01*
X02195Y02055D01*
X02155D01*
X021579Y020589D01*
X021687Y020754D01*
X021694Y020771D01*
X021699Y020784D01*
X0217Y020795D01*
X0218D01*
X021802Y020784D01*
D02*
G37*
G36*
X018501D02*
X018506Y020771D01*
X018513Y020754D01*
X018524Y020734D01*
X018554Y020685D01*
X018621Y020589D01*
X01865Y02055D01*
X01825D01*
X018279Y020589D01*
X018387Y020754D01*
X018394Y020771D01*
X018398Y020784D01*
X0184Y020795D01*
X0185D01*
X018501Y020784D01*
D02*
G37*
G36*
X01005Y02045D02*
X010012Y020479D01*
X009846Y020587D01*
X009829Y020594D01*
X009816Y020598D01*
X009805Y0206D01*
Y0207D01*
X009816Y020701D01*
X009829Y020706D01*
X009846Y020713D01*
X009866Y020724D01*
X009915Y020754D01*
X010012Y020821D01*
X01005Y02085D01*
Y02045D01*
D02*
G37*
G36*
X0451Y04045D02*
X045071Y040411D01*
X044963Y040246D01*
X044956Y040229D01*
X044952Y040216D01*
X04495Y040205D01*
X04485D01*
X044848Y040216D01*
X044844Y040229D01*
X044837Y040246D01*
X044826Y040266D01*
X044796Y040315D01*
X044729Y040412D01*
X0447Y04045D01*
X0451Y04045D01*
D02*
G37*
G36*
X044952Y025046D02*
X044959Y02503D01*
X044971Y025008D01*
X045007Y02495D01*
X045136Y024769D01*
X04518Y02471D01*
X04462D01*
X044664Y024769D01*
X044848Y025046D01*
X04485Y025056D01*
X04495D01*
X044952Y025046D01*
D02*
G37*
G36*
X025154Y010047D02*
X025155Y010036D01*
X025502Y010036D01*
X025436Y009998D01*
X025324Y009921D01*
X025278Y009883D01*
X02524Y009845D01*
X025208Y009807D01*
X025184Y009768D01*
X025167Y00973D01*
X025156Y009691D01*
X025153Y009653D01*
X024953D01*
X024949Y009691D01*
X024939Y00973D01*
X024921Y009769D01*
X024897Y009807D01*
X024865Y009846D01*
X024827Y009884D01*
X024782Y009923D01*
X024729Y009961D01*
X02467Y01D01*
X024604Y010038D01*
X02495Y010037D01*
X024951Y010047D01*
X024953Y010085D01*
X025153D01*
X025154Y010047D01*
D02*
G37*
D22*
X0074Y02175D02*
Y0306D01*
X009018Y032218D01*
X0074Y02175D02*
X0085Y02065D01*
X0102D01*
X009018Y032218D02*
X010662D01*
X02185Y0267D02*
X02495Y0236D01*
X0151Y02905D02*
X01745Y0267D01*
X02185D01*
X0143Y0288D02*
X0183Y0248D01*
X01985D02*
X02175Y0229D01*
X0183Y0248D02*
X01985D01*
X02495Y0207D02*
Y0236D01*
X02175Y0204D02*
Y0229D01*
X011662Y033218D02*
X013282D01*
X01355Y03295D01*
Y02895D02*
Y03295D01*
Y02895D02*
X01845Y02405D01*
X0143Y0288D02*
Y03345D01*
X013532Y034218D02*
X0143Y03345D01*
X01845Y0204D02*
Y02405D01*
X0151Y02905D02*
Y03395D01*
X011694Y03525D02*
X0138D01*
X0151Y03395D01*
X011662Y035218D02*
X011694Y03525D01*
X011662Y034218D02*
X013532D01*
X00935Y040241D02*
X009759Y04065D01*
X010598Y038218D02*
X01063Y03825D01*
X00935Y0387D02*
Y040241D01*
Y0387D02*
X009832Y038218D01*
X010598D01*
X01063Y03825D02*
X010662Y038218D01*
X011162Y035718D02*
X029832D01*
X0308Y03475D01*
X011662Y039218D02*
X0382D01*
X0395Y0245D02*
Y037918D01*
X0382Y039218D02*
X0395Y037918D01*
X011662Y038218D02*
X035782D01*
X0366Y0374D01*
Y0245D02*
Y0374D01*
X04025Y04065D02*
X0423Y0386D01*
X009759Y04065D02*
X04025D01*
X0449Y0245D02*
Y0406D01*
X0449Y0406D01*
X0423Y0245D02*
Y0386D01*
X011162Y036718D02*
X033024D01*
X0336Y0245D02*
Y036141D01*
X033024Y036718D02*
X0336Y036141D01*
X010662Y037218D02*
X011162Y036718D01*
X010662Y036218D02*
X011162Y035718D01*
D28*
X0515Y00885D02*
D03*
Y00955D02*
D03*
X03175D02*
D03*
Y00885D02*
D03*
X02505Y00965D02*
D03*
Y00895D02*
D03*
D56*
X021772Y0103D02*
D03*
X019045Y011418D02*
D03*
X019591Y0103D02*
D03*
X021226Y011418D02*
D03*
X0185Y0103D02*
D03*
X020136Y011418D02*
D03*
X020681Y0103D02*
D03*
X022317Y011418D02*
D03*
D63*
X065867Y0085D02*
G03*
X06635Y0087I0J000683D01*
G01*
X067167Y0082D02*
G03*
X06765Y0084I0J000683D01*
G01*
X06785Y0086D02*
G03*
X06795Y008841I-000242J000241D01*
G01*
X066825Y009175D02*
G03*
X06695Y009477I-000302J000302D01*
G01*
X055264Y0093D02*
G03*
X055451Y008849I000638J0D01*
G01*
X05595Y00835D02*
G03*
X056312Y0082I000362J000362D01*
G01*
X0569Y009564D02*
G03*
X057193Y008857I001J0D01*
G01*
X05735Y0087D02*
G03*
X057833Y0085I000483J000483D01*
G01*
X058536Y00965D02*
G03*
X058738Y009162I00069J0D01*
G01*
X058857Y009043D02*
G03*
X059324Y00885I000467J000467D01*
G01*
X058856Y009044D02*
G03*
X058857Y009043I000467J000467D01*
G01*
X0627Y00915D02*
G03*
X062805Y009403I-000253J000253D01*
G01*
X062188Y00885D02*
G03*
X06255Y009I0J000512D01*
G01*
X0553Y01255D02*
G03*
X055496Y012077I000669J0D01*
G01*
X05155Y018591D02*
G03*
X05165Y01835I000341J0D01*
G01*
X053134Y016605D02*
G03*
X05295Y01705I-00063J0D01*
G01*
X0546Y017727D02*
G03*
X054725Y017425I000427J0D01*
G01*
X0553Y016603D02*
G03*
X055125Y017025I-000597J0D01*
G01*
X059919Y015469D02*
G03*
X059626Y014762I000707J-000707D01*
G01*
X061555Y014705D02*
G03*
X061262Y013998I000707J-000707D01*
G01*
X064314Y0137D02*
G03*
X063607Y013407I0J-001D01*
G01*
X063025Y012825D02*
G03*
X062805Y012293I000532J-000532D01*
G01*
X063214Y014664D02*
G03*
X062772Y014407I000264J-000964D01*
G01*
X063479Y0147D02*
G03*
X063214Y014664I0J-001D01*
G01*
X057991Y016531D02*
G03*
X0579Y01675I-000309J0D01*
G01*
X0577Y017091D02*
G03*
X0578Y01685I000341J0D01*
G01*
X059123Y016773D02*
G03*
X0593Y0172I-000427J000427D01*
G01*
X059011Y016661D02*
G03*
X0589Y016392I00027J-000269D01*
G01*
X059012Y016662D02*
G03*
X059011Y016661I000269J-000269D01*
G01*
X060557Y016107D02*
G03*
X06085Y016814I-000707J000707D01*
G01*
X062157Y016607D02*
G03*
X06245Y017314I-000707J000707D01*
G01*
X063807Y016957D02*
G03*
X0641Y017664I-000707J000707D01*
G01*
X065707Y017383D02*
G03*
X066Y01809I-000707J000707D01*
G01*
X06635Y0087D02*
X066825Y009175D01*
X057833Y0085D02*
X065867D01*
X06765Y0084D02*
X06785Y0086D01*
X056312Y0082D02*
X067167D01*
X06795Y008841D02*
Y0127D01*
X06695Y009477D02*
Y0127D01*
X055264Y0093D02*
Y010918D01*
X05595Y00835D02*
X05595Y00835D01*
X055451Y008849D02*
X05595Y00835D01*
X0569Y009564D02*
Y0101D01*
X057193Y008857D02*
X05735Y0087D01*
X058738Y009162D02*
X058856Y009044D01*
X059324Y00885D02*
X062188D01*
X058536Y00965D02*
Y010918D01*
X06255Y009D02*
X0627Y00915D01*
X062805Y009403D02*
Y012293D01*
X0553Y01255D02*
Y016603D01*
X055496Y012077D02*
X056355Y011218D01*
X05165Y01835D02*
X05295Y01705D01*
X05155Y018591D02*
Y0196D01*
X053134Y010316D02*
Y016605D01*
X054725Y017425D02*
X055125Y017025D01*
X0546Y017727D02*
Y0196D01*
X059919Y015469D02*
X060557Y016107D01*
X059626Y011218D02*
Y014762D01*
X061555Y014705D02*
X063807Y016957D01*
X061262Y0098D02*
Y0101D01*
Y013998D01*
X063025Y012825D02*
X063607Y013407D01*
X064314Y0137D02*
X06695D01*
X063479Y0147D02*
X06695D01*
X061982Y013618D02*
X062772Y014407D01*
X0578Y01685D02*
X0579Y01675D01*
X0577Y017091D02*
Y0196D01*
X057991Y0101D02*
Y016531D01*
X059012Y016662D02*
X059123Y016773D01*
X0589Y01445D02*
Y016392D01*
X0593Y0172D02*
Y0207D01*
X06085Y016814D02*
Y0196D01*
X0607Y01515D02*
X062157Y016607D01*
X06245Y017314D02*
Y02055D01*
X0641Y017664D02*
Y0196D01*
X06395Y015625D02*
X065707Y017383D01*
X066Y01809D02*
Y020275D01*
X05335Y0101D02*
X054719D01*
X053134Y010316D02*
X05335Y0101D01*
X00815Y02825D02*
X011294D01*
X011494Y02805D01*
X011662Y028218D01*
X02505Y00965D02*
X025053Y009653D01*
Y010856D01*
X025055Y010859D01*
X00845Y03605D02*
Y043933D01*
X06465Y02825D02*
Y042287D01*
X062887Y04405D02*
X06465Y042287D01*
X00845Y043933D02*
X008567Y04405D01*
X062887D01*
X028685Y014063D02*
X028985D01*
X019797Y016203D02*
X0199Y0161D01*
X01975Y01625D02*
X019797Y016203D01*
X009282Y035218D02*
X010662D01*
X00845Y03605D02*
X009282Y035218D01*
X041581Y0102D02*
X041866Y009916D01*
X0308Y0245D02*
Y03475D01*
X0071Y03515D02*
Y0424D01*
Y03515D02*
X008032Y034218D01*
X01073Y02915D02*
X01078Y0292D01*
X010662Y029218D02*
X01073Y02915D01*
X008032Y034218D02*
X010662D01*
X031695Y009605D02*
X03175Y00955D01*
X031696Y010705D02*
X03175Y010759D01*
X042121Y011319D02*
X042122Y01132D01*
X040491Y0102D02*
X041581D01*
X041036Y011318D02*
X041037Y011319D01*
X042121D01*
X05615Y01295D02*
Y020775D01*
X05617Y020795D01*
X057991Y0098D02*
Y0101D01*
X059626Y010918D02*
Y011218D01*
X06795Y0147D02*
Y0157D01*
Y0137D02*
Y0147D01*
Y0127D02*
Y0137D01*
D64*
X06785Y0086D02*
D03*
X055451Y008849D02*
D03*
X05595Y00835D02*
D03*
X058738Y009162D02*
D03*
X06255Y009D02*
D03*
X05165Y01835D02*
D03*
X0578Y01685D02*
D03*
D65*
X028985Y014213D02*
X03385D01*
X0335Y01375D02*
X03395Y0142D01*
X03965Y014213D02*
X0425D01*
X03695Y0142D02*
X03955D01*
X03685Y0141D02*
X03695Y0142D01*
X0425Y014213D02*
X045237D01*
X03675Y0142D02*
X03685Y0141D01*
X03955Y0142D02*
X03965Y0141D01*
X03395Y0142D02*
X03675D01*
X013193Y0087D02*
X04065D01*
X0129Y008993D02*
X013193Y0087D01*
X0129Y008993D02*
Y028D01*
X05135Y0087D02*
X0515Y00885D01*
X0335Y0104D02*
Y01375D01*
X038309Y0102D02*
X0394D01*
X037219D02*
X038309D01*
X036128D02*
X037219D01*
X035038D02*
X036128D01*
X0337D02*
X035038D01*
X0335Y0104D02*
X0337Y0102D01*
X045237Y014213D02*
X0453Y01415D01*
X04065Y0087D02*
X041866Y009916D01*
X04065Y0087D02*
X05135D01*
X0129Y028D02*
Y029912D01*
Y028D02*
X01505Y02585D01*
Y01565D02*
Y02585D01*
X022317Y011418D02*
Y011463D01*
X02175Y01203D02*
X022317Y011463D01*
X02175Y01203D02*
Y0127D01*
X0211Y01335D02*
X02175Y0127D01*
X01735Y01335D02*
X0211D01*
X01505Y01565D02*
X01735Y01335D01*
X0174Y0292D02*
X02115D01*
X016589Y016203D02*
X019797D01*
X029704Y023096D02*
X044546D01*
X0174Y0296D02*
X0184Y0306D01*
X016562Y016176D02*
X016589Y016203D01*
X012556Y030256D02*
X0129Y029912D01*
X011701Y030256D02*
X012556D01*
X011662Y030218D02*
X011701Y030256D01*
X0222Y0306D02*
X029704Y023096D01*
X0184Y0306D02*
X0222D01*
X025676Y01615D02*
X0261Y016574D01*
X023Y01615D02*
X025676D01*
X019797Y016203D02*
X022947D01*
X023Y01615D01*
X02115Y0292D02*
X0261Y02425D01*
X0174Y0292D02*
Y0296D01*
X0261Y016574D02*
Y02425D01*
Y016174D02*
Y016574D01*
X04445Y023D02*
X044546Y023096D01*
X042122Y010172D02*
Y01132D01*
X041866Y009916D02*
X042122Y010172D01*
X024683Y010859D02*
X025055D01*
D66*
X04895Y02095D02*
G03*
X04795Y01995I0J-001D01*
G01*
X04895Y02095D02*
X053D01*
X04795Y015316D02*
Y01995D01*
D67*
X06695Y0157D02*
D03*
X049Y0121D02*
D03*
D68*
X06695Y0147D02*
D03*
Y0137D02*
D03*
Y0127D02*
D03*
X06795D02*
D03*
Y0137D02*
D03*
Y0147D02*
D03*
Y0157D02*
D03*
X049Y0131D02*
D03*
Y0141D02*
D03*
Y0151D02*
D03*
X048D02*
D03*
Y0141D02*
D03*
Y0131D02*
D03*
Y0121D02*
D03*
D69*
X011662Y032218D02*
D03*
X010662Y039218D02*
D03*
X011662D02*
D03*
X010662Y038218D02*
D03*
X011662D02*
D03*
X010662Y037218D02*
D03*
X011662D02*
D03*
X010662Y036218D02*
D03*
X011662D02*
D03*
X010662Y035218D02*
D03*
X011662D02*
D03*
X010662Y034218D02*
D03*
X011662D02*
D03*
X010662Y033218D02*
D03*
X011662D02*
D03*
X010662Y032218D02*
D03*
X010662Y029218D02*
D03*
X010662Y028218D02*
D03*
X011662Y028218D02*
D03*
X011662Y029218D02*
D03*
X011662Y030218D02*
D03*
X010662Y031218D02*
D03*
X011662Y031218D02*
D03*
X010662Y027218D02*
D03*
X010662Y030218D02*
D03*
X028985Y015213D02*
D03*
X028985Y014213D02*
D03*
X0318Y0245D02*
D03*
X0308Y0245D02*
D03*
X0346Y0245D02*
D03*
X0336Y0245D02*
D03*
X0376Y0245D02*
D03*
X0366Y0245D02*
D03*
X0405Y0245D02*
D03*
X0395Y0245D02*
D03*
X0433Y0245D02*
D03*
X0423Y0245D02*
D03*
X0459Y0245D02*
D03*
X0449Y0245D02*
D03*
X06365Y02825D02*
D03*
X06465Y02825D02*
D03*
X0604Y02825D02*
D03*
X0614Y02825D02*
D03*
X05725D02*
D03*
X05825Y02825D02*
D03*
X0543Y0284D02*
D03*
X0553Y0284D02*
D03*
X05095Y02835D02*
D03*
X05195Y02835D02*
D03*
D70*
X011662Y027218D02*
D03*
D71*
X017955Y011418D02*
D03*
X054174Y011218D02*
D03*
X034493Y011318D02*
D03*
D72*
X015217Y010859D02*
D03*
X025055D02*
D03*
D73*
X061803Y01122D02*
D03*
X061262Y0101D02*
D03*
X060717Y011218D02*
D03*
X060172Y0101D02*
D03*
X059626Y011218D02*
D03*
X059081Y0101D02*
D03*
X058536Y011218D02*
D03*
X057991Y0101D02*
D03*
X057445Y011218D02*
D03*
X0569Y0101D02*
D03*
X056355Y011218D02*
D03*
X055809Y0101D02*
D03*
X055264Y011218D02*
D03*
X054719Y0101D02*
D03*
X042122Y01132D02*
D03*
X041581Y0102D02*
D03*
X041036Y011318D02*
D03*
X040491Y0102D02*
D03*
X039945Y011318D02*
D03*
X0394Y0102D02*
D03*
X038855Y011318D02*
D03*
X038309Y0102D02*
D03*
X037764Y011318D02*
D03*
X037219Y0102D02*
D03*
X036674Y011318D02*
D03*
X036128Y0102D02*
D03*
X035583Y011318D02*
D03*
X035038Y0102D02*
D03*
D74*
X06455Y010659D02*
D03*
X051431D02*
D03*
X044868Y010759D02*
D03*
X03175D02*
D03*
D75*
X06185Y0196D02*
D03*
X06085D02*
D03*
X05985D02*
D03*
X05255D02*
D03*
X05155D02*
D03*
X05055D02*
D03*
X0587D02*
D03*
X0577D02*
D03*
X0567D02*
D03*
X0651D02*
D03*
X0641D02*
D03*
X0631D02*
D03*
X0556D02*
D03*
X0546D02*
D03*
X0536D02*
D03*
D76*
X0233Y02075D02*
D03*
X01985D02*
D03*
X01665Y0208D02*
D03*
X0117Y0196D02*
D03*
X01665Y02965D02*
D03*
X0184Y02935D02*
D03*
X0167Y0305D02*
D03*
X0182Y03045D02*
D03*
D77*
X00815Y02825D02*
D03*
X0102Y02065D02*
D03*
X02495Y0207D02*
D03*
X016562Y016176D02*
D03*
X023Y01615D02*
D03*
X01975Y01625D02*
D03*
X0261Y016174D02*
D03*
X01845Y0204D02*
D03*
X02175D02*
D03*
X0449Y0406D02*
D03*
X0071Y0424D02*
D03*
X030585Y02305D02*
D03*
X0174Y0292D02*
D03*
X0453Y01415D02*
D03*
X0425D02*
D03*
X03385Y0141D02*
D03*
X03965D02*
D03*
X03685D02*
D03*
X0418Y02305D02*
D03*
X0391D02*
D03*
X03635Y023D02*
D03*
X03335Y02295D02*
D03*
X04445Y023D02*
D03*
X05615Y01295D02*
D03*
X053Y0209D02*
D03*
X05617Y020795D02*
D03*
X06605Y0203D02*
D03*
X061982Y013618D02*
D03*
X0607Y01515D02*
D03*
X0589Y01445D02*
D03*
X0593Y0207D02*
D03*
X06245Y02055D02*
D03*
X06395Y015625D02*
D03*
D78*
X006575Y01325D02*
D03*
X07035D02*
D03*
X006575Y04915D02*
D03*
X07035Y0491D02*
D03*
M02*
