G04*
G04 #@! TF.GenerationSoftware,Altium Limited,Altium Designer,20.1.12 (249)*
G04*
G04 Layer_Color=255*
%FSTAX24Y24*%
%MOIN*%
G70*
G04*
G04 #@! TF.SameCoordinates,50E87493-BE94-4217-AE32-DCF7016E3123*
G04*
G04*
G04 #@! TF.FilePolarity,Positive*
G04*
G01*
G75*
%ADD28R,0.0433X0.0472*%
%ADD56C,0.0665*%
%ADD67R,0.0709X0.0709*%
%ADD68C,0.0709*%
%ADD69C,0.0700*%
%ADD70R,0.0700X0.0700*%
%ADD71R,0.0665X0.0665*%
%ADD72C,0.1874*%
%ADD73C,0.0665*%
%ADD74C,0.1890*%
%ADD75O,0.0660X0.1000*%
D28*
X0515Y00885D02*
D03*
Y00955D02*
D03*
X03175D02*
D03*
Y00885D02*
D03*
X02505Y00965D02*
D03*
Y00895D02*
D03*
D56*
X021772Y0103D02*
D03*
X019045Y011418D02*
D03*
X019591Y0103D02*
D03*
X021226Y011418D02*
D03*
X0185Y0103D02*
D03*
X020136Y011418D02*
D03*
X020681Y0103D02*
D03*
X022317Y011418D02*
D03*
D67*
X06695Y0157D02*
D03*
X049Y0121D02*
D03*
D68*
X06695Y0147D02*
D03*
Y0137D02*
D03*
Y0127D02*
D03*
X06795D02*
D03*
Y0137D02*
D03*
Y0147D02*
D03*
Y0157D02*
D03*
X049Y0131D02*
D03*
Y0141D02*
D03*
Y0151D02*
D03*
X048D02*
D03*
Y0141D02*
D03*
Y0131D02*
D03*
Y0121D02*
D03*
D69*
X011662Y032218D02*
D03*
X010662Y039218D02*
D03*
X011662D02*
D03*
X010662Y038218D02*
D03*
X011662D02*
D03*
X010662Y037218D02*
D03*
X011662D02*
D03*
X010662Y036218D02*
D03*
X011662D02*
D03*
X010662Y035218D02*
D03*
X011662D02*
D03*
X010662Y034218D02*
D03*
X011662D02*
D03*
X010662Y033218D02*
D03*
X011662D02*
D03*
X010662Y032218D02*
D03*
X010662Y029218D02*
D03*
X010662Y028218D02*
D03*
X011662Y028218D02*
D03*
X011662Y029218D02*
D03*
X011662Y030218D02*
D03*
X010662Y031218D02*
D03*
X011662Y031218D02*
D03*
X010662Y027218D02*
D03*
X010662Y030218D02*
D03*
X028985Y015213D02*
D03*
X028985Y014213D02*
D03*
X0318Y0245D02*
D03*
X0308Y0245D02*
D03*
X0346Y0245D02*
D03*
X0336Y0245D02*
D03*
X0376Y0245D02*
D03*
X0366Y0245D02*
D03*
X0405Y0245D02*
D03*
X0395Y0245D02*
D03*
X0433Y0245D02*
D03*
X0423Y0245D02*
D03*
X0459Y0245D02*
D03*
X0449Y0245D02*
D03*
X06365Y02825D02*
D03*
X06465Y02825D02*
D03*
X0604Y02825D02*
D03*
X0614Y02825D02*
D03*
X05725D02*
D03*
X05825Y02825D02*
D03*
X0543Y0284D02*
D03*
X0553Y0284D02*
D03*
X05095Y02835D02*
D03*
X05195Y02835D02*
D03*
D70*
X011662Y027218D02*
D03*
D71*
X017955Y011418D02*
D03*
X054174Y011218D02*
D03*
X034493Y011318D02*
D03*
D72*
X015217Y010859D02*
D03*
X025055D02*
D03*
D73*
X061803Y01122D02*
D03*
X061262Y0101D02*
D03*
X060717Y011218D02*
D03*
X060172Y0101D02*
D03*
X059626Y011218D02*
D03*
X059081Y0101D02*
D03*
X058536Y011218D02*
D03*
X057991Y0101D02*
D03*
X057445Y011218D02*
D03*
X0569Y0101D02*
D03*
X056355Y011218D02*
D03*
X055809Y0101D02*
D03*
X055264Y011218D02*
D03*
X054719Y0101D02*
D03*
X042122Y01132D02*
D03*
X041581Y0102D02*
D03*
X041036Y011318D02*
D03*
X040491Y0102D02*
D03*
X039945Y011318D02*
D03*
X0394Y0102D02*
D03*
X038855Y011318D02*
D03*
X038309Y0102D02*
D03*
X037764Y011318D02*
D03*
X037219Y0102D02*
D03*
X036674Y011318D02*
D03*
X036128Y0102D02*
D03*
X035583Y011318D02*
D03*
X035038Y0102D02*
D03*
D74*
X06455Y010659D02*
D03*
X051431D02*
D03*
X044868Y010759D02*
D03*
X03175D02*
D03*
D75*
X06185Y0196D02*
D03*
X06085D02*
D03*
X05985D02*
D03*
X05255D02*
D03*
X05155D02*
D03*
X05055D02*
D03*
X0587D02*
D03*
X0577D02*
D03*
X0567D02*
D03*
X0651D02*
D03*
X0641D02*
D03*
X0631D02*
D03*
X0556D02*
D03*
X0546D02*
D03*
X0536D02*
D03*
M02*
