M48
;Layer_Color=9474304
;FILE_FORMAT=2:4
INCH,LZ
;TYPE=PLATED
T1F00S00C0.0236
T2F00S00C0.0280
T3F00S00C0.0320
T4F00S00C0.0354
T5F00S00C0.0400
T6F00S00C0.0429
T7F00S00C0.0433
T8F00S00C0.1252
T9F00S00C0.1299
T10F00S00C0.1575
%
T01
X01665Y0208
X01985Y02075
X0233
X0184Y02935
X0182Y03045
X0167Y0305
X01665Y02965
X0117Y0196
T02
X03385Y0141
X03685
X03965
X0425Y01415
X0453
X05615Y01295
X0589Y01445
X0607Y01515
X061982Y013618
X06395Y015625
X06605Y0203
X06245Y02055
X0593Y0207
X05617Y020795
X053Y0209
X04445Y023
X0418Y02305
X0391
X03635Y023
X03335Y02295
X030585Y02305
X02495Y0207
X02175Y0204
X01845
X01975Y01625
X016562Y016176
X023Y01615
X0261Y016174
X0174Y0292
X00815Y02825
X0102Y02065
X0071Y0424
X0449Y0406
T03
X0631Y0196
X0641
X0651
X06185
X06085
X05985
X0587
X0577
X0567
X0556
X0546
X0536
X05255
X05155
X05055
T04
X0185Y0103
X019591
X020681
X021772
X022317Y011418
X021226
X020136
X019045
X017955
T05
X028985Y014213
X028985Y015213
X06365Y02825
X06465Y02825
X0614Y02825
X0604Y02825
X05825Y02825
X05725Y02825
X0553Y0284
X0543Y0284
X05195Y02835
X05095Y02835
X0459Y0245
X0449Y0245
X0433Y0245
X0423Y0245
X0405Y0245
X0395Y0245
X0376Y0245
X0366Y0245
X0346Y0245
X0336Y0245
X0318Y0245
X0308Y0245
X011662Y027218
X011662Y028218
X010662Y028218
X010662Y027218
X010662Y029218
X011662
X011662Y030218
X010662
X010662Y031218
X011662Y031218
X011662Y032218
Y033218
Y034218
Y035218
Y036218
Y037218
Y038218
Y039218
X010662
Y038218
Y037218
Y036218
Y035218
Y034218
Y033218
Y032218
T06
X035038Y0102
X036128
X037219
X038309
X0394
X040491
X041581
X042122Y01132
X041036Y011318
X039945
X038855
X037764
X036674
X035583
X034493
X054174Y011218
X055264
X056355
X057445
X058536
X059626
X060717
X061803Y01122
X061262Y0101
X060172
X059081
X057991
X0569
X055809
X054719
T07
X048Y0121
X049
Y0131
Y0141
Y0151
X048
Y0141
Y0131
X06695Y0127
Y0137
Y0147
X06795
Y0137
Y0127
Y0157
X06695
T08
X03175Y010759
X044868
X051431Y010659
X06455
T09
X015217Y010859
X025055
T10
X006575Y01325
X07035
Y0491
X006575Y04915
M30
