G04*
G04 #@! TF.GenerationSoftware,Altium Limited,Altium Designer,20.1.12 (249)*
G04*
G04 Layer_Color=32768*
%FSTAX24Y24*%
%MOIN*%
G70*
G04*
G04 #@! TF.SameCoordinates,50E87493-BE94-4217-AE32-DCF7016E3123*
G04*
G04*
G04 #@! TF.FilePolarity,Positive*
G04*
G01*
G75*
%ADD16C,0.0039*%
%ADD84C,0.0020*%
D16*
X0247Y017979D02*
Y018373D01*
X024503Y018176D02*
X024897D01*
X02145Y017979D02*
Y018373D01*
X021253Y018176D02*
X021647D01*
X0182Y017979D02*
Y018373D01*
X018003Y018176D02*
X018397D01*
X014912Y017979D02*
Y018373D01*
X014716Y018176D02*
X015109D01*
D84*
X02395Y015605D02*
Y016195D01*
Y015605D02*
X025205D01*
X02525Y01565D02*
Y016195D01*
X025205Y015605D02*
X02525Y01565D01*
X0246Y015713D02*
Y016087D01*
X024413Y0159D02*
X024787D01*
X02395Y016195D02*
X02525D01*
X025955Y01685D02*
X026545D01*
Y018105D01*
X025955Y01815D02*
X0265D01*
X026545Y018105D01*
X026063Y0175D02*
X026437D01*
X02625Y017313D02*
Y017687D01*
X025955Y01685D02*
Y01815D01*
X023578Y016626D02*
X025822D01*
X023578Y019726D02*
X025822D01*
X023578Y016626D02*
Y019726D01*
X025822Y016626D02*
Y019726D01*
X058605Y01495D02*
X059195D01*
Y016205D01*
X058605Y01625D02*
X05915D01*
X059195Y016205D01*
X058713Y0156D02*
X059087D01*
X0589Y015413D02*
Y015787D01*
X058605Y01495D02*
Y01625D01*
X045555Y02245D02*
X046145D01*
X045555Y021195D02*
Y02245D01*
X0456Y02115D02*
X046145D01*
X045555Y021195D02*
X0456Y02115D01*
X045663Y0218D02*
X046037D01*
X04585Y021613D02*
Y021987D01*
X046145Y02115D02*
Y02245D01*
X042905D02*
X043495D01*
X042905Y021195D02*
Y02245D01*
X04295Y02115D02*
X043495D01*
X042905Y021195D02*
X04295Y02115D01*
X043013Y0218D02*
X043387D01*
X0432Y021613D02*
Y021987D01*
X043495Y02115D02*
Y02245D01*
X040255D02*
X040845D01*
X040255Y021195D02*
Y02245D01*
X0403Y02115D02*
X040845D01*
X040255Y021195D02*
X0403Y02115D01*
X040363Y0218D02*
X040737D01*
X04055Y021613D02*
Y021987D01*
X040845Y02115D02*
Y02245D01*
X037405D02*
X037995D01*
X037405Y021195D02*
Y02245D01*
X03745Y02115D02*
X037995D01*
X037405Y021195D02*
X03745Y02115D01*
X037513Y0218D02*
X037887D01*
X0377Y021613D02*
Y021987D01*
X037995Y02115D02*
Y02245D01*
X034605D02*
X035195D01*
X034605Y021195D02*
Y02245D01*
X03465Y02115D02*
X035195D01*
X034605Y021195D02*
X03465Y02115D01*
X034713Y0218D02*
X035087D01*
X0349Y021613D02*
Y021987D01*
X035195Y02115D02*
Y02245D01*
X031605D02*
X032195D01*
X031605Y021195D02*
Y02245D01*
X03165Y02115D02*
X032195D01*
X031605Y021195D02*
X03165Y02115D01*
X031713Y0218D02*
X032087D01*
X0319Y021613D02*
Y021987D01*
X032195Y02115D02*
Y02245D01*
X0311Y015255D02*
Y015845D01*
Y015255D02*
X032355D01*
X0324Y0153D02*
Y015845D01*
X032355Y015255D02*
X0324Y0153D01*
X03175Y015363D02*
Y015737D01*
X031563Y01555D02*
X031937D01*
X0311Y015845D02*
X0324D01*
X03395Y015255D02*
Y015845D01*
Y015255D02*
X035205D01*
X03525Y0153D02*
Y015845D01*
X035205Y015255D02*
X03525Y0153D01*
X0346Y015363D02*
Y015737D01*
X034413Y01555D02*
X034787D01*
X03395Y015845D02*
X03525D01*
X03685Y015205D02*
Y015795D01*
Y015205D02*
X038105D01*
X03815Y01525D02*
Y015795D01*
X038105Y015205D02*
X03815Y01525D01*
X0375Y015313D02*
Y015687D01*
X037313Y0155D02*
X037687D01*
X03685Y015795D02*
X03815D01*
X0395Y015255D02*
Y015845D01*
Y015255D02*
X040755D01*
X0408Y0153D02*
Y015845D01*
X040755Y015255D02*
X0408Y0153D01*
X04015Y015363D02*
Y015737D01*
X039963Y01555D02*
X040337D01*
X0395Y015845D02*
X0408D01*
X04235Y015155D02*
Y015745D01*
Y015155D02*
X043605D01*
X04365Y0152D02*
Y015745D01*
X043605Y015155D02*
X04365Y0152D01*
X043Y015263D02*
Y015637D01*
X042813Y01545D02*
X043187D01*
X04235Y015745D02*
X04365D01*
X051205Y00855D02*
X051795D01*
X051205D02*
Y009805D01*
X05125Y00985D02*
X051795D01*
X051205Y009805D02*
X05125Y00985D01*
X051313Y0092D02*
X051687D01*
X0515Y009013D02*
Y009387D01*
X051795Y00855D02*
Y00985D01*
X031455D02*
X032045D01*
Y008595D02*
Y00985D01*
X031455Y00855D02*
X032D01*
X032045Y008595D01*
X031563Y0092D02*
X031937D01*
X03175Y009013D02*
Y009387D01*
X031455Y00855D02*
Y00985D01*
X024755Y00995D02*
X025345D01*
Y008695D02*
Y00995D01*
X024755Y00865D02*
X0253D01*
X025345Y008695D01*
X024863Y0093D02*
X025237D01*
X02505Y009113D02*
Y009487D01*
X024755Y00865D02*
Y00995D01*
X061855Y01495D02*
X062445D01*
Y016205D01*
X061855Y01625D02*
X0624D01*
X062445Y016205D01*
X061963Y0156D02*
X062337D01*
X06215Y015413D02*
Y015787D01*
X061855Y01495D02*
Y01625D01*
X052045Y025955D02*
Y026545D01*
X05079D02*
X052045D01*
X050745Y025955D02*
Y0265D01*
X05079Y026545D01*
X051395Y026063D02*
Y026437D01*
X051208Y02625D02*
X051582D01*
X050745Y025955D02*
X052045D01*
X05535D02*
Y026545D01*
X054095D02*
X05535D01*
X05405Y025955D02*
Y0265D01*
X054095Y026545D01*
X0547Y026063D02*
Y026437D01*
X054513Y02625D02*
X054887D01*
X05405Y025955D02*
X05535D01*
X065105Y01495D02*
X065695D01*
Y016205D01*
X065105Y01625D02*
X06565D01*
X065695Y016205D01*
X065213Y0156D02*
X065587D01*
X0654Y015413D02*
Y015787D01*
X065105Y01495D02*
Y01625D01*
X055555Y0152D02*
X056145D01*
Y016455D01*
X055555Y0165D02*
X0561D01*
X056145Y016455D01*
X055663Y01585D02*
X056037D01*
X05585Y015663D02*
Y016037D01*
X055555Y0152D02*
Y0165D01*
X0647Y026005D02*
Y026595D01*
X063445D02*
X0647D01*
X0634Y026005D02*
Y02655D01*
X063445Y026595D01*
X06405Y026113D02*
Y026487D01*
X063863Y0263D02*
X064237D01*
X0634Y026005D02*
X0647D01*
X06155Y025955D02*
Y026545D01*
X060295D02*
X06155D01*
X06025Y025955D02*
Y0265D01*
X060295Y026545D01*
X0609Y026063D02*
Y026437D01*
X060713Y02625D02*
X061087D01*
X06025Y025955D02*
X06155D01*
X0583D02*
Y026545D01*
X057045D02*
X0583D01*
X057Y025955D02*
Y0265D01*
X057045Y026545D01*
X05765Y026063D02*
Y026437D01*
X057463Y02625D02*
X057837D01*
X057Y025955D02*
X0583D01*
X052355Y0151D02*
X052945D01*
Y016355D01*
X052355Y0164D02*
X0529D01*
X052945Y016355D01*
X052463Y01575D02*
X052837D01*
X05265Y015563D02*
Y015937D01*
X052355Y0151D02*
Y0164D01*
X04505Y015305D02*
Y015895D01*
Y015305D02*
X046305D01*
X04635Y01535D02*
Y015895D01*
X046305Y015305D02*
X04635Y01535D01*
X0457Y015413D02*
Y015787D01*
X045513Y0156D02*
X045887D01*
X04505Y015895D02*
X04635D01*
X022705Y01685D02*
X023295D01*
Y018105D01*
X022705Y01815D02*
X02325D01*
X023295Y018105D01*
X022813Y0175D02*
X023187D01*
X023Y017313D02*
Y017687D01*
X022705Y01685D02*
Y01815D01*
X02075Y015555D02*
Y016145D01*
Y015555D02*
X022005D01*
X02205Y0156D02*
Y016145D01*
X022005Y015555D02*
X02205Y0156D01*
X0214Y015663D02*
Y016037D01*
X021213Y01585D02*
X021587D01*
X02075Y016145D02*
X02205D01*
X0176Y015555D02*
Y016145D01*
Y015555D02*
X018855D01*
X0189Y0156D02*
Y016145D01*
X018855Y015555D02*
X0189Y0156D01*
X01825Y015663D02*
Y016037D01*
X018063Y01585D02*
X018437D01*
X0176Y016145D02*
X0189D01*
X014312Y015731D02*
Y016321D01*
Y015731D02*
X015567D01*
X015612Y015776D02*
Y016321D01*
X015567Y015731D02*
X015612Y015776D01*
X014962Y015839D02*
Y016213D01*
X014775Y016026D02*
X015149D01*
X014312Y016321D02*
X015612D01*
X019455Y01685D02*
X020045D01*
Y018105D01*
X019455Y01815D02*
X02D01*
X020045Y018105D01*
X019563Y0175D02*
X019937D01*
X01975Y017313D02*
Y017687D01*
X019455Y01685D02*
Y01815D01*
X016217Y016976D02*
X016808D01*
Y018231D01*
X016217Y018276D02*
X016762D01*
X016808Y018231D01*
X016325Y017626D02*
X016699D01*
X016512Y017439D02*
Y017813D01*
X016217Y016976D02*
Y018276D01*
X020328Y016626D02*
X022572D01*
X020328Y019726D02*
X022572D01*
X020328Y016626D02*
Y019726D01*
X022572Y016626D02*
Y019726D01*
X017078Y016626D02*
X019322D01*
X017078Y019726D02*
X019322D01*
X017078Y016626D02*
Y019726D01*
X019322Y016626D02*
Y019726D01*
X01379Y016626D02*
X016034D01*
X01379Y019726D02*
X016034D01*
X01379Y016626D02*
Y019726D01*
X016034Y016626D02*
Y019726D01*
M02*
